999
DXF created by Inkscape
  0
SECTION
  2
HEADER
  9
$ACADVER
  1
AC1014
  9
$HANDSEED
  5
FFFF
  9
$MEASUREMENT
 70
     1
  0
ENDSEC
  0
SECTION
  2
TABLES
  0
TABLE
  2
VPORT
  5
8
330
0
100
AcDbSymbolTable
 70
     4
  0
VPORT
  5
2E
330
8
100
AcDbSymbolTableRecord
100
AcDbViewportTableRecord
  2
*ACTIVE
 70
     0
 10
0.0
 20
0.0
 11
1.0
 21
1.0
 12
210.0
 22
148.5
 13
0.0
 23
0.0
 14
10.0
 24
10.0
 15
10.0
 25
10.0
 16
0.0
 26
0.0
 36
1.0
 17
0.0
 27
0.0
 37
0.0
 40
341.0
 41
1.24
 42
50.0
 43
0.0
 44
0.0
 50
0.0
 51
0.0
 71
     0
 72
   100
 73
     1
 74
     3
 75
     0
 76
     0
 77
     0
 78
     0
  0
ENDTAB
  0
TABLE
  2
LTYPE
  5
5
330
0
100
AcDbSymbolTable
 70
     1
  0
LTYPE
  5
14
330
5
100
AcDbSymbolTableRecord
100
AcDbLinetypeTableRecord
  2
BYBLOCK
 70
     0
  3

 72
    65
 73
     0
 40
0.0
  0
LTYPE
  5
15
330
5
100
AcDbSymbolTableRecord
100
AcDbLinetypeTableRecord
  2
BYLAYER
 70
     0
  3

 72
    65
 73
     0
 40
0.0
  0
LTYPE
  5
16
330
5
100
AcDbSymbolTableRecord
100
AcDbLinetypeTableRecord
  2
CONTINUOUS
 70
     0
  3
Solid line
 72
    65
 73
     0
 40
0.0
  0
ENDTAB
  0
TABLE
  2
LAYER
  5
2
100
AcDbSymbolTable
 70
2
  0
LAYER
  5
50
100
AcDbSymbolTableRecord
100
AcDbLayerTableRecord
  2
0
 70
0
  6
CONTINUOUS
  0
LAYER
  5
51
100
AcDbSymbolTableRecord
100
AcDbLayerTableRecord
  2
Layer_1
 70
0
  6
CONTINUOUS
  0
ENDTAB
  0
TABLE
  2
STYLE
  5
3
330
0
100
AcDbSymbolTable
 70
     1
  0
STYLE
  5
11
330
3
100
AcDbSymbolTableRecord
100
AcDbTextStyleTableRecord
  2
STANDARD
 70
     0
 40
0.0
 41
1.0
 50
0.0
 71
     0
 42
2.5
  3
txt
  4

  0
ENDTAB
  0
TABLE
  2
VIEW
  5
6
330
0
100
AcDbSymbolTable
 70
     0
  0
ENDTAB
  0
TABLE
  2
UCS
  5
7
330
0
100
AcDbSymbolTable
 70
     0
  0
ENDTAB
  0
TABLE
  2
APPID
  5
9
330
0
100
AcDbSymbolTable
 70
     2
  0
APPID
  5
12
330
9
100
AcDbSymbolTableRecord
100
AcDbRegAppTableRecord
  2
ACAD
 70
     0
  0
ENDTAB
  0
TABLE
  2
DIMSTYLE
  5
A
330
0
100
AcDbSymbolTable
 70
     1
  0
DIMSTYLE
105
27
330
A
100
AcDbSymbolTableRecord
100
AcDbDimStyleTableRecord
  2
ISO-25
 70
     0
  3

  4

  5

  6

  7

 40
1.0
 41
2.5
 42
0.625
 43
3.75
 44
1.25
 45
0.0
 46
0.0
 47
0.0
 48
0.0
140
2.5
141
2.5
142
0.0
143
0.03937007874016
144
1.0
145
0.0
146
1.0
147
0.625
 71
     0
 72
     0
 73
     0
 74
     0
 75
     0
 76
     0
 77
     1
 78
     8
170
     0
171
     3
172
     1
173
     0
174
     0
175
     0
176
     0
177
     0
178
     0
270
     2
271
     2
272
     2
273
     2
274
     3
340
11
275
     0
280
     0
281
     0
282
     0
283
     0
284
     8
285
     0
286
     0
287
     3
288
     0
  0
ENDTAB
  0
TABLE
  2
BLOCK_RECORD
  5
1
330
0
100
AcDbSymbolTable
 70
     1
  0
BLOCK_RECORD
  5
1F
330
1
100
AcDbSymbolTableRecord
100
AcDbBlockTableRecord
  2
*MODEL_SPACE
  0
BLOCK_RECORD
  5
1B
330
1
100
AcDbSymbolTableRecord
100
AcDbBlockTableRecord
  2
*PAPER_SPACE
  0
ENDTAB
  0
ENDSEC
  0
SECTION
  2
BLOCKS
  0
BLOCK
  5
20
330
1F
100
AcDbEntity
  8
0
100
AcDbBlockBegin
  2
*MODEL_SPACE
 70
     0
 10
0.0
 20
0.0
 30
0.0
  3
*MODEL_SPACE
  1

  0
ENDBLK
  5
21
330
1F
100
AcDbEntity
  8
0
100
AcDbBlockEnd
  0
BLOCK
  5
1C
330
1B
100
AcDbEntity
 67
     1
  8
0
100
AcDbBlockBegin
  2
*PAPER_SPACE
  1

  0
ENDBLK
  5
1D
330
1B
100
AcDbEntity
 67
     1
  8
0
100
AcDbBlockEnd
  0
ENDSEC
  0
SECTION
  2
ENTITIES
  0
LWPOLYLINE
  5
100
100
AcDbEntity
  8
Layer_1
 62
1
100
AcDbPolyline
 90
2
 70
0
 10
197.482023
 20
71.106582
 30
0.0
 10
197.482023
 20
87.106571
 30
0.0
  0
LWPOLYLINE
  5
101
100
AcDbEntity
  8
Layer_1
 62
1
100
AcDbPolyline
 90
2
 70
0
 10
203.482032
 20
71.106582
 30
0.0
 10
197.482023
 20
71.106582
 30
0.0
  0
LWPOLYLINE
  5
102
100
AcDbEntity
  8
Layer_1
 62
1
100
AcDbPolyline
 90
2
 70
0
 10
203.482032
 20
55.106557
 30
0.0
 10
203.482032
 20
71.106582
 30
0.0
  0
LWPOLYLINE
  5
103
100
AcDbEntity
  8
Layer_1
 62
1
100
AcDbPolyline
 90
2
 70
0
 10
203.482032
 20
55.106557
 30
0.0
 10
197.482023
 20
55.106557
 30
0.0
  0
LWPOLYLINE
  5
104
100
AcDbEntity
  8
Layer_1
 62
1
100
AcDbPolyline
 90
2
 70
0
 10
197.482023
 20
39.106568
 30
0.0
 10
197.482023
 20
55.106557
 30
0.0
  0
LWPOLYLINE
  5
105
100
AcDbEntity
  8
Layer_1
 62
1
100
AcDbPolyline
 90
2
 70
0
 10
203.482032
 20
39.106568
 30
0.0
 10
197.482023
 20
39.106568
 30
0.0
  0
LWPOLYLINE
  5
106
100
AcDbEntity
  8
Layer_1
 62
1
100
AcDbPolyline
 90
2
 70
0
 10
203.482032
 20
23.106575
 30
0.0
 10
203.482032
 20
39.106568
 30
0.0
  0
LWPOLYLINE
  5
107
100
AcDbEntity
  8
Layer_1
 62
1
100
AcDbPolyline
 90
2
 70
0
 10
203.482032
 20
23.106575
 30
0.0
 10
197.482023
 20
23.106575
 30
0.0
  0
LWPOLYLINE
  5
108
100
AcDbEntity
  8
Layer_1
 62
1
100
AcDbPolyline
 90
2
 70
0
 10
197.482023
 20
7.106576
 30
0.0
 10
197.482023
 20
23.106575
 30
0.0
  0
LWPOLYLINE
  5
109
100
AcDbEntity
  8
Layer_1
 62
1
100
AcDbPolyline
 90
2
 70
0
 10
123.482054
 20
71.106582
 30
0.0
 10
123.482054
 20
87.106571
 30
0.0
  0
LWPOLYLINE
  5
10a
100
AcDbEntity
  8
Layer_1
 62
1
100
AcDbPolyline
 90
2
 70
0
 10
129.482028
 20
71.106582
 30
0.0
 10
123.482054
 20
71.106582
 30
0.0
  0
LWPOLYLINE
  5
10b
100
AcDbEntity
  8
Layer_1
 62
1
100
AcDbPolyline
 90
2
 70
0
 10
129.482028
 20
55.106557
 30
0.0
 10
129.482028
 20
71.106582
 30
0.0
  0
LWPOLYLINE
  5
10c
100
AcDbEntity
  8
Layer_1
 62
1
100
AcDbPolyline
 90
2
 70
0
 10
129.482028
 20
55.106557
 30
0.0
 10
123.482054
 20
55.106557
 30
0.0
  0
LWPOLYLINE
  5
10d
100
AcDbEntity
  8
Layer_1
 62
1
100
AcDbPolyline
 90
2
 70
0
 10
123.482054
 20
39.106568
 30
0.0
 10
123.482054
 20
55.106557
 30
0.0
  0
LWPOLYLINE
  5
10e
100
AcDbEntity
  8
Layer_1
 62
1
100
AcDbPolyline
 90
2
 70
0
 10
129.482028
 20
39.106568
 30
0.0
 10
123.482054
 20
39.106568
 30
0.0
  0
LWPOLYLINE
  5
10f
100
AcDbEntity
  8
Layer_1
 62
1
100
AcDbPolyline
 90
2
 70
0
 10
129.482028
 20
23.106575
 30
0.0
 10
129.482028
 20
39.106568
 30
0.0
  0
LWPOLYLINE
  5
110
100
AcDbEntity
  8
Layer_1
 62
1
100
AcDbPolyline
 90
2
 70
0
 10
129.482028
 20
23.106575
 30
0.0
 10
123.482054
 20
23.106575
 30
0.0
  0
LWPOLYLINE
  5
111
100
AcDbEntity
  8
Layer_1
 62
1
100
AcDbPolyline
 90
2
 70
0
 10
123.482054
 20
7.106576
 30
0.0
 10
123.482054
 20
23.106575
 30
0.0
  0
LWPOLYLINE
  5
112
100
AcDbEntity
  8
Layer_1
 62
1
100
AcDbPolyline
 90
2
 70
0
 10
187.482043
 20
87.106571
 30
0.0
 10
197.482023
 20
87.106571
 30
0.0
  0
LWPOLYLINE
  5
113
100
AcDbEntity
  8
Layer_1
 62
1
100
AcDbPolyline
 90
2
 70
0
 10
187.482043
 20
87.106571
 30
0.0
 10
187.482043
 20
81.106562
 30
0.0
  0
LWPOLYLINE
  5
114
100
AcDbEntity
  8
Layer_1
 62
1
100
AcDbPolyline
 90
2
 70
0
 10
171.482053
 20
81.106562
 30
0.0
 10
187.482043
 20
81.106562
 30
0.0
  0
LWPOLYLINE
  5
115
100
AcDbEntity
  8
Layer_1
 62
1
100
AcDbPolyline
 90
2
 70
0
 10
171.482053
 20
87.106571
 30
0.0
 10
171.482053
 20
81.106562
 30
0.0
  0
LWPOLYLINE
  5
116
100
AcDbEntity
  8
Layer_1
 62
1
100
AcDbPolyline
 90
2
 70
0
 10
155.482032
 20
87.106571
 30
0.0
 10
171.482053
 20
87.106571
 30
0.0
  0
LWPOLYLINE
  5
117
100
AcDbEntity
  8
Layer_1
 62
1
100
AcDbPolyline
 90
2
 70
0
 10
155.482032
 20
87.106571
 30
0.0
 10
155.482032
 20
81.106562
 30
0.0
  0
LWPOLYLINE
  5
118
100
AcDbEntity
  8
Layer_1
 62
1
100
AcDbPolyline
 90
2
 70
0
 10
139.482043
 20
81.106562
 30
0.0
 10
155.482032
 20
81.106562
 30
0.0
  0
LWPOLYLINE
  5
119
100
AcDbEntity
  8
Layer_1
 62
1
100
AcDbPolyline
 90
2
 70
0
 10
139.482043
 20
87.106571
 30
0.0
 10
139.482043
 20
81.106562
 30
0.0
  0
LWPOLYLINE
  5
11a
100
AcDbEntity
  8
Layer_1
 62
1
100
AcDbPolyline
 90
2
 70
0
 10
123.482054
 20
87.106571
 30
0.0
 10
139.482043
 20
87.106571
 30
0.0
  0
LWPOLYLINE
  5
11b
100
AcDbEntity
  8
Layer_1
 62
1
100
AcDbPolyline
 90
2
 70
0
 10
187.482043
 20
7.106576
 30
0.0
 10
197.482023
 20
7.106576
 30
0.0
  0
LWPOLYLINE
  5
11c
100
AcDbEntity
  8
Layer_1
 62
1
100
AcDbPolyline
 90
2
 70
0
 10
187.482043
 20
13.106574
 30
0.0
 10
187.482043
 20
7.106576
 30
0.0
  0
LWPOLYLINE
  5
11d
100
AcDbEntity
  8
Layer_1
 62
1
100
AcDbPolyline
 90
2
 70
0
 10
171.482053
 20
13.106574
 30
0.0
 10
187.482043
 20
13.106574
 30
0.0
  0
LWPOLYLINE
  5
11e
100
AcDbEntity
  8
Layer_1
 62
1
100
AcDbPolyline
 90
2
 70
0
 10
171.482053
 20
13.106574
 30
0.0
 10
171.482053
 20
7.106576
 30
0.0
  0
LWPOLYLINE
  5
11f
100
AcDbEntity
  8
Layer_1
 62
1
100
AcDbPolyline
 90
2
 70
0
 10
155.482032
 20
7.106576
 30
0.0
 10
171.482053
 20
7.106576
 30
0.0
  0
LWPOLYLINE
  5
120
100
AcDbEntity
  8
Layer_1
 62
1
100
AcDbPolyline
 90
2
 70
0
 10
155.482032
 20
13.106574
 30
0.0
 10
155.482032
 20
7.106576
 30
0.0
  0
LWPOLYLINE
  5
121
100
AcDbEntity
  8
Layer_1
 62
1
100
AcDbPolyline
 90
2
 70
0
 10
139.482043
 20
13.106574
 30
0.0
 10
155.482032
 20
13.106574
 30
0.0
  0
LWPOLYLINE
  5
122
100
AcDbEntity
  8
Layer_1
 62
1
100
AcDbPolyline
 90
2
 70
0
 10
139.482043
 20
13.106574
 30
0.0
 10
139.482043
 20
7.106576
 30
0.0
  0
LWPOLYLINE
  5
123
100
AcDbEntity
  8
Layer_1
 62
1
100
AcDbPolyline
 90
2
 70
0
 10
123.482054
 20
7.106576
 30
0.0
 10
139.482043
 20
7.106576
 30
0.0
  0
LWPOLYLINE
  5
124
100
AcDbEntity
  8
Layer_1
 62
1
100
AcDbPolyline
 90
2
 70
0
 10
197.480682
 20
367.758847
 30
0.0
 10
197.480682
 20
383.758837
 30
0.0
  0
LWPOLYLINE
  5
125
100
AcDbEntity
  8
Layer_1
 62
1
100
AcDbPolyline
 90
2
 70
0
 10
203.480691
 20
367.758847
 30
0.0
 10
197.480682
 20
367.758847
 30
0.0
  0
LWPOLYLINE
  5
126
100
AcDbEntity
  8
Layer_1
 62
1
100
AcDbPolyline
 90
2
 70
0
 10
203.480691
 20
351.758858
 30
0.0
 10
203.480691
 20
367.758847
 30
0.0
  0
LWPOLYLINE
  5
127
100
AcDbEntity
  8
Layer_1
 62
1
100
AcDbPolyline
 90
2
 70
0
 10
203.480691
 20
351.758858
 30
0.0
 10
197.480682
 20
351.758858
 30
0.0
  0
LWPOLYLINE
  5
128
100
AcDbEntity
  8
Layer_1
 62
1
100
AcDbPolyline
 90
2
 70
0
 10
197.480682
 20
335.758834
 30
0.0
 10
197.480682
 20
351.758858
 30
0.0
  0
LWPOLYLINE
  5
129
100
AcDbEntity
  8
Layer_1
 62
1
100
AcDbPolyline
 90
2
 70
0
 10
203.480691
 20
335.758834
 30
0.0
 10
197.480682
 20
335.758834
 30
0.0
  0
LWPOLYLINE
  5
12a
100
AcDbEntity
  8
Layer_1
 62
1
100
AcDbPolyline
 90
2
 70
0
 10
203.480691
 20
319.758845
 30
0.0
 10
203.480691
 20
335.758834
 30
0.0
  0
LWPOLYLINE
  5
12b
100
AcDbEntity
  8
Layer_1
 62
1
100
AcDbPolyline
 90
2
 70
0
 10
203.480691
 20
319.758845
 30
0.0
 10
197.480682
 20
319.758845
 30
0.0
  0
LWPOLYLINE
  5
12c
100
AcDbEntity
  8
Layer_1
 62
1
100
AcDbPolyline
 90
2
 70
0
 10
197.480682
 20
303.758764
 30
0.0
 10
197.480682
 20
319.758845
 30
0.0
  0
LWPOLYLINE
  5
12d
100
AcDbEntity
  8
Layer_1
 62
1
100
AcDbPolyline
 90
2
 70
0
 10
123.480699
 20
367.758847
 30
0.0
 10
123.480699
 20
383.758837
 30
0.0
  0
LWPOLYLINE
  5
12e
100
AcDbEntity
  8
Layer_1
 62
1
100
AcDbPolyline
 90
2
 70
0
 10
129.480698
 20
367.758847
 30
0.0
 10
123.480699
 20
367.758847
 30
0.0
  0
LWPOLYLINE
  5
12f
100
AcDbEntity
  8
Layer_1
 62
1
100
AcDbPolyline
 90
2
 70
0
 10
129.480698
 20
351.758858
 30
0.0
 10
129.480698
 20
367.758847
 30
0.0
  0
LWPOLYLINE
  5
130
100
AcDbEntity
  8
Layer_1
 62
1
100
AcDbPolyline
 90
2
 70
0
 10
129.480698
 20
351.758858
 30
0.0
 10
123.480699
 20
351.758858
 30
0.0
  0
LWPOLYLINE
  5
131
100
AcDbEntity
  8
Layer_1
 62
1
100
AcDbPolyline
 90
2
 70
0
 10
123.480699
 20
335.758834
 30
0.0
 10
123.480699
 20
351.758858
 30
0.0
  0
LWPOLYLINE
  5
132
100
AcDbEntity
  8
Layer_1
 62
1
100
AcDbPolyline
 90
2
 70
0
 10
129.480698
 20
335.758834
 30
0.0
 10
123.480699
 20
335.758834
 30
0.0
  0
LWPOLYLINE
  5
133
100
AcDbEntity
  8
Layer_1
 62
1
100
AcDbPolyline
 90
2
 70
0
 10
129.480698
 20
319.758845
 30
0.0
 10
129.480698
 20
335.758834
 30
0.0
  0
LWPOLYLINE
  5
134
100
AcDbEntity
  8
Layer_1
 62
1
100
AcDbPolyline
 90
2
 70
0
 10
129.480698
 20
319.758845
 30
0.0
 10
123.480699
 20
319.758845
 30
0.0
  0
LWPOLYLINE
  5
135
100
AcDbEntity
  8
Layer_1
 62
1
100
AcDbPolyline
 90
2
 70
0
 10
123.480699
 20
303.758764
 30
0.0
 10
123.480699
 20
319.758845
 30
0.0
  0
LWPOLYLINE
  5
136
100
AcDbEntity
  8
Layer_1
 62
1
100
AcDbPolyline
 90
2
 70
0
 10
187.480702
 20
383.758837
 30
0.0
 10
197.480682
 20
383.758837
 30
0.0
  0
LWPOLYLINE
  5
137
100
AcDbEntity
  8
Layer_1
 62
1
100
AcDbPolyline
 90
2
 70
0
 10
187.480702
 20
383.758837
 30
0.0
 10
187.480702
 20
377.758827
 30
0.0
  0
LWPOLYLINE
  5
138
100
AcDbEntity
  8
Layer_1
 62
1
100
AcDbPolyline
 90
2
 70
0
 10
171.480678
 20
377.758827
 30
0.0
 10
187.480702
 20
377.758827
 30
0.0
  0
LWPOLYLINE
  5
139
100
AcDbEntity
  8
Layer_1
 62
1
100
AcDbPolyline
 90
2
 70
0
 10
171.480678
 20
383.758837
 30
0.0
 10
171.480678
 20
377.758827
 30
0.0
  0
LWPOLYLINE
  5
13a
100
AcDbEntity
  8
Layer_1
 62
1
100
AcDbPolyline
 90
2
 70
0
 10
155.480692
 20
383.758837
 30
0.0
 10
171.480678
 20
383.758837
 30
0.0
  0
LWPOLYLINE
  5
13b
100
AcDbEntity
  8
Layer_1
 62
1
100
AcDbPolyline
 90
2
 70
0
 10
155.480692
 20
383.758837
 30
0.0
 10
155.480692
 20
377.758827
 30
0.0
  0
LWPOLYLINE
  5
13c
100
AcDbEntity
  8
Layer_1
 62
1
100
AcDbPolyline
 90
2
 70
0
 10
139.480699
 20
377.758827
 30
0.0
 10
155.480692
 20
377.758827
 30
0.0
  0
LWPOLYLINE
  5
13d
100
AcDbEntity
  8
Layer_1
 62
1
100
AcDbPolyline
 90
2
 70
0
 10
139.480699
 20
383.758837
 30
0.0
 10
139.480699
 20
377.758827
 30
0.0
  0
LWPOLYLINE
  5
13e
100
AcDbEntity
  8
Layer_1
 62
1
100
AcDbPolyline
 90
2
 70
0
 10
123.480699
 20
383.758837
 30
0.0
 10
139.480699
 20
383.758837
 30
0.0
  0
LWPOLYLINE
  5
13f
100
AcDbEntity
  8
Layer_1
 62
1
100
AcDbPolyline
 90
2
 70
0
 10
187.480702
 20
303.758764
 30
0.0
 10
197.480682
 20
303.758764
 30
0.0
  0
LWPOLYLINE
  5
140
100
AcDbEntity
  8
Layer_1
 62
1
100
AcDbPolyline
 90
2
 70
0
 10
187.480702
 20
309.758738
 30
0.0
 10
187.480702
 20
303.758764
 30
0.0
  0
LWPOLYLINE
  5
141
100
AcDbEntity
  8
Layer_1
 62
1
100
AcDbPolyline
 90
2
 70
0
 10
171.480678
 20
309.758738
 30
0.0
 10
187.480702
 20
309.758738
 30
0.0
  0
LWPOLYLINE
  5
142
100
AcDbEntity
  8
Layer_1
 62
1
100
AcDbPolyline
 90
2
 70
0
 10
171.480678
 20
309.758738
 30
0.0
 10
171.480678
 20
303.758764
 30
0.0
  0
LWPOLYLINE
  5
143
100
AcDbEntity
  8
Layer_1
 62
1
100
AcDbPolyline
 90
2
 70
0
 10
155.480692
 20
303.758764
 30
0.0
 10
171.480678
 20
303.758764
 30
0.0
  0
LWPOLYLINE
  5
144
100
AcDbEntity
  8
Layer_1
 62
1
100
AcDbPolyline
 90
2
 70
0
 10
155.480692
 20
309.758738
 30
0.0
 10
155.480692
 20
303.758764
 30
0.0
  0
LWPOLYLINE
  5
145
100
AcDbEntity
  8
Layer_1
 62
1
100
AcDbPolyline
 90
2
 70
0
 10
139.480699
 20
309.758738
 30
0.0
 10
155.480692
 20
309.758738
 30
0.0
  0
LWPOLYLINE
  5
146
100
AcDbEntity
  8
Layer_1
 62
1
100
AcDbPolyline
 90
2
 70
0
 10
139.480699
 20
309.758738
 30
0.0
 10
139.480699
 20
303.758764
 30
0.0
  0
LWPOLYLINE
  5
147
100
AcDbEntity
  8
Layer_1
 62
1
100
AcDbPolyline
 90
2
 70
0
 10
123.480699
 20
303.758764
 30
0.0
 10
139.480699
 20
303.758764
 30
0.0
  0
LWPOLYLINE
  5
148
100
AcDbEntity
  8
Layer_1
 62
1
100
AcDbPolyline
 90
2
 70
0
 10
197.482023
 20
145.302134
 30
0.0
 10
197.482023
 20
155.302114
 30
0.0
  0
LWPOLYLINE
  5
149
100
AcDbEntity
  8
Layer_1
 62
1
100
AcDbPolyline
 90
2
 70
0
 10
203.482032
 20
145.302134
 30
0.0
 10
197.482023
 20
145.302134
 30
0.0
  0
LWPOLYLINE
  5
14a
100
AcDbEntity
  8
Layer_1
 62
1
100
AcDbPolyline
 90
2
 70
0
 10
203.482032
 20
129.302145
 30
0.0
 10
203.482032
 20
145.302134
 30
0.0
  0
LWPOLYLINE
  5
14b
100
AcDbEntity
  8
Layer_1
 62
1
100
AcDbPolyline
 90
2
 70
0
 10
203.482032
 20
129.302145
 30
0.0
 10
197.482023
 20
129.302145
 30
0.0
  0
LWPOLYLINE
  5
14c
100
AcDbEntity
  8
Layer_1
 62
1
100
AcDbPolyline
 90
2
 70
0
 10
197.482023
 20
113.302120
 30
0.0
 10
197.482023
 20
129.302145
 30
0.0
  0
LWPOLYLINE
  5
14d
100
AcDbEntity
  8
Layer_1
 62
1
100
AcDbPolyline
 90
2
 70
0
 10
203.482032
 20
113.302120
 30
0.0
 10
197.482023
 20
113.302120
 30
0.0
  0
LWPOLYLINE
  5
14e
100
AcDbEntity
  8
Layer_1
 62
1
100
AcDbPolyline
 90
2
 70
0
 10
203.482032
 20
97.302131
 30
0.0
 10
203.482032
 20
113.302120
 30
0.0
  0
LWPOLYLINE
  5
14f
100
AcDbEntity
  8
Layer_1
 62
1
100
AcDbPolyline
 90
2
 70
0
 10
203.482032
 20
97.302131
 30
0.0
 10
197.482023
 20
97.302131
 30
0.0
  0
LWPOLYLINE
  5
150
100
AcDbEntity
  8
Layer_1
 62
1
100
AcDbPolyline
 90
2
 70
0
 10
197.482023
 20
87.302116
 30
0.0
 10
197.482023
 20
97.302131
 30
0.0
  0
LWPOLYLINE
  5
151
100
AcDbEntity
  8
Layer_1
 62
1
100
AcDbPolyline
 90
2
 70
0
 10
129.482028
 20
145.302134
 30
0.0
 10
129.482028
 20
155.302114
 30
0.0
  0
LWPOLYLINE
  5
152
100
AcDbEntity
  8
Layer_1
 62
1
100
AcDbPolyline
 90
2
 70
0
 10
129.482028
 20
145.302134
 30
0.0
 10
123.482054
 20
145.302134
 30
0.0
  0
LWPOLYLINE
  5
153
100
AcDbEntity
  8
Layer_1
 62
1
100
AcDbPolyline
 90
2
 70
0
 10
123.482054
 20
129.302145
 30
0.0
 10
123.482054
 20
145.302134
 30
0.0
  0
LWPOLYLINE
  5
154
100
AcDbEntity
  8
Layer_1
 62
1
100
AcDbPolyline
 90
2
 70
0
 10
129.482028
 20
129.302145
 30
0.0
 10
123.482054
 20
129.302145
 30
0.0
  0
LWPOLYLINE
  5
155
100
AcDbEntity
  8
Layer_1
 62
1
100
AcDbPolyline
 90
2
 70
0
 10
129.482028
 20
113.302120
 30
0.0
 10
129.482028
 20
129.302145
 30
0.0
  0
LWPOLYLINE
  5
156
100
AcDbEntity
  8
Layer_1
 62
1
100
AcDbPolyline
 90
2
 70
0
 10
129.482028
 20
113.302120
 30
0.0
 10
123.482054
 20
113.302120
 30
0.0
  0
LWPOLYLINE
  5
157
100
AcDbEntity
  8
Layer_1
 62
1
100
AcDbPolyline
 90
2
 70
0
 10
123.482054
 20
97.302131
 30
0.0
 10
123.482054
 20
113.302120
 30
0.0
  0
LWPOLYLINE
  5
158
100
AcDbEntity
  8
Layer_1
 62
1
100
AcDbPolyline
 90
2
 70
0
 10
129.482028
 20
97.302131
 30
0.0
 10
123.482054
 20
97.302131
 30
0.0
  0
LWPOLYLINE
  5
159
100
AcDbEntity
  8
Layer_1
 62
1
100
AcDbPolyline
 90
2
 70
0
 10
129.482028
 20
87.302116
 30
0.0
 10
129.482028
 20
97.302131
 30
0.0
  0
LWPOLYLINE
  5
15a
100
AcDbEntity
  8
Layer_1
 62
1
100
AcDbPolyline
 90
2
 70
0
 10
187.482043
 20
155.302114
 30
0.0
 10
197.482023
 20
155.302114
 30
0.0
  0
LWPOLYLINE
  5
15b
100
AcDbEntity
  8
Layer_1
 62
1
100
AcDbPolyline
 90
2
 70
0
 10
187.482043
 20
161.302123
 30
0.0
 10
187.482043
 20
155.302114
 30
0.0
  0
LWPOLYLINE
  5
15c
100
AcDbEntity
  8
Layer_1
 62
1
100
AcDbPolyline
 90
2
 70
0
 10
171.482053
 20
161.302123
 30
0.0
 10
187.482043
 20
161.302123
 30
0.0
  0
LWPOLYLINE
  5
15d
100
AcDbEntity
  8
Layer_1
 62
1
100
AcDbPolyline
 90
2
 70
0
 10
171.482053
 20
161.302123
 30
0.0
 10
171.482053
 20
155.302114
 30
0.0
  0
LWPOLYLINE
  5
15e
100
AcDbEntity
  8
Layer_1
 62
1
100
AcDbPolyline
 90
2
 70
0
 10
155.482032
 20
155.302114
 30
0.0
 10
171.482053
 20
155.302114
 30
0.0
  0
LWPOLYLINE
  5
15f
100
AcDbEntity
  8
Layer_1
 62
1
100
AcDbPolyline
 90
2
 70
0
 10
155.482032
 20
161.302123
 30
0.0
 10
155.482032
 20
155.302114
 30
0.0
  0
LWPOLYLINE
  5
160
100
AcDbEntity
  8
Layer_1
 62
1
100
AcDbPolyline
 90
2
 70
0
 10
139.482043
 20
161.302123
 30
0.0
 10
155.482032
 20
161.302123
 30
0.0
  0
LWPOLYLINE
  5
161
100
AcDbEntity
  8
Layer_1
 62
1
100
AcDbPolyline
 90
2
 70
0
 10
139.482043
 20
161.302123
 30
0.0
 10
139.482043
 20
155.302114
 30
0.0
  0
LWPOLYLINE
  5
162
100
AcDbEntity
  8
Layer_1
 62
1
100
AcDbPolyline
 90
2
 70
0
 10
129.482028
 20
155.302114
 30
0.0
 10
139.482043
 20
155.302114
 30
0.0
  0
LWPOLYLINE
  5
163
100
AcDbEntity
  8
Layer_1
 62
1
100
AcDbPolyline
 90
2
 70
0
 10
187.482043
 20
87.302116
 30
0.0
 10
197.482023
 20
87.302116
 30
0.0
  0
LWPOLYLINE
  5
164
100
AcDbEntity
  8
Layer_1
 62
1
100
AcDbPolyline
 90
2
 70
0
 10
187.482043
 20
87.302116
 30
0.0
 10
187.482043
 20
81.302142
 30
0.0
  0
LWPOLYLINE
  5
165
100
AcDbEntity
  8
Layer_1
 62
1
100
AcDbPolyline
 90
2
 70
0
 10
171.482053
 20
81.302142
 30
0.0
 10
187.482043
 20
81.302142
 30
0.0
  0
LWPOLYLINE
  5
166
100
AcDbEntity
  8
Layer_1
 62
1
100
AcDbPolyline
 90
2
 70
0
 10
171.482053
 20
87.302116
 30
0.0
 10
171.482053
 20
81.302142
 30
0.0
  0
LWPOLYLINE
  5
167
100
AcDbEntity
  8
Layer_1
 62
1
100
AcDbPolyline
 90
2
 70
0
 10
155.482032
 20
87.302116
 30
0.0
 10
171.482053
 20
87.302116
 30
0.0
  0
LWPOLYLINE
  5
168
100
AcDbEntity
  8
Layer_1
 62
1
100
AcDbPolyline
 90
2
 70
0
 10
155.482032
 20
87.302116
 30
0.0
 10
155.482032
 20
81.302142
 30
0.0
  0
LWPOLYLINE
  5
169
100
AcDbEntity
  8
Layer_1
 62
1
100
AcDbPolyline
 90
2
 70
0
 10
139.482043
 20
81.302142
 30
0.0
 10
155.482032
 20
81.302142
 30
0.0
  0
LWPOLYLINE
  5
16a
100
AcDbEntity
  8
Layer_1
 62
1
100
AcDbPolyline
 90
2
 70
0
 10
139.482043
 20
87.302116
 30
0.0
 10
139.482043
 20
81.302142
 30
0.0
  0
LWPOLYLINE
  5
16b
100
AcDbEntity
  8
Layer_1
 62
1
100
AcDbPolyline
 90
2
 70
0
 10
129.482028
 20
87.302116
 30
0.0
 10
139.482043
 20
87.302116
 30
0.0
  0
LWPOLYLINE
  5
16c
100
AcDbEntity
  8
Layer_1
 62
1
100
AcDbPolyline
 90
2
 70
0
 10
187.478374
 20
383.830980
 30
0.0
 10
203.478363
 20
383.830980
 30
0.0
  0
LWPOLYLINE
  5
16d
100
AcDbEntity
  8
Layer_1
 62
1
100
AcDbPolyline
 90
2
 70
0
 10
187.478374
 20
377.831006
 30
0.0
 10
187.478374
 20
383.830980
 30
0.0
  0
LWPOLYLINE
  5
16e
100
AcDbEntity
  8
Layer_1
 62
1
100
AcDbPolyline
 90
2
 70
0
 10
171.478385
 20
377.831006
 30
0.0
 10
187.478374
 20
377.831006
 30
0.0
  0
LWPOLYLINE
  5
16f
100
AcDbEntity
  8
Layer_1
 62
1
100
AcDbPolyline
 90
2
 70
0
 10
171.478385
 20
377.831006
 30
0.0
 10
171.478385
 20
383.830980
 30
0.0
  0
LWPOLYLINE
  5
170
100
AcDbEntity
  8
Layer_1
 62
1
100
AcDbPolyline
 90
2
 70
0
 10
155.478360
 20
383.830980
 30
0.0
 10
171.478385
 20
383.830980
 30
0.0
  0
LWPOLYLINE
  5
171
100
AcDbEntity
  8
Layer_1
 62
1
100
AcDbPolyline
 90
2
 70
0
 10
155.478360
 20
377.831006
 30
0.0
 10
155.478360
 20
383.830980
 30
0.0
  0
LWPOLYLINE
  5
172
100
AcDbEntity
  8
Layer_1
 62
1
100
AcDbPolyline
 90
2
 70
0
 10
139.478371
 20
377.831006
 30
0.0
 10
155.478360
 20
377.831006
 30
0.0
  0
LWPOLYLINE
  5
173
100
AcDbEntity
  8
Layer_1
 62
1
100
AcDbPolyline
 90
2
 70
0
 10
139.478371
 20
377.831006
 30
0.0
 10
139.478371
 20
383.830980
 30
0.0
  0
LWPOLYLINE
  5
174
100
AcDbEntity
  8
Layer_1
 62
1
100
AcDbPolyline
 90
2
 70
0
 10
123.478382
 20
383.830980
 30
0.0
 10
139.478371
 20
383.830980
 30
0.0
  0
LWPOLYLINE
  5
175
100
AcDbEntity
  8
Layer_1
 62
1
100
AcDbPolyline
 90
2
 70
0
 10
187.478374
 20
457.830987
 30
0.0
 10
203.478363
 20
457.830987
 30
0.0
  0
LWPOLYLINE
  5
176
100
AcDbEntity
  8
Layer_1
 62
1
100
AcDbPolyline
 90
2
 70
0
 10
187.478374
 20
451.830978
 30
0.0
 10
187.478374
 20
457.830987
 30
0.0
  0
LWPOLYLINE
  5
177
100
AcDbEntity
  8
Layer_1
 62
1
100
AcDbPolyline
 90
2
 70
0
 10
171.478385
 20
451.830978
 30
0.0
 10
187.478374
 20
451.830978
 30
0.0
  0
LWPOLYLINE
  5
178
100
AcDbEntity
  8
Layer_1
 62
1
100
AcDbPolyline
 90
2
 70
0
 10
171.478385
 20
451.830978
 30
0.0
 10
171.478385
 20
457.830987
 30
0.0
  0
LWPOLYLINE
  5
179
100
AcDbEntity
  8
Layer_1
 62
1
100
AcDbPolyline
 90
2
 70
0
 10
155.478360
 20
457.830987
 30
0.0
 10
171.478385
 20
457.830987
 30
0.0
  0
LWPOLYLINE
  5
17a
100
AcDbEntity
  8
Layer_1
 62
1
100
AcDbPolyline
 90
2
 70
0
 10
155.478360
 20
451.830978
 30
0.0
 10
155.478360
 20
457.830987
 30
0.0
  0
LWPOLYLINE
  5
17b
100
AcDbEntity
  8
Layer_1
 62
1
100
AcDbPolyline
 90
2
 70
0
 10
139.478371
 20
451.830978
 30
0.0
 10
155.478360
 20
451.830978
 30
0.0
  0
LWPOLYLINE
  5
17c
100
AcDbEntity
  8
Layer_1
 62
1
100
AcDbPolyline
 90
2
 70
0
 10
139.478371
 20
451.830978
 30
0.0
 10
139.478371
 20
457.830987
 30
0.0
  0
LWPOLYLINE
  5
17d
100
AcDbEntity
  8
Layer_1
 62
1
100
AcDbPolyline
 90
2
 70
0
 10
123.478382
 20
457.830987
 30
0.0
 10
139.478371
 20
457.830987
 30
0.0
  0
LWPOLYLINE
  5
17e
100
AcDbEntity
  8
Layer_1
 62
1
100
AcDbPolyline
 90
2
 70
0
 10
203.478363
 20
393.830995
 30
0.0
 10
203.478363
 20
383.830980
 30
0.0
  0
LWPOLYLINE
  5
17f
100
AcDbEntity
  8
Layer_1
 62
1
100
AcDbPolyline
 90
2
 70
0
 10
203.478363
 20
393.830995
 30
0.0
 10
197.478354
 20
393.830995
 30
0.0
  0
LWPOLYLINE
  5
180
100
AcDbEntity
  8
Layer_1
 62
1
100
AcDbPolyline
 90
2
 70
0
 10
197.478354
 20
409.830984
 30
0.0
 10
197.478354
 20
393.830995
 30
0.0
  0
LWPOLYLINE
  5
181
100
AcDbEntity
  8
Layer_1
 62
1
100
AcDbPolyline
 90
2
 70
0
 10
203.478363
 20
409.830984
 30
0.0
 10
197.478354
 20
409.830984
 30
0.0
  0
LWPOLYLINE
  5
182
100
AcDbEntity
  8
Layer_1
 62
1
100
AcDbPolyline
 90
2
 70
0
 10
203.478363
 20
425.831008
 30
0.0
 10
203.478363
 20
409.830984
 30
0.0
  0
LWPOLYLINE
  5
183
100
AcDbEntity
  8
Layer_1
 62
1
100
AcDbPolyline
 90
2
 70
0
 10
203.478363
 20
425.831008
 30
0.0
 10
197.478354
 20
425.831008
 30
0.0
  0
LWPOLYLINE
  5
184
100
AcDbEntity
  8
Layer_1
 62
1
100
AcDbPolyline
 90
2
 70
0
 10
197.478354
 20
441.830998
 30
0.0
 10
197.478354
 20
425.831008
 30
0.0
  0
LWPOLYLINE
  5
185
100
AcDbEntity
  8
Layer_1
 62
1
100
AcDbPolyline
 90
2
 70
0
 10
203.478363
 20
441.830998
 30
0.0
 10
197.478354
 20
441.830998
 30
0.0
  0
LWPOLYLINE
  5
186
100
AcDbEntity
  8
Layer_1
 62
1
100
AcDbPolyline
 90
2
 70
0
 10
203.478363
 20
457.830987
 30
0.0
 10
203.478363
 20
441.830998
 30
0.0
  0
LWPOLYLINE
  5
187
100
AcDbEntity
  8
Layer_1
 62
1
100
AcDbPolyline
 90
2
 70
0
 10
123.478382
 20
393.830995
 30
0.0
 10
123.478382
 20
383.830980
 30
0.0
  0
LWPOLYLINE
  5
188
100
AcDbEntity
  8
Layer_1
 62
1
100
AcDbPolyline
 90
2
 70
0
 10
129.478356
 20
393.830995
 30
0.0
 10
123.478382
 20
393.830995
 30
0.0
  0
LWPOLYLINE
  5
189
100
AcDbEntity
  8
Layer_1
 62
1
100
AcDbPolyline
 90
2
 70
0
 10
129.478356
 20
409.830984
 30
0.0
 10
129.478356
 20
393.830995
 30
0.0
  0
LWPOLYLINE
  5
18a
100
AcDbEntity
  8
Layer_1
 62
1
100
AcDbPolyline
 90
2
 70
0
 10
129.478356
 20
409.830984
 30
0.0
 10
123.478382
 20
409.830984
 30
0.0
  0
LWPOLYLINE
  5
18b
100
AcDbEntity
  8
Layer_1
 62
1
100
AcDbPolyline
 90
2
 70
0
 10
123.478382
 20
425.831008
 30
0.0
 10
123.478382
 20
409.830984
 30
0.0
  0
LWPOLYLINE
  5
18c
100
AcDbEntity
  8
Layer_1
 62
1
100
AcDbPolyline
 90
2
 70
0
 10
129.478356
 20
425.831008
 30
0.0
 10
123.478382
 20
425.831008
 30
0.0
  0
LWPOLYLINE
  5
18d
100
AcDbEntity
  8
Layer_1
 62
1
100
AcDbPolyline
 90
2
 70
0
 10
129.478356
 20
441.830998
 30
0.0
 10
129.478356
 20
425.831008
 30
0.0
  0
LWPOLYLINE
  5
18e
100
AcDbEntity
  8
Layer_1
 62
1
100
AcDbPolyline
 90
2
 70
0
 10
129.478356
 20
441.830998
 30
0.0
 10
123.478382
 20
441.830998
 30
0.0
  0
LWPOLYLINE
  5
18f
100
AcDbEntity
  8
Layer_1
 62
1
100
AcDbPolyline
 90
2
 70
0
 10
123.478382
 20
457.830987
 30
0.0
 10
123.478382
 20
441.830998
 30
0.0
  0
LWPOLYLINE
  5
190
100
AcDbEntity
  8
Layer_1
 62
1
100
AcDbPolyline
 90
2
 70
0
 10
197.482023
 20
219.497686
 30
0.0
 10
197.482023
 20
235.497675
 30
0.0
  0
LWPOLYLINE
  5
191
100
AcDbEntity
  8
Layer_1
 62
1
100
AcDbPolyline
 90
2
 70
0
 10
203.482032
 20
219.497686
 30
0.0
 10
197.482023
 20
219.497686
 30
0.0
  0
LWPOLYLINE
  5
192
100
AcDbEntity
  8
Layer_1
 62
1
100
AcDbPolyline
 90
2
 70
0
 10
203.482032
 20
203.497696
 30
0.0
 10
203.482032
 20
219.497686
 30
0.0
  0
LWPOLYLINE
  5
193
100
AcDbEntity
  8
Layer_1
 62
1
100
AcDbPolyline
 90
2
 70
0
 10
203.482032
 20
203.497696
 30
0.0
 10
197.482023
 20
203.497696
 30
0.0
  0
LWPOLYLINE
  5
194
100
AcDbEntity
  8
Layer_1
 62
1
100
AcDbPolyline
 90
2
 70
0
 10
197.482023
 20
187.497672
 30
0.0
 10
197.482023
 20
203.497696
 30
0.0
  0
LWPOLYLINE
  5
195
100
AcDbEntity
  8
Layer_1
 62
1
100
AcDbPolyline
 90
2
 70
0
 10
203.482032
 20
187.497672
 30
0.0
 10
197.482023
 20
187.497672
 30
0.0
  0
LWPOLYLINE
  5
196
100
AcDbEntity
  8
Layer_1
 62
1
100
AcDbPolyline
 90
2
 70
0
 10
203.482032
 20
171.497683
 30
0.0
 10
203.482032
 20
187.497672
 30
0.0
  0
LWPOLYLINE
  5
197
100
AcDbEntity
  8
Layer_1
 62
1
100
AcDbPolyline
 90
2
 70
0
 10
203.482032
 20
171.497683
 30
0.0
 10
197.482023
 20
171.497683
 30
0.0
  0
LWPOLYLINE
  5
198
100
AcDbEntity
  8
Layer_1
 62
1
100
AcDbPolyline
 90
2
 70
0
 10
197.482023
 20
155.497694
 30
0.0
 10
197.482023
 20
171.497683
 30
0.0
  0
LWPOLYLINE
  5
199
100
AcDbEntity
  8
Layer_1
 62
1
100
AcDbPolyline
 90
2
 70
0
 10
123.482054
 20
219.497686
 30
0.0
 10
123.482054
 20
235.497675
 30
0.0
  0
LWPOLYLINE
  5
19a
100
AcDbEntity
  8
Layer_1
 62
1
100
AcDbPolyline
 90
2
 70
0
 10
129.482028
 20
219.497686
 30
0.0
 10
123.482054
 20
219.497686
 30
0.0
  0
LWPOLYLINE
  5
19b
100
AcDbEntity
  8
Layer_1
 62
1
100
AcDbPolyline
 90
2
 70
0
 10
129.482028
 20
203.497696
 30
0.0
 10
129.482028
 20
219.497686
 30
0.0
  0
LWPOLYLINE
  5
19c
100
AcDbEntity
  8
Layer_1
 62
1
100
AcDbPolyline
 90
2
 70
0
 10
129.482028
 20
203.497696
 30
0.0
 10
123.482054
 20
203.497696
 30
0.0
  0
LWPOLYLINE
  5
19d
100
AcDbEntity
  8
Layer_1
 62
1
100
AcDbPolyline
 90
2
 70
0
 10
123.482054
 20
187.497672
 30
0.0
 10
123.482054
 20
203.497696
 30
0.0
  0
LWPOLYLINE
  5
19e
100
AcDbEntity
  8
Layer_1
 62
1
100
AcDbPolyline
 90
2
 70
0
 10
129.482028
 20
187.497672
 30
0.0
 10
123.482054
 20
187.497672
 30
0.0
  0
LWPOLYLINE
  5
19f
100
AcDbEntity
  8
Layer_1
 62
1
100
AcDbPolyline
 90
2
 70
0
 10
129.482028
 20
171.497683
 30
0.0
 10
129.482028
 20
187.497672
 30
0.0
  0
LWPOLYLINE
  5
1a0
100
AcDbEntity
  8
Layer_1
 62
1
100
AcDbPolyline
 90
2
 70
0
 10
129.482028
 20
171.497683
 30
0.0
 10
123.482054
 20
171.497683
 30
0.0
  0
LWPOLYLINE
  5
1a1
100
AcDbEntity
  8
Layer_1
 62
1
100
AcDbPolyline
 90
2
 70
0
 10
123.482054
 20
155.497694
 30
0.0
 10
123.482054
 20
171.497683
 30
0.0
  0
LWPOLYLINE
  5
1a2
100
AcDbEntity
  8
Layer_1
 62
1
100
AcDbPolyline
 90
2
 70
0
 10
187.482043
 20
235.497675
 30
0.0
 10
197.482023
 20
235.497675
 30
0.0
  0
LWPOLYLINE
  5
1a3
100
AcDbEntity
  8
Layer_1
 62
1
100
AcDbPolyline
 90
2
 70
0
 10
187.482043
 20
235.497675
 30
0.0
 10
187.482043
 20
229.497701
 30
0.0
  0
LWPOLYLINE
  5
1a4
100
AcDbEntity
  8
Layer_1
 62
1
100
AcDbPolyline
 90
2
 70
0
 10
171.482053
 20
229.497701
 30
0.0
 10
187.482043
 20
229.497701
 30
0.0
  0
LWPOLYLINE
  5
1a5
100
AcDbEntity
  8
Layer_1
 62
1
100
AcDbPolyline
 90
2
 70
0
 10
171.482053
 20
235.497675
 30
0.0
 10
171.482053
 20
229.497701
 30
0.0
  0
LWPOLYLINE
  5
1a6
100
AcDbEntity
  8
Layer_1
 62
1
100
AcDbPolyline
 90
2
 70
0
 10
155.482032
 20
235.497675
 30
0.0
 10
171.482053
 20
235.497675
 30
0.0
  0
LWPOLYLINE
  5
1a7
100
AcDbEntity
  8
Layer_1
 62
1
100
AcDbPolyline
 90
2
 70
0
 10
155.482032
 20
235.497675
 30
0.0
 10
155.482032
 20
229.497701
 30
0.0
  0
LWPOLYLINE
  5
1a8
100
AcDbEntity
  8
Layer_1
 62
1
100
AcDbPolyline
 90
2
 70
0
 10
139.482043
 20
229.497701
 30
0.0
 10
155.482032
 20
229.497701
 30
0.0
  0
LWPOLYLINE
  5
1a9
100
AcDbEntity
  8
Layer_1
 62
1
100
AcDbPolyline
 90
2
 70
0
 10
139.482043
 20
235.497675
 30
0.0
 10
139.482043
 20
229.497701
 30
0.0
  0
LWPOLYLINE
  5
1aa
100
AcDbEntity
  8
Layer_1
 62
1
100
AcDbPolyline
 90
2
 70
0
 10
123.482054
 20
235.497675
 30
0.0
 10
139.482043
 20
235.497675
 30
0.0
  0
LWPOLYLINE
  5
1ab
100
AcDbEntity
  8
Layer_1
 62
1
100
AcDbPolyline
 90
2
 70
0
 10
187.482043
 20
155.497694
 30
0.0
 10
197.482023
 20
155.497694
 30
0.0
  0
LWPOLYLINE
  5
1ac
100
AcDbEntity
  8
Layer_1
 62
1
100
AcDbPolyline
 90
2
 70
0
 10
187.482043
 20
161.497703
 30
0.0
 10
187.482043
 20
155.497694
 30
0.0
  0
LWPOLYLINE
  5
1ad
100
AcDbEntity
  8
Layer_1
 62
1
100
AcDbPolyline
 90
2
 70
0
 10
171.482053
 20
161.497703
 30
0.0
 10
187.482043
 20
161.497703
 30
0.0
  0
LWPOLYLINE
  5
1ae
100
AcDbEntity
  8
Layer_1
 62
1
100
AcDbPolyline
 90
2
 70
0
 10
171.482053
 20
161.497703
 30
0.0
 10
171.482053
 20
155.497694
 30
0.0
  0
LWPOLYLINE
  5
1af
100
AcDbEntity
  8
Layer_1
 62
1
100
AcDbPolyline
 90
2
 70
0
 10
155.482032
 20
155.497694
 30
0.0
 10
171.482053
 20
155.497694
 30
0.0
  0
LWPOLYLINE
  5
1b0
100
AcDbEntity
  8
Layer_1
 62
1
100
AcDbPolyline
 90
2
 70
0
 10
155.482032
 20
161.497703
 30
0.0
 10
155.482032
 20
155.497694
 30
0.0
  0
LWPOLYLINE
  5
1b1
100
AcDbEntity
  8
Layer_1
 62
1
100
AcDbPolyline
 90
2
 70
0
 10
139.482043
 20
161.497703
 30
0.0
 10
155.482032
 20
161.497703
 30
0.0
  0
LWPOLYLINE
  5
1b2
100
AcDbEntity
  8
Layer_1
 62
1
100
AcDbPolyline
 90
2
 70
0
 10
139.482043
 20
161.497703
 30
0.0
 10
139.482043
 20
155.497694
 30
0.0
  0
LWPOLYLINE
  5
1b3
100
AcDbEntity
  8
Layer_1
 62
1
100
AcDbPolyline
 90
2
 70
0
 10
123.482054
 20
155.497694
 30
0.0
 10
139.482043
 20
155.497694
 30
0.0
  0
LWPOLYLINE
  5
1b4
100
AcDbEntity
  8
Layer_1
 62
1
100
AcDbPolyline
 90
2
 70
0
 10
197.482023
 20
293.693252
 30
0.0
 10
197.482023
 20
303.693408
 30
0.0
  0
LWPOLYLINE
  5
1b5
100
AcDbEntity
  8
Layer_1
 62
1
100
AcDbPolyline
 90
2
 70
0
 10
203.482032
 20
293.693252
 30
0.0
 10
197.482023
 20
293.693252
 30
0.0
  0
LWPOLYLINE
  5
1b6
100
AcDbEntity
  8
Layer_1
 62
1
100
AcDbPolyline
 90
2
 70
0
 10
203.482032
 20
277.693263
 30
0.0
 10
203.482032
 20
293.693252
 30
0.0
  0
LWPOLYLINE
  5
1b7
100
AcDbEntity
  8
Layer_1
 62
1
100
AcDbPolyline
 90
2
 70
0
 10
203.482032
 20
277.693263
 30
0.0
 10
197.482023
 20
277.693263
 30
0.0
  0
LWPOLYLINE
  5
1b8
100
AcDbEntity
  8
Layer_1
 62
1
100
AcDbPolyline
 90
2
 70
0
 10
197.482023
 20
261.693224
 30
0.0
 10
197.482023
 20
277.693263
 30
0.0
  0
LWPOLYLINE
  5
1b9
100
AcDbEntity
  8
Layer_1
 62
1
100
AcDbPolyline
 90
2
 70
0
 10
203.482032
 20
261.693224
 30
0.0
 10
197.482023
 20
261.693224
 30
0.0
  0
LWPOLYLINE
  5
1ba
100
AcDbEntity
  8
Layer_1
 62
1
100
AcDbPolyline
 90
2
 70
0
 10
203.482032
 20
245.693235
 30
0.0
 10
203.482032
 20
261.693224
 30
0.0
  0
LWPOLYLINE
  5
1bb
100
AcDbEntity
  8
Layer_1
 62
1
100
AcDbPolyline
 90
2
 70
0
 10
203.482032
 20
245.693235
 30
0.0
 10
197.482023
 20
245.693235
 30
0.0
  0
LWPOLYLINE
  5
1bc
100
AcDbEntity
  8
Layer_1
 62
1
100
AcDbPolyline
 90
2
 70
0
 10
197.482023
 20
235.693255
 30
0.0
 10
197.482023
 20
245.693235
 30
0.0
  0
LWPOLYLINE
  5
1bd
100
AcDbEntity
  8
Layer_1
 62
1
100
AcDbPolyline
 90
2
 70
0
 10
129.482028
 20
293.693252
 30
0.0
 10
129.482028
 20
303.693408
 30
0.0
  0
LWPOLYLINE
  5
1be
100
AcDbEntity
  8
Layer_1
 62
1
100
AcDbPolyline
 90
2
 70
0
 10
129.482028
 20
293.693252
 30
0.0
 10
123.482054
 20
293.693252
 30
0.0
  0
LWPOLYLINE
  5
1bf
100
AcDbEntity
  8
Layer_1
 62
1
100
AcDbPolyline
 90
2
 70
0
 10
123.482054
 20
277.693263
 30
0.0
 10
123.482054
 20
293.693252
 30
0.0
  0
LWPOLYLINE
  5
1c0
100
AcDbEntity
  8
Layer_1
 62
1
100
AcDbPolyline
 90
2
 70
0
 10
129.482028
 20
277.693263
 30
0.0
 10
123.482054
 20
277.693263
 30
0.0
  0
LWPOLYLINE
  5
1c1
100
AcDbEntity
  8
Layer_1
 62
1
100
AcDbPolyline
 90
2
 70
0
 10
129.482028
 20
261.693224
 30
0.0
 10
129.482028
 20
277.693263
 30
0.0
  0
LWPOLYLINE
  5
1c2
100
AcDbEntity
  8
Layer_1
 62
1
100
AcDbPolyline
 90
2
 70
0
 10
129.482028
 20
261.693224
 30
0.0
 10
123.482054
 20
261.693224
 30
0.0
  0
LWPOLYLINE
  5
1c3
100
AcDbEntity
  8
Layer_1
 62
1
100
AcDbPolyline
 90
2
 70
0
 10
123.482054
 20
245.693235
 30
0.0
 10
123.482054
 20
261.693224
 30
0.0
  0
LWPOLYLINE
  5
1c4
100
AcDbEntity
  8
Layer_1
 62
1
100
AcDbPolyline
 90
2
 70
0
 10
129.482028
 20
245.693235
 30
0.0
 10
123.482054
 20
245.693235
 30
0.0
  0
LWPOLYLINE
  5
1c5
100
AcDbEntity
  8
Layer_1
 62
1
100
AcDbPolyline
 90
2
 70
0
 10
129.482028
 20
235.693255
 30
0.0
 10
129.482028
 20
245.693235
 30
0.0
  0
LWPOLYLINE
  5
1c6
100
AcDbEntity
  8
Layer_1
 62
1
100
AcDbPolyline
 90
2
 70
0
 10
187.482043
 20
303.693408
 30
0.0
 10
197.482023
 20
303.693408
 30
0.0
  0
LWPOLYLINE
  5
1c7
100
AcDbEntity
  8
Layer_1
 62
1
100
AcDbPolyline
 90
2
 70
0
 10
187.482043
 20
309.693100
 30
0.0
 10
187.482043
 20
303.693408
 30
0.0
  0
LWPOLYLINE
  5
1c8
100
AcDbEntity
  8
Layer_1
 62
1
100
AcDbPolyline
 90
2
 70
0
 10
171.482053
 20
309.693100
 30
0.0
 10
187.482043
 20
309.693100
 30
0.0
  0
LWPOLYLINE
  5
1c9
100
AcDbEntity
  8
Layer_1
 62
1
100
AcDbPolyline
 90
2
 70
0
 10
171.482053
 20
309.693100
 30
0.0
 10
171.482053
 20
303.693408
 30
0.0
  0
LWPOLYLINE
  5
1ca
100
AcDbEntity
  8
Layer_1
 62
1
100
AcDbPolyline
 90
2
 70
0
 10
155.482032
 20
303.693408
 30
0.0
 10
171.482053
 20
303.693408
 30
0.0
  0
LWPOLYLINE
  5
1cb
100
AcDbEntity
  8
Layer_1
 62
1
100
AcDbPolyline
 90
2
 70
0
 10
155.482032
 20
309.693100
 30
0.0
 10
155.482032
 20
303.693408
 30
0.0
  0
LWPOLYLINE
  5
1cc
100
AcDbEntity
  8
Layer_1
 62
1
100
AcDbPolyline
 90
2
 70
0
 10
139.482043
 20
309.693100
 30
0.0
 10
155.482032
 20
309.693100
 30
0.0
  0
LWPOLYLINE
  5
1cd
100
AcDbEntity
  8
Layer_1
 62
1
100
AcDbPolyline
 90
2
 70
0
 10
139.482043
 20
309.693100
 30
0.0
 10
139.482043
 20
303.693408
 30
0.0
  0
LWPOLYLINE
  5
1ce
100
AcDbEntity
  8
Layer_1
 62
1
100
AcDbPolyline
 90
2
 70
0
 10
129.482028
 20
303.693408
 30
0.0
 10
139.482043
 20
303.693408
 30
0.0
  0
LWPOLYLINE
  5
1cf
100
AcDbEntity
  8
Layer_1
 62
1
100
AcDbPolyline
 90
2
 70
0
 10
187.482043
 20
235.693255
 30
0.0
 10
197.482023
 20
235.693255
 30
0.0
  0
LWPOLYLINE
  5
1d0
100
AcDbEntity
  8
Layer_1
 62
1
100
AcDbPolyline
 90
2
 70
0
 10
187.482043
 20
235.693255
 30
0.0
 10
187.482043
 20
229.693246
 30
0.0
  0
LWPOLYLINE
  5
1d1
100
AcDbEntity
  8
Layer_1
 62
1
100
AcDbPolyline
 90
2
 70
0
 10
171.482053
 20
229.693246
 30
0.0
 10
187.482043
 20
229.693246
 30
0.0
  0
LWPOLYLINE
  5
1d2
100
AcDbEntity
  8
Layer_1
 62
1
100
AcDbPolyline
 90
2
 70
0
 10
171.482053
 20
235.693255
 30
0.0
 10
171.482053
 20
229.693246
 30
0.0
  0
LWPOLYLINE
  5
1d3
100
AcDbEntity
  8
Layer_1
 62
1
100
AcDbPolyline
 90
2
 70
0
 10
155.482032
 20
235.693255
 30
0.0
 10
171.482053
 20
235.693255
 30
0.0
  0
LWPOLYLINE
  5
1d4
100
AcDbEntity
  8
Layer_1
 62
1
100
AcDbPolyline
 90
2
 70
0
 10
155.482032
 20
235.693255
 30
0.0
 10
155.482032
 20
229.693246
 30
0.0
  0
LWPOLYLINE
  5
1d5
100
AcDbEntity
  8
Layer_1
 62
1
100
AcDbPolyline
 90
2
 70
0
 10
139.482043
 20
229.693246
 30
0.0
 10
155.482032
 20
229.693246
 30
0.0
  0
LWPOLYLINE
  5
1d6
100
AcDbEntity
  8
Layer_1
 62
1
100
AcDbPolyline
 90
2
 70
0
 10
139.482043
 20
235.693255
 30
0.0
 10
139.482043
 20
229.693246
 30
0.0
  0
LWPOLYLINE
  5
1d7
100
AcDbEntity
  8
Layer_1
 62
1
100
AcDbPolyline
 90
2
 70
0
 10
129.482028
 20
235.693255
 30
0.0
 10
139.482043
 20
235.693255
 30
0.0
  0
SPLINE
  5
1d8
100
AcDbEntity
  8
Layer_1
 62
2
100
AcDbSpline
 70
0
 71
3
 72
10
 73
6
 74
4
 40
0.000000
 40
0.000000
 40
0.000000
 40
0.000000
 40
0.376020
 40
1.222254
 40
2.359118
 40
2.359118
 40
2.359118
 40
2.359118
 10
185.955397
 20
69.579929
 30
0.0
 10
185.931140
 20
69.703050
 30
0.0
 10
185.852292
 20
70.103255
 30
0.0
 10
185.841645
 20
70.893031
 30
0.0
 10
185.830892
 20
71.553287
 30
0.0
 10
185.824728
 20
71.931796
 30
0.0
 11
185.955397
 21
69.579929
 31
0.0
 11
185.889566
 21
69.950142
 31
0.0
 11
185.842628
 21
70.795072
 31
0.0
 11
185.824728
 21
71.931796
 31
0.0
  0
LWPOLYLINE
  5
1d9
100
AcDbEntity
  8
Layer_1
 62
2
100
AcDbPolyline
 90
7
 70
0
 10
185.824728
 20
71.931796
 30
0.0
 10
185.824728
 20
74.153005
 30
0.0
 10
188.176627
 20
74.153005
 30
0.0
 10
190.528420
 20
74.153005
 30
0.0
 10
190.528420
 20
71.801141
 30
0.0
 10
190.528420
 20
69.449281
 30
0.0
 10
188.307225
 20
69.449281
 30
0.0
  0
LWPOLYLINE
  5
1da
100
AcDbEntity
  8
Layer_1
 62
2
100
AcDbPolyline
 90
2
 70
0
 10
185.955397
 20
69.579929
 30
0.0
 10
185.955397
 20
69.579929
 30
0.0
  0
LWPOLYLINE
  5
1db
100
AcDbEntity
  8
Layer_1
 62
2
100
AcDbPolyline
 90
10
 70
0
 10
136.435585
 20
71.794918
 30
0.0
 10
136.435585
 20
74.153005
 30
0.0
 10
138.793689
 20
74.153005
 30
0.0
 10
141.151793
 20
74.153005
 30
0.0
 10
141.096386
 20
71.850139
 30
0.0
 10
141.040982
 20
69.547276
 30
0.0
 10
138.738148
 20
69.492073
 30
0.0
 10
136.435250
 20
69.436870
 30
0.0
 10
136.435250
 20
71.794950
 30
0.0
 10
136.435585
 20
71.794918
 30
0.0
  0
LWPOLYLINE
  5
1dc
100
AcDbEntity
  8
Layer_1
 62
2
100
AcDbPolyline
 90
38
 70
0
 10
161.130178
 20
42.794835
 30
0.0
 10
161.130178
 20
47.694548
 30
0.0
 10
163.286073
 20
47.694548
 30
0.0
 10
165.441933
 20
47.694548
 30
0.0
 10
165.441933
 20
49.850429
 30
0.0
 10
165.441933
 20
52.006300
 30
0.0
 10
167.989765
 20
52.006300
 30
0.0
 10
170.537597
 20
52.006300
 30
0.0
 10
170.537597
 20
58.963893
 30
0.0
 10
170.537597
 20
65.921486
 30
0.0
 10
163.580043
 20
65.921486
 30
0.0
 10
156.622433
 20
65.921486
 30
0.0
 10
156.622433
 20
58.865902
 30
0.0
 10
156.622433
 20
51.810308
 30
0.0
 10
151.918726
 20
51.810308
 30
0.0
 10
147.215020
 20
51.810308
 30
0.0
 10
147.215020
 20
58.963893
 30
0.0
 10
147.215020
 20
66.117478
 30
0.0
 10
149.370895
 20
66.117478
 30
0.0
 10
151.526769
 20
66.117478
 30
0.0
 10
151.526769
 20
68.371344
 30
0.0
 10
151.526769
 20
70.625209
 30
0.0
 10
163.286073
 20
70.625209
 30
0.0
 10
175.045356
 20
70.625209
 30
0.0
 10
175.045356
 20
68.371344
 30
0.0
 10
175.045356
 20
66.117478
 30
0.0
 10
177.495221
 20
66.117478
 30
0.0
 10
179.945086
 20
66.117478
 30
0.0
 10
179.945086
 20
56.710028
 30
0.0
 10
179.945086
 20
47.302577
 30
0.0
 10
175.339361
 20
47.302577
 30
0.0
 10
170.733600
 20
47.302577
 30
0.0
 10
170.733600
 20
42.598849
 30
0.0
 10
170.733600
 20
37.895126
 30
0.0
 10
165.931871
 20
37.895126
 30
0.0
 10
161.130178
 20
37.895126
 30
0.0
 10
161.130178
 20
42.794835
 30
0.0
 10
161.130178
 20
42.794835
 30
0.0
  0
LWPOLYLINE
  5
1dd
100
AcDbEntity
  8
Layer_1
 62
2
100
AcDbPolyline
 90
10
 70
0
 10
161.130178
 20
28.393155
 30
0.0
 10
161.130178
 20
33.002394
 30
0.0
 10
165.882870
 20
32.949894
 30
0.0
 10
170.635634
 20
32.897393
 30
0.0
 10
170.688339
 20
28.340662
 30
0.0
 10
170.741044
 20
23.783930
 30
0.0
 10
165.935716
 20
23.783930
 30
0.0
 10
161.130389
 20
23.783930
 30
0.0
 10
161.130389
 20
28.393134
 30
0.0
 10
161.130178
 20
28.393155
 30
0.0
  0
LWPOLYLINE
  5
1de
100
AcDbEntity
  8
Layer_1
 62
2
100
AcDbPolyline
 90
10
 70
0
 10
185.867484
 20
22.363033
 30
0.0
 10
185.922906
 20
24.665892
 30
0.0
 10
188.225804
 20
24.721095
 30
0.0
 10
190.528631
 20
24.776297
 30
0.0
 10
190.528631
 20
22.418207
 30
0.0
 10
190.528631
 20
20.060128
 30
0.0
 10
188.170594
 20
20.060128
 30
0.0
 10
185.812486
 20
20.060128
 30
0.0
 10
185.867908
 20
22.362994
 30
0.0
 10
185.867484
 20
22.363033
 30
0.0
  0
LWPOLYLINE
  5
1df
100
AcDbEntity
  8
Layer_1
 62
2
100
AcDbPolyline
 90
10
 70
0
 10
136.435585
 20
22.418235
 30
0.0
 10
136.435585
 20
24.776326
 30
0.0
 10
138.738487
 20
24.721123
 30
0.0
 10
141.041318
 20
24.665920
 30
0.0
 10
141.096725
 20
22.363061
 30
0.0
 10
141.152129
 20
20.060195
 30
0.0
 10
138.794028
 20
20.060195
 30
0.0
 10
136.435924
 20
20.060195
 30
0.0
 10
136.435924
 20
22.418278
 30
0.0
 10
136.435585
 20
22.418235
 30
0.0
  0
SPLINE
  5
1e0
100
AcDbEntity
  8
Layer_1
 62
2
100
AcDbSpline
 70
0
 71
3
 72
10
 73
6
 74
4
 40
0.000000
 40
0.000000
 40
0.000000
 40
0.000000
 40
1.136846
 40
1.983059
 40
2.359076
 40
2.359076
 40
2.359076
 40
2.359076
 10
188.307225
 20
69.449281
 30
0.0
 10
187.928722
 20
69.455444
 30
0.0
 10
187.268479
 20
69.466195
 30
0.0
 10
186.478720
 20
69.476857
 30
0.0
 10
186.078518
 20
69.555679
 30
0.0
 10
185.955397
 20
69.579929
 30
0.0
 11
188.307225
 21
69.449281
 31
0.0
 11
187.170520
 21
69.467183
 31
0.0
 11
186.325610
 21
69.514118
 31
0.0
 11
185.955397
 21
69.579929
 31
0.0
  0
LWPOLYLINE
  5
1e1
100
AcDbEntity
  8
Layer_1
 62
3
100
AcDbPolyline
 90
10
 70
0
 10
195.232218
 20
47.106570
 30
0.0
 10
195.232218
 20
78.856718
 30
0.0
 10
163.482006
 20
78.856718
 30
0.0
 10
131.731882
 20
78.856718
 30
0.0
 10
131.731882
 20
47.106570
 30
0.0
 10
131.731882
 20
15.356429
 30
0.0
 10
163.482006
 20
15.356429
 30
0.0
 10
195.232218
 20
15.356429
 30
0.0
 10
195.232218
 20
47.106570
 30
0.0
 10
195.232218
 20
47.106570
 30
0.0
  0
SPLINE
  5
1e2
100
AcDbEntity
  8
Layer_1
 62
2
100
AcDbSpline
 70
0
 71
3
 72
10
 73
6
 74
4
 40
0.000000
 40
0.000000
 40
0.000000
 40
0.000000
 40
0.376020
 40
1.222254
 40
2.359118
 40
2.359118
 40
2.359118
 40
2.359118
 10
185.955397
 20
143.775488
 30
0.0
 10
185.931140
 20
143.898609
 30
0.0
 10
185.852292
 20
144.298814
 30
0.0
 10
185.841645
 20
145.088590
 30
0.0
 10
185.830892
 20
145.748846
 30
0.0
 10
185.824728
 20
146.127355
 30
0.0
 11
185.955397
 21
143.775488
 31
0.0
 11
185.889566
 21
144.145701
 31
0.0
 11
185.842628
 21
144.990631
 31
0.0
 11
185.824728
 21
146.127355
 31
0.0
  0
LWPOLYLINE
  5
1e3
100
AcDbEntity
  8
Layer_1
 62
2
100
AcDbPolyline
 90
7
 70
0
 10
185.824728
 20
146.127355
 30
0.0
 10
185.824728
 20
148.348564
 30
0.0
 10
188.176627
 20
148.348564
 30
0.0
 10
190.528420
 20
148.348564
 30
0.0
 10
190.528420
 20
145.996700
 30
0.0
 10
190.528420
 20
143.644840
 30
0.0
 10
188.307225
 20
143.644840
 30
0.0
  0
LWPOLYLINE
  5
1e4
100
AcDbEntity
  8
Layer_1
 62
2
100
AcDbPolyline
 90
2
 70
0
 10
185.955397
 20
143.775488
 30
0.0
 10
185.955397
 20
143.775488
 30
0.0
  0
LWPOLYLINE
  5
1e5
100
AcDbEntity
  8
Layer_1
 62
2
100
AcDbPolyline
 90
10
 70
0
 10
136.435585
 20
145.990477
 30
0.0
 10
136.435585
 20
148.348564
 30
0.0
 10
138.793689
 20
148.348564
 30
0.0
 10
141.151793
 20
148.348564
 30
0.0
 10
141.096386
 20
146.045698
 30
0.0
 10
141.040982
 20
143.742835
 30
0.0
 10
138.738148
 20
143.687632
 30
0.0
 10
136.435250
 20
143.632429
 30
0.0
 10
136.435250
 20
145.990509
 30
0.0
 10
136.435585
 20
145.990477
 30
0.0
  0
LWPOLYLINE
  5
1e6
100
AcDbEntity
  8
Layer_1
 62
2
100
AcDbPolyline
 90
38
 70
0
 10
161.130178
 20
116.990394
 30
0.0
 10
161.130178
 20
121.890107
 30
0.0
 10
163.286073
 20
121.890107
 30
0.0
 10
165.441933
 20
121.890107
 30
0.0
 10
165.441933
 20
124.045988
 30
0.0
 10
165.441933
 20
126.201859
 30
0.0
 10
167.989765
 20
126.201859
 30
0.0
 10
170.537597
 20
126.201859
 30
0.0
 10
170.537597
 20
133.159452
 30
0.0
 10
170.537597
 20
140.117045
 30
0.0
 10
163.580043
 20
140.117045
 30
0.0
 10
156.622433
 20
140.117045
 30
0.0
 10
156.622433
 20
133.061461
 30
0.0
 10
156.622433
 20
126.005867
 30
0.0
 10
151.918726
 20
126.005867
 30
0.0
 10
147.215020
 20
126.005867
 30
0.0
 10
147.215020
 20
133.159452
 30
0.0
 10
147.215020
 20
140.313037
 30
0.0
 10
149.370895
 20
140.313037
 30
0.0
 10
151.526769
 20
140.313037
 30
0.0
 10
151.526769
 20
142.566903
 30
0.0
 10
151.526769
 20
144.820768
 30
0.0
 10
163.286073
 20
144.820768
 30
0.0
 10
175.045356
 20
144.820768
 30
0.0
 10
175.045356
 20
142.566903
 30
0.0
 10
175.045356
 20
140.313037
 30
0.0
 10
177.495221
 20
140.313037
 30
0.0
 10
179.945086
 20
140.313037
 30
0.0
 10
179.945086
 20
130.905587
 30
0.0
 10
179.945086
 20
121.498136
 30
0.0
 10
175.339361
 20
121.498136
 30
0.0
 10
170.733600
 20
121.498136
 30
0.0
 10
170.733600
 20
116.794408
 30
0.0
 10
170.733600
 20
112.090685
 30
0.0
 10
165.931871
 20
112.090685
 30
0.0
 10
161.130178
 20
112.090685
 30
0.0
 10
161.130178
 20
116.990394
 30
0.0
 10
161.130178
 20
116.990394
 30
0.0
  0
LWPOLYLINE
  5
1e7
100
AcDbEntity
  8
Layer_1
 62
2
100
AcDbPolyline
 90
10
 70
0
 10
161.130178
 20
102.588714
 30
0.0
 10
161.130178
 20
107.197953
 30
0.0
 10
165.882870
 20
107.145453
 30
0.0
 10
170.635634
 20
107.092952
 30
0.0
 10
170.688339
 20
102.536221
 30
0.0
 10
170.741044
 20
97.979489
 30
0.0
 10
165.935716
 20
97.979489
 30
0.0
 10
161.130389
 20
97.979489
 30
0.0
 10
161.130389
 20
102.588693
 30
0.0
 10
161.130178
 20
102.588714
 30
0.0
  0
LWPOLYLINE
  5
1e8
100
AcDbEntity
  8
Layer_1
 62
2
100
AcDbPolyline
 90
10
 70
0
 10
185.867484
 20
96.558592
 30
0.0
 10
185.922906
 20
98.861451
 30
0.0
 10
188.225804
 20
98.916654
 30
0.0
 10
190.528631
 20
98.971856
 30
0.0
 10
190.528631
 20
96.613766
 30
0.0
 10
190.528631
 20
94.255687
 30
0.0
 10
188.170594
 20
94.255687
 30
0.0
 10
185.812486
 20
94.255687
 30
0.0
 10
185.867908
 20
96.558553
 30
0.0
 10
185.867484
 20
96.558592
 30
0.0
  0
LWPOLYLINE
  5
1e9
100
AcDbEntity
  8
Layer_1
 62
2
100
AcDbPolyline
 90
10
 70
0
 10
136.435585
 20
96.613794
 30
0.0
 10
136.435585
 20
98.971885
 30
0.0
 10
138.738487
 20
98.916682
 30
0.0
 10
141.041318
 20
98.861479
 30
0.0
 10
141.096725
 20
96.558620
 30
0.0
 10
141.152129
 20
94.255754
 30
0.0
 10
138.794028
 20
94.255754
 30
0.0
 10
136.435924
 20
94.255754
 30
0.0
 10
136.435924
 20
96.613837
 30
0.0
 10
136.435585
 20
96.613794
 30
0.0
  0
SPLINE
  5
1ea
100
AcDbEntity
  8
Layer_1
 62
2
100
AcDbSpline
 70
0
 71
3
 72
10
 73
6
 74
4
 40
0.000000
 40
0.000000
 40
0.000000
 40
0.000000
 40
1.136846
 40
1.983059
 40
2.359076
 40
2.359076
 40
2.359076
 40
2.359076
 10
188.307225
 20
143.644840
 30
0.0
 10
187.928722
 20
143.651003
 30
0.0
 10
187.268479
 20
143.661754
 30
0.0
 10
186.478720
 20
143.672416
 30
0.0
 10
186.078518
 20
143.751238
 30
0.0
 10
185.955397
 20
143.775488
 30
0.0
 11
188.307225
 21
143.644840
 31
0.0
 11
187.170520
 21
143.662742
 31
0.0
 11
186.325610
 21
143.709677
 31
0.0
 11
185.955397
 21
143.775488
 31
0.0
  0
LWPOLYLINE
  5
1eb
100
AcDbEntity
  8
Layer_1
 62
3
100
AcDbPolyline
 90
10
 70
0
 10
195.232218
 20
121.302129
 30
0.0
 10
195.232218
 20
153.052277
 30
0.0
 10
163.482006
 20
153.052277
 30
0.0
 10
131.731882
 20
153.052277
 30
0.0
 10
131.731882
 20
121.302129
 30
0.0
 10
131.731882
 20
89.551988
 30
0.0
 10
163.482006
 20
89.551988
 30
0.0
 10
195.232218
 20
89.551988
 30
0.0
 10
195.232218
 20
121.302129
 30
0.0
 10
195.232218
 20
121.302129
 30
0.0
  0
SPLINE
  5
1ec
100
AcDbEntity
  8
Layer_1
 62
2
100
AcDbSpline
 70
0
 71
3
 72
10
 73
6
 74
4
 40
0.000000
 40
0.000000
 40
0.000000
 40
0.000000
 40
0.376020
 40
1.222254
 40
2.359118
 40
2.359118
 40
2.359118
 40
2.359118
 10
185.955397
 20
217.971040
 30
0.0
 10
185.931140
 20
218.094161
 30
0.0
 10
185.852292
 20
218.494366
 30
0.0
 10
185.841645
 20
219.284142
 30
0.0
 10
185.830892
 20
219.944398
 30
0.0
 10
185.824728
 20
220.322907
 30
0.0
 11
185.955397
 21
217.971040
 31
0.0
 11
185.889566
 21
218.341253
 31
0.0
 11
185.842628
 21
219.186183
 31
0.0
 11
185.824728
 21
220.322907
 31
0.0
  0
LWPOLYLINE
  5
1ed
100
AcDbEntity
  8
Layer_1
 62
2
100
AcDbPolyline
 90
7
 70
0
 10
185.824728
 20
220.322907
 30
0.0
 10
185.824728
 20
222.544116
 30
0.0
 10
188.176627
 20
222.544116
 30
0.0
 10
190.528420
 20
222.544116
 30
0.0
 10
190.528420
 20
220.192252
 30
0.0
 10
190.528420
 20
217.840392
 30
0.0
 10
188.307225
 20
217.840392
 30
0.0
  0
LWPOLYLINE
  5
1ee
100
AcDbEntity
  8
Layer_1
 62
2
100
AcDbPolyline
 90
2
 70
0
 10
185.955397
 20
217.971040
 30
0.0
 10
185.955397
 20
217.971040
 30
0.0
  0
LWPOLYLINE
  5
1ef
100
AcDbEntity
  8
Layer_1
 62
2
100
AcDbPolyline
 90
10
 70
0
 10
136.435585
 20
220.186029
 30
0.0
 10
136.435585
 20
222.544116
 30
0.0
 10
138.793689
 20
222.544116
 30
0.0
 10
141.151793
 20
222.544116
 30
0.0
 10
141.096386
 20
220.241249
 30
0.0
 10
141.040982
 20
217.938387
 30
0.0
 10
138.738148
 20
217.883184
 30
0.0
 10
136.435250
 20
217.827981
 30
0.0
 10
136.435250
 20
220.186061
 30
0.0
 10
136.435585
 20
220.186029
 30
0.0
  0
LWPOLYLINE
  5
1f0
100
AcDbEntity
  8
Layer_1
 62
2
100
AcDbPolyline
 90
38
 70
0
 10
161.130178
 20
191.185946
 30
0.0
 10
161.130178
 20
196.085659
 30
0.0
 10
163.286073
 20
196.085659
 30
0.0
 10
165.441933
 20
196.085659
 30
0.0
 10
165.441933
 20
198.241540
 30
0.0
 10
165.441933
 20
200.397411
 30
0.0
 10
167.989765
 20
200.397411
 30
0.0
 10
170.537597
 20
200.397411
 30
0.0
 10
170.537597
 20
207.355004
 30
0.0
 10
170.537597
 20
214.312597
 30
0.0
 10
163.580043
 20
214.312597
 30
0.0
 10
156.622433
 20
214.312597
 30
0.0
 10
156.622433
 20
207.257013
 30
0.0
 10
156.622433
 20
200.201419
 30
0.0
 10
151.918726
 20
200.201419
 30
0.0
 10
147.215020
 20
200.201419
 30
0.0
 10
147.215020
 20
207.355004
 30
0.0
 10
147.215020
 20
214.508589
 30
0.0
 10
149.370895
 20
214.508589
 30
0.0
 10
151.526769
 20
214.508589
 30
0.0
 10
151.526769
 20
216.762455
 30
0.0
 10
151.526769
 20
219.016320
 30
0.0
 10
163.286073
 20
219.016320
 30
0.0
 10
175.045356
 20
219.016320
 30
0.0
 10
175.045356
 20
216.762455
 30
0.0
 10
175.045356
 20
214.508589
 30
0.0
 10
177.495221
 20
214.508589
 30
0.0
 10
179.945086
 20
214.508589
 30
0.0
 10
179.945086
 20
205.101138
 30
0.0
 10
179.945086
 20
195.693688
 30
0.0
 10
175.339361
 20
195.693688
 30
0.0
 10
170.733600
 20
195.693688
 30
0.0
 10
170.733600
 20
190.989960
 30
0.0
 10
170.733600
 20
186.286237
 30
0.0
 10
165.931871
 20
186.286237
 30
0.0
 10
161.130178
 20
186.286237
 30
0.0
 10
161.130178
 20
191.185946
 30
0.0
 10
161.130178
 20
191.185946
 30
0.0
  0
LWPOLYLINE
  5
1f1
100
AcDbEntity
  8
Layer_1
 62
2
100
AcDbPolyline
 90
10
 70
0
 10
161.130178
 20
176.784266
 30
0.0
 10
161.130178
 20
181.393505
 30
0.0
 10
165.882870
 20
181.341005
 30
0.0
 10
170.635634
 20
181.288504
 30
0.0
 10
170.688339
 20
176.731773
 30
0.0
 10
170.741044
 20
172.175041
 30
0.0
 10
165.935716
 20
172.175041
 30
0.0
 10
161.130389
 20
172.175041
 30
0.0
 10
161.130389
 20
176.784245
 30
0.0
 10
161.130178
 20
176.784266
 30
0.0
  0
LWPOLYLINE
  5
1f2
100
AcDbEntity
  8
Layer_1
 62
2
100
AcDbPolyline
 90
10
 70
0
 10
185.867484
 20
170.754144
 30
0.0
 10
185.922906
 20
173.057003
 30
0.0
 10
188.225804
 20
173.112206
 30
0.0
 10
190.528631
 20
173.167408
 30
0.0
 10
190.528631
 20
170.809318
 30
0.0
 10
190.528631
 20
168.451239
 30
0.0
 10
188.170594
 20
168.451239
 30
0.0
 10
185.812486
 20
168.451239
 30
0.0
 10
185.867908
 20
170.754105
 30
0.0
 10
185.867484
 20
170.754144
 30
0.0
  0
LWPOLYLINE
  5
1f3
100
AcDbEntity
  8
Layer_1
 62
2
100
AcDbPolyline
 90
10
 70
0
 10
136.435585
 20
170.809346
 30
0.0
 10
136.435585
 20
173.167437
 30
0.0
 10
138.738487
 20
173.112234
 30
0.0
 10
141.041318
 20
173.057031
 30
0.0
 10
141.096725
 20
170.754172
 30
0.0
 10
141.152129
 20
168.451306
 30
0.0
 10
138.794028
 20
168.451306
 30
0.0
 10
136.435924
 20
168.451306
 30
0.0
 10
136.435924
 20
170.809389
 30
0.0
 10
136.435585
 20
170.809346
 30
0.0
  0
SPLINE
  5
1f4
100
AcDbEntity
  8
Layer_1
 62
2
100
AcDbSpline
 70
0
 71
3
 72
10
 73
6
 74
4
 40
0.000000
 40
0.000000
 40
0.000000
 40
0.000000
 40
1.136846
 40
1.983059
 40
2.359076
 40
2.359076
 40
2.359076
 40
2.359076
 10
188.307225
 20
217.840392
 30
0.0
 10
187.928722
 20
217.846555
 30
0.0
 10
187.268479
 20
217.857306
 30
0.0
 10
186.478720
 20
217.867968
 30
0.0
 10
186.078518
 20
217.946790
 30
0.0
 10
185.955397
 20
217.971040
 30
0.0
 11
188.307225
 21
217.840392
 31
0.0
 11
187.170520
 21
217.858294
 31
0.0
 11
186.325610
 21
217.905228
 31
0.0
 11
185.955397
 21
217.971040
 31
0.0
  0
LWPOLYLINE
  5
1f5
100
AcDbEntity
  8
Layer_1
 62
3
100
AcDbPolyline
 90
10
 70
0
 10
195.232218
 20
195.497681
 30
0.0
 10
195.232218
 20
227.247829
 30
0.0
 10
163.482006
 20
227.247829
 30
0.0
 10
131.731882
 20
227.247829
 30
0.0
 10
131.731882
 20
195.497681
 30
0.0
 10
131.731882
 20
163.747540
 30
0.0
 10
163.482006
 20
163.747540
 30
0.0
 10
195.232218
 20
163.747540
 30
0.0
 10
195.232218
 20
195.497681
 30
0.0
 10
195.232218
 20
195.497681
 30
0.0
  0
SPLINE
  5
1f6
100
AcDbEntity
  8
Layer_1
 62
2
100
AcDbSpline
 70
0
 71
3
 72
10
 73
6
 74
4
 40
0.000000
 40
0.000000
 40
0.000000
 40
0.000000
 40
0.376020
 40
1.222254
 40
2.359118
 40
2.359118
 40
2.359118
 40
2.359118
 10
185.955397
 20
292.166528
 30
0.0
 10
185.931140
 20
292.289649
 30
0.0
 10
185.852292
 20
292.689854
 30
0.0
 10
185.841645
 20
293.479631
 30
0.0
 10
185.830892
 20
294.139886
 30
0.0
 10
185.824728
 20
294.518395
 30
0.0
 11
185.955397
 21
292.166528
 31
0.0
 11
185.889566
 21
292.536741
 31
0.0
 11
185.842628
 21
293.381672
 31
0.0
 11
185.824728
 21
294.518395
 31
0.0
  0
LWPOLYLINE
  5
1f7
100
AcDbEntity
  8
Layer_1
 62
2
100
AcDbPolyline
 90
7
 70
0
 10
185.824728
 20
294.518395
 30
0.0
 10
185.824728
 20
296.739604
 30
0.0
 10
188.176627
 20
296.739604
 30
0.0
 10
190.528420
 20
296.739604
 30
0.0
 10
190.528420
 20
294.387741
 30
0.0
 10
190.528420
 20
292.035881
 30
0.0
 10
188.307225
 20
292.035881
 30
0.0
  0
LWPOLYLINE
  5
1f8
100
AcDbEntity
  8
Layer_1
 62
2
100
AcDbPolyline
 90
2
 70
0
 10
185.955397
 20
292.166528
 30
0.0
 10
185.955397
 20
292.166528
 30
0.0
  0
LWPOLYLINE
  5
1f9
100
AcDbEntity
  8
Layer_1
 62
2
100
AcDbPolyline
 90
10
 70
0
 10
136.435585
 20
294.381518
 30
0.0
 10
136.435585
 20
296.739604
 30
0.0
 10
138.793689
 20
296.739604
 30
0.0
 10
141.151793
 20
296.739604
 30
0.0
 10
141.096386
 20
294.436738
 30
0.0
 10
141.040982
 20
292.133875
 30
0.0
 10
138.738148
 20
292.078672
 30
0.0
 10
136.435250
 20
292.023470
 30
0.0
 10
136.435250
 20
294.381549
 30
0.0
 10
136.435585
 20
294.381518
 30
0.0
  0
LWPOLYLINE
  5
1fa
100
AcDbEntity
  8
Layer_1
 62
2
100
AcDbPolyline
 90
38
 70
0
 10
161.130178
 20
265.381434
 30
0.0
 10
161.130178
 20
270.281147
 30
0.0
 10
163.286073
 20
270.281147
 30
0.0
 10
165.441933
 20
270.281147
 30
0.0
 10
165.441933
 20
272.437029
 30
0.0
 10
165.441933
 20
274.592900
 30
0.0
 10
167.989765
 20
274.592900
 30
0.0
 10
170.537597
 20
274.592900
 30
0.0
 10
170.537597
 20
281.550492
 30
0.0
 10
170.537597
 20
288.508085
 30
0.0
 10
163.580043
 20
288.508085
 30
0.0
 10
156.622433
 20
288.508085
 30
0.0
 10
156.622433
 20
281.452501
 30
0.0
 10
156.622433
 20
274.396907
 30
0.0
 10
151.918726
 20
274.396907
 30
0.0
 10
147.215020
 20
274.396907
 30
0.0
 10
147.215020
 20
281.550492
 30
0.0
 10
147.215020
 20
288.704078
 30
0.0
 10
149.370895
 20
288.704078
 30
0.0
 10
151.526769
 20
288.704078
 30
0.0
 10
151.526769
 20
290.957943
 30
0.0
 10
151.526769
 20
293.211809
 30
0.0
 10
163.286073
 20
293.211809
 30
0.0
 10
175.045356
 20
293.211809
 30
0.0
 10
175.045356
 20
290.957943
 30
0.0
 10
175.045356
 20
288.704078
 30
0.0
 10
177.495221
 20
288.704078
 30
0.0
 10
179.945086
 20
288.704078
 30
0.0
 10
179.945086
 20
279.296627
 30
0.0
 10
179.945086
 20
269.889176
 30
0.0
 10
175.339361
 20
269.889176
 30
0.0
 10
170.733600
 20
269.889176
 30
0.0
 10
170.733600
 20
265.185449
 30
0.0
 10
170.733600
 20
260.481725
 30
0.0
 10
165.931871
 20
260.481725
 30
0.0
 10
161.130178
 20
260.481725
 30
0.0
 10
161.130178
 20
265.381434
 30
0.0
 10
161.130178
 20
265.381434
 30
0.0
  0
LWPOLYLINE
  5
1fb
100
AcDbEntity
  8
Layer_1
 62
2
100
AcDbPolyline
 90
10
 70
0
 10
161.130178
 20
250.979754
 30
0.0
 10
161.130178
 20
255.588994
 30
0.0
 10
165.882870
 20
255.536493
 30
0.0
 10
170.635634
 20
255.483993
 30
0.0
 10
170.688339
 20
250.927261
 30
0.0
 10
170.741044
 20
246.370529
 30
0.0
 10
165.935716
 20
246.370529
 30
0.0
 10
161.130389
 20
246.370529
 30
0.0
 10
161.130389
 20
250.979733
 30
0.0
 10
161.130178
 20
250.979754
 30
0.0
  0
LWPOLYLINE
  5
1fc
100
AcDbEntity
  8
Layer_1
 62
2
100
AcDbPolyline
 90
10
 70
0
 10
185.867484
 20
244.949632
 30
0.0
 10
185.922906
 20
247.252491
 30
0.0
 10
188.225804
 20
247.307694
 30
0.0
 10
190.528631
 20
247.362897
 30
0.0
 10
190.528631
 20
245.004807
 30
0.0
 10
190.528631
 20
242.646727
 30
0.0
 10
188.170594
 20
242.646727
 30
0.0
 10
185.812486
 20
242.646727
 30
0.0
 10
185.867908
 20
244.949593
 30
0.0
 10
185.867484
 20
244.949632
 30
0.0
  0
LWPOLYLINE
  5
1fd
100
AcDbEntity
  8
Layer_1
 62
2
100
AcDbPolyline
 90
10
 70
0
 10
136.435585
 20
245.004835
 30
0.0
 10
136.435585
 20
247.362925
 30
0.0
 10
138.738487
 20
247.307722
 30
0.0
 10
141.041318
 20
247.252520
 30
0.0
 10
141.096725
 20
244.949660
 30
0.0
 10
141.152129
 20
242.646794
 30
0.0
 10
138.794028
 20
242.646794
 30
0.0
 10
136.435924
 20
242.646794
 30
0.0
 10
136.435924
 20
245.004877
 30
0.0
 10
136.435585
 20
245.004835
 30
0.0
  0
SPLINE
  5
1fe
100
AcDbEntity
  8
Layer_1
 62
2
100
AcDbSpline
 70
0
 71
3
 72
10
 73
6
 74
4
 40
0.000000
 40
0.000000
 40
0.000000
 40
0.000000
 40
1.136846
 40
1.983059
 40
2.359076
 40
2.359076
 40
2.359076
 40
2.359076
 10
188.307225
 20
292.035881
 30
0.0
 10
187.928722
 20
292.042044
 30
0.0
 10
187.268479
 20
292.052795
 30
0.0
 10
186.478720
 20
292.063456
 30
0.0
 10
186.078518
 20
292.142279
 30
0.0
 10
185.955397
 20
292.166528
 30
0.0
 11
188.307225
 21
292.035881
 31
0.0
 11
187.170520
 21
292.053782
 31
0.0
 11
186.325610
 21
292.100717
 31
0.0
 11
185.955397
 21
292.166528
 31
0.0
  0
LWPOLYLINE
  5
1ff
100
AcDbEntity
  8
Layer_1
 62
3
100
AcDbPolyline
 90
10
 70
0
 10
195.232218
 20
269.693169
 30
0.0
 10
195.232218
 20
301.443317
 30
0.0
 10
163.482006
 20
301.443317
 30
0.0
 10
131.731882
 20
301.443317
 30
0.0
 10
131.731882
 20
269.693169
 30
0.0
 10
131.731882
 20
237.943028
 30
0.0
 10
163.482006
 20
237.943028
 30
0.0
 10
195.232218
 20
237.943028
 30
0.0
 10
195.232218
 20
269.693169
 30
0.0
 10
195.232218
 20
269.693169
 30
0.0
  0
SPLINE
  5
200
100
AcDbEntity
  8
Layer_1
 62
2
100
AcDbSpline
 70
0
 71
3
 72
10
 73
6
 74
4
 40
0.000000
 40
0.000000
 40
0.000000
 40
0.000000
 40
0.376029
 40
1.222260
 40
2.359115
 40
2.359115
 40
2.359115
 40
2.359115
 10
185.954056
 20
366.232166
 30
0.0
 10
185.929799
 20
366.355290
 30
0.0
 10
185.850953
 20
366.755498
 30
0.0
 10
185.840303
 20
367.545272
 30
0.0
 10
185.829551
 20
368.205524
 30
0.0
 10
185.823387
 20
368.584030
 30
0.0
 11
185.954056
 21
366.232166
 31
0.0
 11
185.888225
 21
366.602388
 31
0.0
 11
185.841287
 21
367.447316
 31
0.0
 11
185.823387
 21
368.584030
 31
0.0
  0
LWPOLYLINE
  5
201
100
AcDbEntity
  8
Layer_1
 62
2
100
AcDbPolyline
 90
7
 70
0
 10
185.823387
 20
368.584030
 30
0.0
 10
185.823387
 20
370.805260
 30
0.0
 10
188.175251
 20
370.805260
 30
0.0
 10
190.527079
 20
370.805260
 30
0.0
 10
190.527079
 20
368.453396
 30
0.0
 10
190.527079
 20
366.101533
 30
0.0
 10
188.305884
 20
366.101533
 30
0.0
  0
LWPOLYLINE
  5
202
100
AcDbEntity
  8
Layer_1
 62
2
100
AcDbPolyline
 90
2
 70
0
 10
185.954056
 20
366.232166
 30
0.0
 10
185.954056
 20
366.232166
 30
0.0
  0
LWPOLYLINE
  5
203
100
AcDbEntity
  8
Layer_1
 62
2
100
AcDbPolyline
 90
10
 70
0
 10
136.434237
 20
368.447152
 30
0.0
 10
136.434237
 20
370.805260
 30
0.0
 10
138.792342
 20
370.805260
 30
0.0
 10
141.150446
 20
370.805260
 30
0.0
 10
141.095039
 20
368.502397
 30
0.0
 10
141.039635
 20
366.199534
 30
0.0
 10
138.736800
 20
366.144325
 30
0.0
 10
136.433902
 20
366.089115
 30
0.0
 10
136.433902
 20
368.447187
 30
0.0
 10
136.434237
 20
368.447152
 30
0.0
  0
LWPOLYLINE
  5
204
100
AcDbEntity
  8
Layer_1
 62
2
100
AcDbPolyline
 90
38
 70
0
 10
161.128837
 20
339.447090
 30
0.0
 10
161.128837
 20
344.346785
 30
0.0
 10
163.284733
 20
344.346785
 30
0.0
 10
165.440593
 20
344.346785
 30
0.0
 10
165.440593
 20
346.502681
 30
0.0
 10
165.440593
 20
348.658541
 30
0.0
 10
167.988425
 20
348.658541
 30
0.0
 10
170.536256
 20
348.658541
 30
0.0
 10
170.536256
 20
355.616130
 30
0.0
 10
170.536256
 20
362.573720
 30
0.0
 10
163.578702
 20
362.573720
 30
0.0
 10
156.621085
 20
362.573720
 30
0.0
 10
156.621085
 20
355.518129
 30
0.0
 10
156.621085
 20
348.462538
 30
0.0
 10
151.917379
 20
348.462538
 30
0.0
 10
147.213673
 20
348.462538
 30
0.0
 10
147.213673
 20
355.616130
 30
0.0
 10
147.213673
 20
362.769723
 30
0.0
 10
149.369547
 20
362.769723
 30
0.0
 10
151.525422
 20
362.769723
 30
0.0
 10
151.525422
 20
365.023585
 30
0.0
 10
151.525422
 20
367.277447
 30
0.0
 10
163.284733
 20
367.277447
 30
0.0
 10
175.044015
 20
367.277447
 30
0.0
 10
175.044015
 20
365.023585
 30
0.0
 10
175.044015
 20
362.769723
 30
0.0
 10
177.493881
 20
362.769723
 30
0.0
 10
179.943746
 20
362.769723
 30
0.0
 10
179.943746
 20
353.362268
 30
0.0
 10
179.943746
 20
343.954814
 30
0.0
 10
175.337985
 20
343.954814
 30
0.0
 10
170.732260
 20
343.954814
 30
0.0
 10
170.732260
 20
339.251087
 30
0.0
 10
170.732260
 20
334.547360
 30
0.0
 10
165.930531
 20
334.547360
 30
0.0
 10
161.128837
 20
334.547360
 30
0.0
 10
161.128837
 20
339.447090
 30
0.0
 10
161.128837
 20
339.447090
 30
0.0
  0
LWPOLYLINE
  5
205
100
AcDbEntity
  8
Layer_1
 62
2
100
AcDbPolyline
 90
10
 70
0
 10
161.128837
 20
325.045396
 30
0.0
 10
161.128837
 20
329.654649
 30
0.0
 10
165.881530
 20
329.602121
 30
0.0
 10
170.634293
 20
329.549627
 30
0.0
 10
170.686998
 20
324.992903
 30
0.0
 10
170.739703
 20
320.436178
 30
0.0
 10
165.934376
 20
320.436178
 30
0.0
 10
161.129049
 20
320.436178
 30
0.0
 10
161.129049
 20
325.045361
 30
0.0
 10
161.128837
 20
325.045396
 30
0.0
  0
LWPOLYLINE
  5
206
100
AcDbEntity
  8
Layer_1
 62
2
100
AcDbPolyline
 90
10
 70
0
 10
185.866144
 20
319.015260
 30
0.0
 10
185.921565
 20
321.318122
 30
0.0
 10
188.224463
 20
321.373332
 30
0.0
 10
190.527291
 20
321.428542
 30
0.0
 10
190.527291
 20
319.070434
 30
0.0
 10
190.527291
 20
316.712362
 30
0.0
 10
188.169254
 20
316.712362
 30
0.0
 10
185.811146
 20
316.712362
 30
0.0
 10
185.866567
 20
319.015224
 30
0.0
 10
185.866144
 20
319.015260
 30
0.0
  0
LWPOLYLINE
  5
207
100
AcDbEntity
  8
Layer_1
 62
2
100
AcDbPolyline
 90
10
 70
0
 10
136.434237
 20
319.070469
 30
0.0
 10
136.434237
 20
321.428577
 30
0.0
 10
138.737139
 20
321.373367
 30
0.0
 10
141.039970
 20
321.318158
 30
0.0
 10
141.095377
 20
319.015295
 30
0.0
 10
141.150781
 20
316.712432
 30
0.0
 10
138.792680
 20
316.712432
 30
0.0
 10
136.434576
 20
316.712432
 30
0.0
 10
136.434576
 20
319.070505
 30
0.0
 10
136.434237
 20
319.070469
 30
0.0
  0
SPLINE
  5
208
100
AcDbEntity
  8
Layer_1
 62
2
100
AcDbSpline
 70
0
 71
3
 72
10
 73
6
 74
4
 40
0.000000
 40
0.000000
 40
0.000000
 40
0.000000
 40
1.136846
 40
1.983059
 40
2.359075
 40
2.359075
 40
2.359075
 40
2.359075
 10
188.305884
 20
366.101533
 30
0.0
 10
187.927381
 20
366.107695
 30
0.0
 10
187.267138
 20
366.118445
 30
0.0
 10
186.477380
 20
366.129102
 30
0.0
 10
186.077177
 20
366.207918
 30
0.0
 10
185.954056
 20
366.232166
 30
0.0
 11
188.305884
 21
366.101533
 31
0.0
 11
187.169180
 21
366.119432
 31
0.0
 11
186.324269
 21
366.166360
 31
0.0
 11
185.954056
 21
366.232166
 31
0.0
  0
LWPOLYLINE
  5
209
100
AcDbEntity
  8
Layer_1
 62
3
100
AcDbPolyline
 90
10
 70
0
 10
195.230842
 20
343.758811
 30
0.0
 10
195.230842
 20
375.508952
 30
0.0
 10
163.480665
 20
375.508952
 30
0.0
 10
131.730535
 20
375.508952
 30
0.0
 10
131.730535
 20
343.758811
 30
0.0
 10
131.730535
 20
312.008655
 30
0.0
 10
163.480665
 20
312.008655
 30
0.0
 10
195.230842
 20
312.008655
 30
0.0
 10
195.230842
 20
343.758811
 30
0.0
 10
195.230842
 20
343.758811
 30
0.0
  0
SPLINE
  5
20a
100
AcDbEntity
  8
Layer_1
 62
2
100
AcDbSpline
 70
0
 71
3
 72
10
 73
6
 74
4
 40
0.000000
 40
0.000000
 40
0.000000
 40
0.000000
 40
0.376014
 40
1.222252
 40
2.359115
 40
2.359115
 40
2.359115
 40
2.359115
 10
185.951728
 20
440.304352
 30
0.0
 10
185.927471
 20
440.427471
 30
0.0
 10
185.848622
 20
440.827675
 30
0.0
 10
185.837976
 20
441.617450
 30
0.0
 10
185.827223
 20
442.277707
 30
0.0
 10
185.821059
 20
442.656215
 30
0.0
 11
185.951728
 21
440.304352
 31
0.0
 11
185.885897
 21
440.674558
 31
0.0
 11
185.838959
 21
441.519494
 31
0.0
 11
185.821059
 21
442.656215
 31
0.0
  0
LWPOLYLINE
  5
20b
100
AcDbEntity
  8
Layer_1
 62
2
100
AcDbPolyline
 90
7
 70
0
 10
185.821059
 20
442.656215
 30
0.0
 10
185.821059
 20
444.877410
 30
0.0
 10
188.172923
 20
444.877410
 30
0.0
 10
190.524751
 20
444.877410
 30
0.0
 10
190.524751
 20
442.525547
 30
0.0
 10
190.524751
 20
440.173683
 30
0.0
 10
188.303556
 20
440.173683
 30
0.0
  0
LWPOLYLINE
  5
20c
100
AcDbEntity
  8
Layer_1
 62
2
100
AcDbPolyline
 90
2
 70
0
 10
185.951728
 20
440.304352
 30
0.0
 10
185.951728
 20
440.304352
 30
0.0
  0
LWPOLYLINE
  5
20d
100
AcDbEntity
  8
Layer_1
 62
2
100
AcDbPolyline
 90
10
 70
0
 10
136.431913
 20
442.519338
 30
0.0
 10
136.431913
 20
444.877410
 30
0.0
 10
138.790017
 20
444.877410
 30
0.0
 10
141.148121
 20
444.877410
 30
0.0
 10
141.092714
 20
442.574547
 30
0.0
 10
141.037310
 20
440.271685
 30
0.0
 10
138.734475
 20
440.216475
 30
0.0
 10
136.431577
 20
440.161300
 30
0.0
 10
136.431577
 20
442.519373
 30
0.0
 10
136.431913
 20
442.519338
 30
0.0
  0
LWPOLYLINE
  5
20e
100
AcDbEntity
  8
Layer_1
 62
2
100
AcDbPolyline
 90
38
 70
0
 10
161.126509
 20
413.519240
 30
0.0
 10
161.126509
 20
418.418971
 30
0.0
 10
163.282404
 20
418.418971
 30
0.0
 10
165.438265
 20
418.418971
 30
0.0
 10
165.438265
 20
420.574831
 30
0.0
 10
165.438265
 20
422.730727
 30
0.0
 10
167.986096
 20
422.730727
 30
0.0
 10
170.533928
 20
422.730727
 30
0.0
 10
170.533928
 20
429.688316
 30
0.0
 10
170.533928
 20
436.645905
 30
0.0
 10
163.576374
 20
436.645905
 30
0.0
 10
156.618760
 20
436.645905
 30
0.0
 10
156.618760
 20
429.590314
 30
0.0
 10
156.618760
 20
422.534723
 30
0.0
 10
151.915054
 20
422.534723
 30
0.0
 10
147.211348
 20
422.534723
 30
0.0
 10
147.211348
 20
429.688316
 30
0.0
 10
147.211348
 20
436.841908
 30
0.0
 10
149.367222
 20
436.841908
 30
0.0
 10
151.523097
 20
436.841908
 30
0.0
 10
151.523097
 20
439.095770
 30
0.0
 10
151.523097
 20
441.349632
 30
0.0
 10
163.282404
 20
441.349632
 30
0.0
 10
175.041687
 20
441.349632
 30
0.0
 10
175.041687
 20
439.095770
 30
0.0
 10
175.041687
 20
436.841908
 30
0.0
 10
177.491552
 20
436.841908
 30
0.0
 10
179.941418
 20
436.841908
 30
0.0
 10
179.941418
 20
427.434454
 30
0.0
 10
179.941418
 20
418.027000
 30
0.0
 10
175.335657
 20
418.027000
 30
0.0
 10
170.729931
 20
418.027000
 30
0.0
 10
170.729931
 20
413.323272
 30
0.0
 10
170.729931
 20
408.619545
 30
0.0
 10
165.928202
 20
408.619545
 30
0.0
 10
161.126509
 20
408.619545
 30
0.0
 10
161.126509
 20
413.519240
 30
0.0
 10
161.126509
 20
413.519240
 30
0.0
  0
LWPOLYLINE
  5
20f
100
AcDbEntity
  8
Layer_1
 62
2
100
AcDbPolyline
 90
10
 70
0
 10
161.126509
 20
399.117582
 30
0.0
 10
161.126509
 20
403.726800
 30
0.0
 10
165.879201
 20
403.674306
 30
0.0
 10
170.631965
 20
403.621813
 30
0.0
 10
170.684670
 20
399.065088
 30
0.0
 10
170.737375
 20
394.508363
 30
0.0
 10
165.932048
 20
394.508363
 30
0.0
 10
161.126720
 20
394.508363
 30
0.0
 10
161.126720
 20
399.117546
 30
0.0
 10
161.126509
 20
399.117582
 30
0.0
  0
LWPOLYLINE
  5
210
100
AcDbEntity
  8
Layer_1
 62
2
100
AcDbPolyline
 90
10
 70
0
 10
185.863816
 20
393.087445
 30
0.0
 10
185.919237
 20
395.390308
 30
0.0
 10
188.222135
 20
395.445518
 30
0.0
 10
190.524963
 20
395.500727
 30
0.0
 10
190.524963
 20
393.142620
 30
0.0
 10
190.524963
 20
390.784547
 30
0.0
 10
188.166925
 20
390.784547
 30
0.0
 10
185.808818
 20
390.784547
 30
0.0
 10
185.864239
 20
393.087410
 30
0.0
 10
185.863816
 20
393.087445
 30
0.0
  0
LWPOLYLINE
  5
211
100
AcDbEntity
  8
Layer_1
 62
2
100
AcDbPolyline
 90
10
 70
0
 10
136.431913
 20
393.142655
 30
0.0
 10
136.431913
 20
395.500727
 30
0.0
 10
138.734814
 20
395.445553
 30
0.0
 10
141.037645
 20
395.390343
 30
0.0
 10
141.093052
 20
393.087480
 30
0.0
 10
141.148456
 20
390.784618
 30
0.0
 10
138.790355
 20
390.784618
 30
0.0
 10
136.432251
 20
390.784618
 30
0.0
 10
136.432251
 20
393.142690
 30
0.0
 10
136.431913
 20
393.142655
 30
0.0
  0
SPLINE
  5
212
100
AcDbEntity
  8
Layer_1
 62
2
100
AcDbSpline
 70
0
 71
3
 72
10
 73
6
 74
4
 40
0.000000
 40
0.000000
 40
0.000000
 40
0.000000
 40
1.136846
 40
1.983060
 40
2.359077
 40
2.359077
 40
2.359077
 40
2.359077
 10
188.303556
 20
440.173683
 30
0.0
 10
187.925053
 20
440.179847
 30
0.0
 10
187.264809
 20
440.190600
 30
0.0
 10
186.475050
 20
440.201274
 30
0.0
 10
186.074849
 20
440.280101
 30
0.0
 10
185.951728
 20
440.304352
 30
0.0
 11
188.303556
 21
440.173683
 31
0.0
 11
187.166851
 21
440.191591
 31
0.0
 11
186.321941
 21
440.238537
 31
0.0
 11
185.951728
 21
440.304352
 31
0.0
  0
LWPOLYLINE
  5
213
100
AcDbEntity
  8
Layer_1
 62
3
100
AcDbPolyline
 90
10
 70
0
 10
195.228549
 20
417.830996
 30
0.0
 10
195.228549
 20
449.581137
 30
0.0
 10
163.478337
 20
449.581137
 30
0.0
 10
131.728210
 20
449.581137
 30
0.0
 10
131.728210
 20
417.830996
 30
0.0
 10
131.728210
 20
386.080855
 30
0.0
 10
163.478337
 20
386.080855
 30
0.0
 10
195.228549
 20
386.080855
 30
0.0
 10
195.228549
 20
417.830996
 30
0.0
 10
195.228549
 20
417.830996
 30
0.0
  0
SPLINE
  5
214
100
AcDbEntity
  8
Layer_1
 62
6
100
AcDbSpline
 70
0
 71
3
 72
19
 73
15
 74
13
 40
0.000000
 40
0.000000
 40
0.000000
 40
0.000000
 40
9.748576
 40
19.208012
 40
28.956588
 40
38.705164
 40
48.164600
 40
57.913177
 40
67.661755
 40
77.121192
 40
86.869768
 40
96.618344
 40
106.077781
 40
115.826359
 40
115.826359
 40
115.826359
 40
115.826359
 10
49.106885
 20
51.929412
 30
0.0
 10
48.594438
 20
48.642651
 30
0.0
 10
47.584742
 20
42.166613
 30
0.0
 10
40.161955
 20
35.037024
 30
0.0
 10
30.479251
 20
32.395297
 30
0.0
 10
20.694888
 20
35.037024
 30
0.0
 10
13.571047
 20
42.166613
 30
0.0
 10
10.927366
 20
51.929413
 30
0.0
 10
13.571047
 20
61.692214
 30
0.0
 10
20.694888
 20
68.821804
 30
0.0
 10
30.479251
 20
71.463531
 30
0.0
 10
40.161955
 20
68.821804
 30
0.0
 10
47.584743
 20
61.692214
 30
0.0
 10
48.594438
 20
55.216174
 30
0.0
 10
49.106885
 20
51.929412
 30
0.0
 11
49.106885
 21
51.929412
 31
0.0
 11
46.561331
 21
42.519052
 31
0.0
 11
39.872500
 21
35.830220
 31
0.0
 11
30.462139
 21
33.284666
 31
0.0
 11
21.051778
 21
35.830220
 31
0.0
 11
14.362947
 21
42.519052
 31
0.0
 11
11.817392
 21
51.929412
 31
0.0
 11
14.362947
 21
61.339776
 31
0.0
 11
21.051778
 21
68.028608
 31
0.0
 11
30.462139
 21
70.574162
 31
0.0
 11
39.872500
 21
68.028608
 31
0.0
 11
46.561331
 21
61.339776
 31
0.0
 11
49.106885
 21
51.929412
 31
0.0
  0
SPLINE
  5
215
100
AcDbEntity
  8
Layer_1
 62
5
100
AcDbSpline
 70
0
 71
3
 72
46
 73
42
 74
40
 40
0.000000
 40
0.000000
 40
0.000000
 40
0.000000
 40
0.287547
 40
0.453741
 40
0.580394
 40
0.703787
 40
0.825955
 40
0.953082
 40
1.105563
 40
1.248108
 40
1.388934
 40
1.534141
 40
1.705921
 40
1.946226
 40
1.946420
 40
1.946555
 40
1.946756
 40
2.026463
 40
2.065445
 40
2.098738
 40
2.143668
 40
2.193979
 40
2.250265
 40
2.381518
 40
2.536315
 40
2.713022
 40
3.123828
 40
3.594768
 40
4.106348
 40
5.177266
 40
6.156766
 40
6.830412
 40
7.428172
 40
8.198986
 40
8.976631
 40
9.319049
 40
9.634360
 40
9.906051
 40
9.953799
 40
9.992982
 40
10.033598
 40
10.033598
 40
10.033598
 40
10.033598
 10
22.797019
 20
39.857703
 30
0.0
 10
22.700189
 20
39.859555
 30
0.0
 10
22.547394
 20
39.862478
 30
0.0
 10
22.365938
 20
39.940350
 30
0.0
 10
22.257363
 20
40.027245
 30
0.0
 10
22.151119
 20
40.091757
 30
0.0
 10
22.054405
 20
40.170151
 30
0.0
 10
21.956118
 20
40.261210
 30
0.0
 10
21.861299
 20
40.365507
 30
0.0
 10
21.775183
 20
40.482985
 30
0.0
 10
21.705257
 20
40.607668
 30
0.0
 10
21.631614
 20
40.741519
 30
0.0
 10
21.572750
 20
40.919478
 30
0.0
 10
21.564979
 20
41.058206
 30
0.0
 10
21.565572
 20
41.138418
 30
0.0
 10
21.565570
 20
41.138594
 30
0.0
 10
21.565765
 20
41.165275
 30
0.0
 10
21.565843
 20
41.204963
 30
0.0
 10
21.571093
 20
41.255398
 30
0.0
 10
21.577309
 20
41.293977
 30
0.0
 10
21.581651
 20
41.336616
 30
0.0
 10
21.588084
 20
41.386712
 30
0.0
 10
21.598153
 20
41.465354
 30
0.0
 10
21.613455
 20
41.578436
 30
0.0
 10
21.634721
 20
41.731216
 30
0.0
 10
21.669490
 20
41.976198
 30
0.0
 10
21.720162
 20
42.325358
 30
0.0
 10
21.788344
 20
42.784770
 30
0.0
 10
21.891188
 20
43.461479
 30
0.0
 10
22.020202
 20
44.305677
 30
0.0
 10
22.156217
 20
45.203454
 30
0.0
 10
22.267450
 20
45.945466
 30
0.0
 10
22.366911
 20
46.618900
 30
0.0
 10
22.471876
 20
47.326566
 30
0.0
 10
22.566184
 20
47.949759
 30
0.0
 10
22.634576
 20
48.423319
 30
0.0
 10
22.673354
 20
48.730700
 30
0.0
 10
22.697083
 20
48.940964
 30
0.0
 10
22.708222
 20
49.059990
 30
0.0
 10
22.711291
 20
49.102396
 30
0.0
 10
22.713311
 20
49.128919
 30
0.0
 10
22.714339
 20
49.142419
 30
0.0
 11
22.797019
 21
39.857703
 31
0.0
 11
22.510921
 21
39.886535
 31
0.0
 11
22.358461
 21
39.952690
 31
0.0
 11
22.254935
 21
40.025652
 31
0.0
 11
22.152377
 21
40.094265
 31
0.0
 11
22.056583
 21
40.170083
 31
0.0
 11
21.963478
 21
40.256644
 31
0.0
 11
21.861198
 21
40.369733
 31
0.0
 11
21.777312
 21
40.484982
 31
0.0
 11
21.706131
 21
40.606495
 31
0.0
 11
21.639563
 21
40.735543
 31
0.0
 11
21.586202
 21
40.898825
 31
0.0
 11
21.565571
 21
41.138244
 31
0.0
 11
21.565572
 21
41.138437
 31
0.0
 11
21.565570
 21
41.138572
 31
0.0
 11
21.565571
 21
41.138773
 31
0.0
 11
21.567684
 21
41.218453
 31
0.0
 11
21.571678
 21
41.257229
 31
0.0
 11
21.576419
 21
41.290183
 31
0.0
 11
21.581653
 21
41.334806
 31
0.0
 11
21.587827
 21
41.384738
 31
0.0
 11
21.595019
 21
41.440562
 31
0.0
 11
21.612478
 21
41.570648
 31
0.0
 11
21.633778
 21
41.723973
 31
0.0
 11
21.658580
 21
41.898931
 31
0.0
 11
21.717486
 21
42.305491
 31
0.0
 11
21.786614
 21
42.771331
 31
0.0
 11
21.863219
 21
43.277143
 31
0.0
 11
22.024567
 21
44.335837
 31
0.0
 11
22.171190
 21
45.304300
 31
0.0
 11
22.270945
 21
45.970519
 31
0.0
 11
22.358536
 21
46.561827
 31
0.0
 11
22.471913
 21
47.324257
 31
0.0
 11
22.586688
 21
48.093385
 31
0.0
 11
22.634811
 21
48.432405
 31
0.0
 11
22.674439
 21
48.745216
 31
0.0
 11
22.703994
 21
49.015294
 31
0.0
 11
22.708304
 21
49.062847
 31
0.0
 11
22.711281
 21
49.101917
 31
0.0
 11
22.714339
 21
49.142419
 31
0.0
  0
SPLINE
  5
216
100
AcDbEntity
  8
Layer_1
 62
5
100
AcDbSpline
 70
0
 71
3
 72
139
 73
135
 74
133
 40
0.000000
 40
0.000000
 40
0.000000
 40
0.000000
 40
0.033497
 40
0.064655
 40
0.104713
 40
0.397198
 40
0.774091
 40
1.234728
 40
2.408345
 40
3.926612
 40
5.799326
 40
6.630952
 40
7.247847
 40
7.703930
 40
7.890884
 40
8.066242
 40
8.243370
 40
8.437874
 40
8.641396
 40
8.831341
 40
9.210712
 40
9.637810
 40
10.080927
 40
10.192841
 40
10.246931
 40
10.281450
 40
10.316705
 40
10.349946
 40
10.382992
 40
10.453307
 40
10.531081
 40
10.617854
 40
10.820858
 40
11.061098
 40
11.336126
 40
11.978052
 40
12.717582
 40
13.524980
 40
15.304706
 40
16.624456
 40
17.551039
 40
18.044816
 40
18.297767
 40
18.378485
 40
18.392122
 40
18.402386
 40
18.417909
 40
18.666698
 40
19.003166
 40
19.426912
 40
20.543467
 40
22.045293
 40
23.963935
 40
25.026737
 40
25.766832
 40
26.292333
 40
26.523699
 40
26.769392
 40
27.049028
 40
27.332531
 40
27.562844
 40
27.710727
 40
27.722572
 40
27.778477
 40
27.886975
 40
28.043113
 40
28.218764
 40
28.387060
 40
28.664314
 40
28.917352
 40
29.208916
 40
30.083251
 40
31.509182
 40
33.667581
 40
34.537639
 40
35.332556
 40
36.017913
 40
36.308774
 40
36.558567
 40
36.761779
 40
36.772766
 40
36.781520
 40
36.791923
 40
36.817512
 40
36.840256
 40
36.871295
 40
37.124414
 40
37.449154
 40
37.839762
 40
40.040312
 40
41.797985
 40
43.141139
 40
43.666232
 40
44.100249
 40
44.449390
 40
44.594152
 40
44.722665
 40
44.839496
 40
44.895230
 40
44.952313
 40
45.014426
 40
45.083730
 40
45.181787
 40
45.346403
 40
45.577678
 40
45.906045
 40
46.293569
 40
46.664540
 40
46.979527
 40
47.281963
 40
48.001227
 40
49.037570
 40
50.519652
 40
51.410659
 40
52.221323
 40
52.918219
 40
53.213610
 40
53.468114
 40
53.677540
 40
53.764053
 40
53.837944
 40
53.898977
 40
53.936905
 40
53.967391
 40
54.029111
 40
54.041671
 40
54.143663
 40
54.294084
 40
54.460330
 40
54.647560
 40
54.846638
 40
55.059043
 40
55.172111
 40
55.222121
 40
55.222121
 40
55.222121
 40
55.222121
 10
22.714339
 20
49.142419
 30
0.0
 10
22.706977
 20
49.150813
 30
0.0
 10
22.692767
 20
49.167017
 30
0.0
 10
22.669936
 20
49.193420
 30
0.0
 10
22.588798
 20
49.283506
 30
0.0
 10
22.427948
 20
49.456864
 30
0.0
 10
22.169707
 20
49.731079
 30
0.0
 10
21.706464
 20
50.215667
 30
0.0
 10
20.974815
 20
50.969971
 30
0.0
 10
19.910240
 20
52.057054
 30
0.0
 10
18.921715
 20
53.059043
 30
0.0
 10
18.143953
 20
53.846893
 30
0.0
 10
17.702543
 20
54.303234
 30
0.0
 10
17.419926
 20
54.614075
 30
0.0
 10
17.245685
 20
54.824105
 30
0.0
 10
17.139560
 20
54.969408
 30
0.0
 10
17.044425
 20
55.125431
 30
0.0
 10
16.969418
 20
55.302708
 30
0.0
 10
16.919358
 20
55.492801
 30
0.0
 10
16.891137
 20
55.750369
 30
0.0
 10
16.953879
 20
56.082424
 30
0.0
 10
17.134994
 20
56.464738
 30
0.0
 10
17.388572
 20
56.689630
 30
0.0
 10
17.570320
 20
56.780613
 30
0.0
 10
17.633541
 20
56.803120
 30
0.0
 10
17.674236
 20
56.810559
 30
0.0
 10
17.707029
 20
56.820878
 30
0.0
 10
17.739850
 20
56.829158
 30
0.0
 10
17.784053
 20
56.840088
 30
0.0
 10
17.842902
 20
56.853611
 30
0.0
 10
17.919417
 20
56.870176
 30
0.0
 10
18.039365
 20
56.895138
 30
0.0
 10
18.212622
 20
56.929720
 30
0.0
 10
18.447782
 20
56.974718
 30
0.0
 10
18.827048
 20
57.045052
 30
0.0
 10
19.370637
 20
57.142032
 30
0.0
 10
20.089586
 20
57.266201
 30
0.0
 10
21.183706
 20
57.447634
 30
0.0
 10
22.467015
 20
57.661235
 30
0.0
 10
23.796041
 20
57.873846
 30
0.0
 10
24.685069
 20
58.045327
 30
0.0
 10
25.253256
 20
58.113462
 30
0.0
 10
25.496195
 20
58.214308
 30
0.0
 10
25.635928
 20
58.195558
 30
0.0
 10
25.653871
 20
58.226813
 30
0.0
 10
25.661800
 20
58.237206
 30
0.0
 10
25.711052
 20
58.314582
 30
0.0
 10
25.814080
 20
58.486044
 30
0.0
 10
25.981601
 20
58.777854
 30
0.0
 10
26.285103
 20
59.324835
 30
0.0
 10
26.763178
 20
60.219210
 30
0.0
 10
27.463474
 20
61.559617
 30
0.0
 10
28.148299
 20
62.887932
 30
0.0
 10
28.713154
 20
63.992335
 30
0.0
 10
29.070650
 20
64.681335
 30
0.0
 10
29.323423
 20
65.112003
 30
0.0
 10
29.514782
 20
65.386568
 30
0.0
 10
29.689685
 20
65.570265
 30
0.0
 10
29.917938
 20
65.720258
 30
0.0
 10
30.172290
 20
65.800451
 30
0.0
 10
30.393705
 20
65.826753
 30
0.0
 10
30.523429
 20
65.803196
 30
0.0
 10
30.595103
 20
65.809985
 30
0.0
 10
30.653768
 20
65.801668
 30
0.0
 10
30.759452
 20
65.787200
 30
0.0
 10
30.900345
 20
65.743032
 30
0.0
 10
31.051907
 20
65.672507
 30
0.0
 10
31.224679
 20
65.556986
 30
0.0
 10
31.391382
 20
65.391243
 30
0.0
 10
31.545383
 20
65.163817
 30
0.0
 10
31.778989
 20
64.752550
 30
0.0
 10
32.196649
 20
63.996194
 30
0.0
 10
32.882495
 20
62.677589
 30
0.0
 10
33.568710
 20
61.360918
 30
0.0
 10
34.159581
 20
60.231693
 30
0.0
 10
34.526653
 20
59.539578
 30
0.0
 10
34.806067
 20
59.019454
 30
0.0
 10
35.001666
 20
58.660711
 30
0.0
 10
35.121559
 20
58.443483
 30
0.0
 10
35.196946
 20
58.308824
 30
0.0
 10
35.233920
 20
58.244063
 30
0.0
 10
35.239536
 20
58.235874
 30
0.0
 10
35.245581
 20
58.221081
 30
0.0
 10
35.269175
 20
58.221924
 30
0.0
 10
35.292959
 20
58.212193
 30
0.0
 10
35.393797
 20
58.189570
 30
0.0
 10
35.590741
 20
58.145622
 30
0.0
 10
35.908715
 20
58.086351
 30
0.0
 10
36.866894
 20
57.925818
 30
0.0
 10
38.298585
 20
57.696117
 30
0.0
 10
40.041024
 20
57.402382
 30
0.0
 10
41.231718
 20
57.194645
 30
0.0
 10
41.986326
 20
57.054958
 30
0.0
 10
42.414361
 20
56.971520
 30
0.0
 10
42.717054
 20
56.907797
 30
0.0
 10
42.919288
 20
56.861441
 30
0.0
 10
43.045526
 20
56.830207
 30
0.0
 10
43.142254
 20
56.803368
 30
0.0
 10
43.215438
 20
56.780934
 30
0.0
 10
43.270841
 20
56.762656
 30
0.0
 10
43.329015
 20
56.738851
 30
0.0
 10
43.401761
 20
56.714879
 30
0.0
 10
43.499820
 20
56.662017
 30
0.0
 10
43.627217
 20
56.556500
 30
0.0
 10
43.794305
 20
56.381642
 30
0.0
 10
43.964963
 20
56.110575
 30
0.0
 10
44.041672
 20
55.747582
 30
0.0
 10
43.990912
 20
55.386026
 30
0.0
 10
43.843251
 20
55.087503
 30
0.0
 10
43.575175
 20
54.730920
 30
0.0
 10
43.127532
 20
54.210474
 30
0.0
 10
42.373395
 20
53.437982
 30
0.0
 10
41.574729
 20
52.629625
 30
0.0
 10
40.828693
 20
51.874823
 30
0.0
 10
40.266243
 20
51.306591
 30
0.0
 10
39.843272
 20
50.879670
 30
0.0
 10
39.550486
 20
50.584685
 30
0.0
 10
39.372018
 20
50.405278
 30
0.0
 10
39.242486
 20
50.275153
 30
0.0
 10
39.155545
 20
50.188042
 30
0.0
 10
39.103082
 20
50.135464
 30
0.0
 10
39.062984
 20
50.095824
 30
0.0
 10
39.030864
 20
50.063111
 30
0.0
 10
39.008244
 20
50.037765
 30
0.0
 10
38.943840
 20
49.984513
 30
0.0
 10
39.008646
 20
50.029540
 30
0.0
 10
38.856393
 20
49.892580
 30
0.0
 10
38.806738
 20
49.831048
 30
0.0
 10
38.676591
 20
49.694712
 30
0.0
 10
38.556452
 20
49.563698
 30
0.0
 10
38.419970
 20
49.415463
 30
0.0
 10
38.302875
 20
49.286254
 30
0.0
 10
38.222320
 20
49.190358
 30
0.0
 10
38.187611
 20
49.148526
 30
0.0
 10
38.176967
 20
49.135698
 30
0.0
 11
22.714339
 21
49.142419
 31
0.0
 11
22.692283
 21
49.167630
 31
0.0
 11
22.671808
 21
49.191115
 31
0.0
 11
22.645095
 21
49.220965
 31
0.0
 11
22.446856
 21
49.436021
 31
0.0
 11
22.188538
 21
49.710467
 31
0.0
 11
21.870464
 21
50.043656
 31
0.0
 11
21.054219
 21
50.886936
 31
0.0
 11
19.992308
 21
51.972054
 31
0.0
 11
18.677895
 21
53.305987
 31
0.0
 11
18.094823
 21
53.898968
 31
0.0
 11
17.667914
 21
54.344288
 31
0.0
 11
17.363247
 21
54.683683
 31
0.0
 11
17.244777
 21
54.828308
 31
0.0
 11
17.141898
 21
54.970317
 31
0.0
 11
17.051121
 21
55.122415
 31
0.0
 11
16.974897
 21
55.301362
 31
0.0
 11
16.923321
 21
55.498240
 31
0.0
 11
16.904359
 21
55.687237
 31
0.0
 11
16.965503
 21
56.061647
 31
0.0
 11
17.156412
 21
56.443703
 31
0.0
 11
17.488302
 21
56.737304
 31
0.0
 11
17.588849
 21
56.786449
 31
0.0
 11
17.640150
 21
56.803593
 31
0.0
 11
17.673820
 21
56.811200
 31
0.0
 11
17.707758
 21
56.820741
 31
0.0
 11
17.739919
 21
56.829148
 31
0.0
 11
17.772007
 21
56.837050
 31
0.0
 11
17.840508
 21
56.852917
 31
0.0
 11
17.916506
 21
56.869445
 31
0.0
 11
18.001448
 21
56.887175
 31
0.0
 11
18.200497
 21
56.927049
 31
0.0
 11
18.436431
 21
56.972329
 31
0.0
 11
18.706833
 21
57.022567
 31
0.0
 11
19.338697
 21
57.135775
 31
0.0
 11
20.067448
 21
57.261577
 31
0.0
 11
20.863806
 21
57.394638
 31
0.0
 11
22.619773
 21
57.684478
 31
0.0
 11
23.921443
 21
57.902186
 31
0.0
 11
24.834625
 21
58.059197
 31
0.0
 11
25.320025
 21
58.149767
 31
0.0
 11
25.567613
 21
58.201576
 31
0.0
 11
25.646978
 21
58.216293
 31
0.0
 11
25.654680
 21
58.227548
 31
0.0
 11
25.660654
 21
58.235894
 31
0.0
 11
25.669203
 21
58.248850
 31
0.0
 11
25.798466
 21
58.461424
 31
0.0
 11
25.966469
 21
58.752947
 31
0.0
 11
26.172533
 21
59.123214
 31
0.0
 11
26.701299
 21
60.106628
 31
0.0
 11
27.398083
 21
61.437032
 31
0.0
 11
28.277831
 21
63.142092
 31
0.0
 11
28.763236
 21
64.087570
 31
0.0
 11
29.110229
 21
64.741280
 31
0.0
 11
29.381122
 21
65.191578
 31
0.0
 11
29.516566
 21
65.379154
 31
0.0
 11
29.687706
 21
65.555438
 31
0.0
 11
29.922174
 21
65.707825
 31
0.0
 11
30.191539
 21
65.796235
 31
0.0
 11
30.421003
 21
65.815984
 31
0.0
 11
30.568646
 21
65.807560
 31
0.0
 11
30.580459
 21
65.808435
 31
0.0
 11
30.636203
 21
65.804189
 31
0.0
 11
30.743313
 21
65.786896
 31
0.0
 11
30.892857
 21
65.741998
 31
0.0
 11
31.051898
 21
65.667439
 31
0.0
 11
31.191864
 21
65.573988
 31
0.0
 11
31.389732
 21
65.379777
 31
0.0
 11
31.535490
 21
65.172935
 31
0.0
 11
31.682791
 21
64.921317
 31
0.0
 11
32.105329
 21
64.155861
 31
0.0
 11
32.769955
 21
62.894295
 31
0.0
 11
33.767935
 21
60.980470
 31
0.0
 11
34.171937
 21
60.209897
 31
0.0
 11
34.544439
 21
59.507660
 31
0.0
 11
34.869160
 21
58.904112
 31
0.0
 11
35.008473
 21
58.648786
 31
0.0
 11
35.129246
 21
58.430129
 31
0.0
 11
35.228826
 21
58.252988
 31
0.0
 11
35.234416
 21
58.243529
 31
0.0
 11
35.239024
 21
58.236086
 31
0.0
 11
35.244331
 21
58.227139
 31
0.0
 11
35.268935
 21
58.220110
 31
0.0
 11
35.290751
 21
58.213680
 31
0.0
 11
35.320811
 21
58.205946
 31
0.0
 11
35.568117
 21
58.152008
 31
0.0
 11
35.887129
 21
58.091288
 31
0.0
 11
36.272174
 21
58.025595
 31
0.0
 11
38.443730
 21
57.669558
 31
0.0
 11
40.176975
 21
57.377537
 31
0.0
 11
41.499761
 21
57.144511
 31
0.0
 11
42.016009
 21
57.048540
 31
0.0
 11
42.441897
 21
56.964929
 31
0.0
 11
42.783405
 21
56.892329
 31
0.0
 11
42.924466
 21
56.859803
 31
0.0
 11
43.049150
 21
56.828661
 31
0.0
 11
43.161678
 21
56.797246
 31
0.0
 11
43.214954
 21
56.780879
 31
0.0
 11
43.269026
 21
56.762586
 31
0.0
 11
43.327042
 21
56.740400
 31
0.0
 11
43.392025
 21
56.716311
 31
0.0
 11
43.478789
 21
56.670624
 31
0.0
 11
43.608162
 21
56.568836
 31
0.0
 11
43.767077
 21
56.400806
 31
0.0
 11
43.937797
 21
56.120306
 31
0.0
 11
44.019504
 21
55.741495
 31
0.0
 11
43.967780
 21
55.374147
 31
0.0
 11
43.833155
 21
55.089378
 31
0.0
 11
43.657253
 21
54.843359
 31
0.0
 11
43.191957
 21
54.294869
 31
0.0
 11
42.476652
 21
53.544972
 31
0.0
 11
41.436200
 21
52.489498
 31
0.0
 11
40.809788
 21
51.855857
 31
0.0
 11
40.239519
 21
51.279689
 31
0.0
 11
39.748965
 21
50.784693
 31
0.0
 11
39.540852
 21
50.575062
 31
0.0
 11
39.361383
 21
50.394609
 31
0.0
 11
39.213597
 21
50.246223
 31
0.0
 11
39.152492
 21
50.184981
 31
0.0
 11
39.100235
 21
50.132739
 31
0.0
 11
39.057016
 21
50.089645
 31
0.0
 11
39.030580
 21
50.062448
 31
0.0
 11
39.009229
 21
50.040688
 31
0.0
 11
38.964000
 21
49.998692
 31
0.0
 11
38.974469
 21
50.005632
 31
0.0
 11
38.903012
 21
49.932856
 31
0.0
 11
38.798635
 21
49.824544
 31
0.0
 11
38.685205
 21
49.703005
 31
0.0
 11
38.558072
 21
49.565556
 31
0.0
 11
38.423464
 21
49.418884
 31
0.0
 11
38.281905
 21
49.260527
 31
0.0
 11
38.208925
 21
49.174165
 31
0.0
 11
38.176967
 21
49.135698
 31
0.0
  0
LWPOLYLINE
  5
217
100
AcDbEntity
  8
Layer_1
 62
6
100
AcDbPolyline
 90
2
 70
0
 10
49.106885
 20
51.929412
 30
0.0
 10
49.106885
 20
51.929412
 30
0.0
  0
SPLINE
  5
218
100
AcDbEntity
  8
Layer_1
 62
5
100
AcDbSpline
 70
0
 71
3
 72
34
 73
30
 74
28
 40
0.000000
 40
0.000000
 40
0.000000
 40
0.000000
 40
1.402055
 40
3.748209
 40
6.048256
 40
6.927731
 40
7.574372
 40
8.075165
 40
8.312721
 40
8.569985
 40
8.861773
 40
9.165425
 40
9.435109
 40
9.641631
 40
9.832891
 40
9.953259
 40
10.036515
 40
10.102685
 40
10.158051
 40
10.207557
 40
10.301718
 40
10.395542
 40
10.494981
 40
10.724781
 40
11.001868
 40
11.332914
 40
12.174772
 40
13.272335
 40
14.644890
 40
14.644890
 40
14.644890
 40
14.644890
 10
38.176967
 20
49.135698
 30
0.0
 10
38.244235
 20
48.673212
 30
0.0
 10
38.424067
 20
47.436817
 30
0.0
 10
38.721841
 20
45.442854
 30
0.0
 10
38.993745
 20
43.621097
 30
0.0
 10
39.186977
 20
42.360498
 30
0.0
 10
39.278275
 20
41.690863
 30
0.0
 10
39.305347
 20
41.229211
 30
0.0
 10
39.290724
 20
40.897011
 30
0.0
 10
39.235342
 20
40.638924
 30
0.0
 10
39.110398
 20
40.379586
 30
0.0
 10
38.912784
 20
40.163759
 30
0.0
 10
38.692119
 20
40.022361
 30
0.0
 10
38.486349
 20
39.936291
 30
0.0
 10
38.317656
 20
39.893810
 30
0.0
 10
38.184814
 20
39.891380
 30
0.0
 10
38.096362
 20
39.908469
 30
0.0
 10
38.028813
 20
39.918434
 30
0.0
 10
37.973300
 20
39.931672
 30
0.0
 10
37.909369
 20
39.949386
 30
0.0
 10
37.833653
 20
39.972591
 30
0.0
 10
37.743358
 20
40.004685
 30
0.0
 10
37.611828
 20
40.055568
 30
0.0
 10
37.425234
 20
40.133305
 30
0.0
 10
37.169884
 20
40.246519
 30
0.0
 10
36.730653
 20
40.448243
 30
0.0
 10
36.047370
 20
40.773737
 30
0.0
 10
35.055266
 20
41.258035
 30
0.0
 10
34.317776
 20
41.624169
 30
0.0
 10
33.907979
 20
41.827615
 30
0.0
 11
38.176967
 21
49.135698
 31
0.0
 11
38.379429
 21
47.748339
 31
0.0
 11
38.724081
 21
45.427637
 31
0.0
 11
39.065803
 21
43.153117
 31
0.0
 11
39.195969
 21
42.283328
 31
0.0
 11
39.275553
 21
41.641603
 31
0.0
 11
39.298864
 21
41.141352
 31
0.0
 11
39.284659
 21
40.904222
 31
0.0
 11
39.228597
 21
40.653140
 31
0.0
 11
39.100427
 21
40.391010
 31
0.0
 11
38.896255
 21
40.166247
 31
0.0
 11
38.670379
 21
40.018906
 31
0.0
 11
38.479791
 21
39.939358
 31
0.0
 11
38.293303
 21
39.896899
 31
0.0
 11
38.172938
 21
39.896097
 31
0.0
 11
38.090668
 21
39.908870
 31
0.0
 11
38.025440
 21
39.919995
 31
0.0
 11
37.971496
 21
39.932465
 31
0.0
 11
37.923753
 21
39.945560
 31
0.0
 11
37.833765
 21
39.973282
 31
0.0
 11
37.745271
 21
40.004450
 31
0.0
 11
37.652452
 21
40.040127
 31
0.0
 11
37.440100
 21
40.127961
 31
0.0
 11
37.186557
 21
40.239734
 31
0.0
 11
36.885573
 21
40.377574
 31
0.0
 11
36.124832
 21
40.738127
 31
0.0
 11
35.138121
 21
41.218799
 31
0.0
 11
33.907979
 21
41.827615
 31
0.0
  0
LWPOLYLINE
  5
219
100
AcDbEntity
  8
Layer_1
 62
5
100
AcDbPolyline
 90
3
 70
0
 10
33.907979
 20
41.827615
 30
0.0
 10
30.460643
 20
43.542756
 30
0.0
 10
27.038631
 20
41.832267
 30
0.0
  0
SPLINE
  5
21a
100
AcDbEntity
  8
Layer_1
 62
5
100
AcDbSpline
 70
0
 71
3
 72
25
 73
21
 74
19
 40
0.000000
 40
0.000000
 40
0.000000
 40
0.000000
 40
1.125798
 40
2.146263
 40
3.020111
 40
3.389089
 40
3.706445
 40
3.967985
 40
4.076496
 40
4.170492
 40
4.251029
 40
4.286598
 40
4.320803
 40
4.356142
 40
4.375171
 40
4.397454
 40
4.425952
 40
4.454689
 40
4.518735
 40
4.693784
 40
4.693784
 40
4.693784
 40
4.693784
 10
27.038631
 20
41.832267
 30
0.0
 10
26.702829
 20
41.664750
 30
0.0
 10
26.062644
 20
41.345389
 30
0.0
 10
25.160181
 20
40.899277
 30
0.0
 10
24.482754
 20
40.567221
 30
0.0
 10
24.014910
 20
40.340094
 30
0.0
 10
23.730231
 20
40.203028
 30
0.0
 10
23.523350
 20
40.104517
 30
0.0
 10
23.383179
 20
40.039101
 30
0.0
 10
23.297397
 20
39.999818
 30
0.0
 10
23.233449
 20
39.971260
 30
0.0
 10
23.187642
 20
39.950962
 30
0.0
 10
23.155503
 20
39.937002
 30
0.0
 10
23.128201
 20
39.925768
 30
0.0
 10
23.104351
 20
39.916570
 30
0.0
 10
23.082758
 20
39.908015
 30
0.0
 10
23.056395
 20
39.902165
 30
0.0
 10
23.024755
 20
39.875413
 30
0.0
 10
22.934220
 20
39.858269
 30
0.0
 10
22.855015
 20
39.857953
 30
0.0
 10
22.797027
 20
39.857721
 30
0.0
 11
27.038631
 21
41.832267
 31
0.0
 11
26.030907
 21
41.330356
 31
0.0
 11
25.116098
 21
40.878170
 31
0.0
 11
24.331300
 21
40.493848
 31
0.0
 11
23.999337
 21
40.332772
 31
0.0
 11
23.713359
 21
40.195182
 31
0.0
 11
23.477090
 21
40.083019
 31
0.0
 11
23.378736
 21
40.037182
 31
0.0
 11
23.293252
 21
39.998095
 31
0.0
 11
23.219741
 21
39.965197
 31
0.0
 11
23.187207
 21
39.950818
 31
0.0
 11
23.155808
 21
39.937253
 31
0.0
 11
23.123107
 21
39.923856
 31
0.0
 11
23.105380
 21
39.916938
 31
0.0
 11
23.084463
 21
39.909255
 31
0.0
 11
23.057477
 21
39.900097
 31
0.0
 11
23.033280
 21
39.884595
 31
0.0
 11
22.971858
 21
39.866450
 31
0.0
 11
22.797027
 21
39.857721
 31
0.0
  0
LWPOLYLINE
  5
21b
100
AcDbEntity
  8
Layer_1
 62
5
100
AcDbPolyline
 90
2
 70
0
 10
22.797027
 20
39.857721
 30
0.0
 10
22.797019
 20
39.857703
 30
0.0
  0
SPLINE
  5
21c
100
AcDbEntity
  8
Layer_1
 62
5
100
AcDbSpline
 70
0
 71
3
 72
13
 73
9
 74
7
 40
0.000000
 40
0.000000
 40
0.000000
 40
0.000000
 40
0.128811
 40
0.253759
 40
0.401938
 40
1.268740
 40
2.283990
 40
3.405179
 40
3.405179
 40
3.405179
 40
3.405179
 10
23.265209
 20
41.766113
 30
0.0
 10
23.303919
 20
41.784692
 30
0.0
 10
23.380176
 20
41.821293
 30
0.0
 10
23.501100
 20
41.878982
 30
0.0
 10
23.843038
 20
42.044697
 30
0.0
 10
24.450518
 20
42.342948
 30
0.0
 10
25.348117
 20
42.786208
 30
0.0
 10
25.985374
 20
43.104102
 30
0.0
 10
26.319803
 20
43.270931
 30
0.0
 11
23.265209
 21
41.766113
 31
0.0
 11
23.381359
 21
41.821804
 31
0.0
 11
23.494060
 21
41.875753
 31
0.0
 11
23.627461
 21
41.940262
 31
0.0
 11
24.405964
 21
42.321415
 31
0.0
 11
25.316166
 21
42.771152
 31
0.0
 11
26.319803
 21
43.270931
 31
0.0
  0
SPLINE
  5
21d
100
AcDbEntity
  8
Layer_1
 62
5
100
AcDbSpline
 70
0
 71
3
 72
13
 73
9
 74
7
 40
0.000000
 40
0.000000
 40
0.000000
 40
0.000000
 40
1.365220
 40
2.449564
 40
3.267138
 40
3.286603
 40
3.301502
 40
3.320341
 40
3.320341
 40
3.320341
 40
3.320341
 10
34.624722
 20
43.267314
 30
0.0
 10
35.032300
 20
43.064891
 30
0.0
 10
35.763601
 20
42.701691
 30
0.0
 10
36.742780
 20
42.225015
 30
0.0
 10
37.320144
 20
41.947740
 30
0.0
 10
37.578321
 20
41.829433
 30
0.0
 10
37.594633
 20
41.822469
 30
0.0
 10
37.604870
 20
41.817814
 30
0.0
 10
37.610587
 20
41.815214
 30
0.0
 11
34.624722
 21
43.267314
 31
0.0
 11
35.848339
 21
42.661850
 31
0.0
 11
36.823220
 21
42.187076
 31
0.0
 11
37.562009
 21
41.836910
 31
0.0
 11
37.579744
 21
41.828887
 31
0.0
 11
37.593404
 21
41.822938
 31
0.0
 11
37.610587
 21
41.815214
 31
0.0
  0
SPLINE
  5
21e
100
AcDbEntity
  8
Layer_1
 62
5
100
AcDbSpline
 70
0
 71
3
 72
40
 73
36
 74
34
 40
0.000000
 40
0.000000
 40
0.000000
 40
0.000000
 40
0.277899
 40
0.602029
 40
1.105511
 40
3.445120
 40
5.832258
 40
7.253089
 40
7.490044
 40
7.794431
 40
8.107888
 40
8.388364
 40
8.658810
 40
8.973344
 40
9.178660
 40
9.372245
 40
9.546377
 40
9.678883
 40
9.785507
 40
9.915626
 40
9.945192
 40
9.976988
 40
10.030274
 40
10.088270
 40
10.160268
 40
10.245499
 40
10.453025
 40
10.706273
 40
11.000801
 40
11.696561
 40
12.506518
 40
13.396807
 40
14.564870
 40
15.333040
 40
15.863748
 40
15.863748
 40
15.863748
 40
15.863748
 10
37.610587
 20
41.815214
 30
0.0
 10
37.601482
 20
41.907398
 30
0.0
 10
37.581756
 20
42.107100
 30
0.0
 10
37.541031
 20
42.473392
 30
0.0
 10
37.386175
 20
43.517834
 30
0.0
 10
37.116424
 20
45.240392
 30
0.0
 10
36.846891
 20
47.271266
 30
0.0
 10
36.594563
 20
48.598333
 30
0.0
 10
36.554623
 20
49.252283
 30
0.0
 10
36.587405
 20
49.537270
 30
0.0
 10
36.684145
 20
49.824191
 30
0.0
 10
36.844458
 20
50.065970
 30
0.0
 10
37.031560
 20
50.285566
 30
0.0
 10
37.212375
 20
50.477528
 30
0.0
 10
37.372172
 20
50.652875
 30
0.0
 10
37.503136
 20
50.794295
 30
0.0
 10
37.613368
 20
50.912183
 30
0.0
 10
37.717108
 20
51.023199
 30
0.0
 10
37.768744
 20
51.084543
 30
0.0
 10
37.934703
 20
51.236852
 30
0.0
 10
37.847346
 20
51.157597
 30
0.0
 10
37.896016
 20
51.203294
 30
0.0
 10
37.921039
 20
51.227834
 30
0.0
 10
37.967313
 20
51.274242
 30
0.0
 10
38.016820
 20
51.324004
 30
0.0
 10
38.103100
 20
51.410653
 30
0.0
 10
38.231187
 20
51.539345
 30
0.0
 10
38.408692
 20
51.718139
 30
0.0
 10
38.700568
 20
52.012359
 30
0.0
 10
39.123078
 20
52.438550
 30
0.0
 10
39.684920
 20
53.006154
 30
0.0
 10
40.357663
 20
53.685547
 30
0.0
 10
41.017395
 20
54.358152
 30
0.0
 10
41.584966
 20
54.953376
 30
0.0
 10
41.872628
 20
55.276990
 30
0.0
 10
41.990163
 20
55.409215
 30
0.0
 11
37.610587
 21
41.815214
 31
0.0
 11
37.582749
 21
42.091716
 31
0.0
 11
37.546108
 21
42.413768
 31
0.0
 11
37.475710
 21
42.912304
 31
0.0
 11
37.127829
 21
45.225905
 31
0.0
 11
36.776784
 21
47.587090
 31
0.0
 11
36.571888
 21
48.993069
 31
0.0
 11
36.562084
 21
49.229822
 31
0.0
 11
36.597455
 21
49.532146
 31
0.0
 11
36.700563
 21
49.828160
 31
0.0
 11
36.850705
 21
50.065066
 31
0.0
 11
37.023605
 21
50.273025
 31
0.0
 11
37.236448
 21
50.504605
 31
0.0
 11
37.375281
 21
50.655866
 31
0.0
 11
37.506749
 21
50.797963
 31
0.0
 11
37.625573
 21
50.925253
 31
0.0
 11
37.715441
 21
51.022625
 31
0.0
 11
37.788669
 21
51.100127
 31
0.0
 11
37.882920
 21
51.189836
 31
0.0
 11
37.860910
 21
51.170094
 31
0.0
 11
37.883927
 21
51.192030
 31
0.0
 11
37.922195
 21
51.229111
 31
0.0
 11
37.963197
 21
51.270127
 31
0.0
 11
38.013991
 21
51.321154
 31
0.0
 11
38.074124
 21
51.381556
 31
0.0
 11
38.220500
 21
51.528664
 31
0.0
 11
38.398956
 21
51.708354
 31
0.0
 11
38.606391
 21
51.917440
 31
0.0
 11
39.096211
 21
52.411565
 31
0.0
 11
39.666103
 21
52.987110
 31
0.0
 11
40.292076
 21
53.620177
 31
0.0
 11
41.108382
 21
54.455649
 31
0.0
 11
41.635691
 21
55.014245
 31
0.0
 11
41.990163
 21
55.409215
 31
0.0
  0
SPLINE
  5
21f
100
AcDbEntity
  8
Layer_1
 62
5
100
AcDbSpline
 70
0
 71
3
 72
40
 73
36
 74
34
 40
0.000000
 40
0.000000
 40
0.000000
 40
0.000000
 40
0.231920
 40
0.481185
 40
0.793155
 40
2.119582
 40
3.868412
 40
6.064031
 40
6.480334
 40
6.841457
 40
7.150090
 40
7.285869
 40
7.412792
 40
7.535331
 40
7.654548
 40
7.804106
 40
8.050485
 40
8.162134
 40
8.215052
 40
8.248867
 40
8.284341
 40
8.318265
 40
8.352517
 40
8.426489
 40
8.509227
 40
8.602197
 40
8.820838
 40
9.080545
 40
9.378439
 40
10.074900
 40
10.878360
 40
11.756068
 40
13.725056
 40
15.003053
 40
15.792270
 40
15.792270
 40
15.792270
 40
15.792270
 10
41.990163
 20
55.409215
 30
0.0
 10
41.914423
 20
55.424698
 30
0.0
 10
41.757279
 20
55.456822
 30
0.0
 10
41.498120
 20
55.509156
 30
0.0
 10
40.879509
 20
55.624306
 30
0.0
 10
39.766977
 20
55.817003
 30
0.0
 10
38.034460
 20
56.109113
 30
0.0
 10
36.599357
 20
56.340057
 30
0.0
 10
35.621760
 20
56.502804
 30
0.0
 10
35.266042
 20
56.570179
 30
0.0
 10
35.003497
 20
56.626810
 30
0.0
 10
34.818723
 20
56.672892
 30
0.0
 10
34.694639
 20
56.706234
 30
0.0
 10
34.578808
 20
56.747627
 30
0.0
 10
34.452175
 20
56.779500
 30
0.0
 10
34.295119
 20
56.853582
 30
0.0
 10
34.169340
 20
56.969446
 30
0.0
 10
34.072299
 20
57.066077
 30
0.0
 10
34.032333
 20
57.119137
 30
0.0
 10
34.013214
 20
57.155193
 30
0.0
 10
33.993309
 20
57.183309
 30
0.0
 10
33.974993
 20
57.212606
 30
0.0
 10
33.950042
 20
57.252887
 30
0.0
 10
33.917363
 20
57.307517
 30
0.0
 10
33.875403
 20
57.379392
 30
0.0
 10
33.810082
 20
57.493464
 30
0.0
 10
33.716953
 20
57.659583
 30
0.0
 10
33.592107
 20
57.886219
 30
0.0
 10
33.392084
 20
58.253280
 30
0.0
 10
33.108259
 20
58.781082
 30
0.0
 10
32.736566
 20
59.481064
 30
0.0
 10
32.172362
 20
60.559068
 30
0.0
 10
31.536321
 20
61.777970
 30
0.0
 10
30.913138
 20
62.970416
 30
0.0
 10
30.581545
 20
63.574472
 30
0.0
 10
30.454949
 20
63.805087
 30
0.0
 11
41.990163
 21
55.409215
 31
0.0
 11
41.762924
 21
55.455577
 31
0.0
 11
41.518501
 21
55.504467
 31
0.0
 11
41.211915
 21
55.562179
 31
0.0
 11
39.905574
 21
55.792132
 31
0.0
 11
38.181009
 21
56.082445
 31
0.0
 11
36.014300
 21
56.437576
 31
0.0
 11
35.603903
 21
56.507451
 31
0.0
 11
35.249163
 21
56.575044
 31
0.0
 11
34.947699
 21
56.641181
 31
0.0
 11
34.815951
 21
56.674020
 31
0.0
 11
34.693738
 21
56.708275
 31
0.0
 11
34.577179
 21
56.746086
 31
0.0
 11
34.462984
 21
56.780326
 31
0.0
 11
34.327861
 21
56.844430
 31
0.0
 11
34.137931
 21
57.001366
 31
0.0
 11
34.061057
 21
57.082336
 31
0.0
 11
34.029938
 21
57.125136
 31
0.0
 11
34.012873
 21
57.154330
 31
0.0
 11
33.993303
 21
57.183917
 31
0.0
 11
33.975071
 21
57.212526
 31
0.0
 11
33.957062
 21
57.241661
 31
0.0
 11
33.918971
 21
57.305072
 31
0.0
 11
33.877217
 21
57.376501
 31
0.0
 11
33.830972
 21
57.457154
 31
0.0
 11
33.723864
 21
57.647762
 31
0.0
 11
33.598410
 21
57.875159
 31
0.0
 11
33.455801
 21
58.136699
 31
0.0
 11
33.125650
 21
58.749935
 31
0.0
 11
32.748849
 21
59.459562
 31
0.0
 11
32.341140
 21
60.236829
 31
0.0
 11
31.429535
 21
61.982076
 31
0.0
 11
30.832925
 21
63.112268
 31
0.0
 11
30.454949
 21
63.805087
 31
0.0
  0
SPLINE
  5
220
100
AcDbEntity
  8
Layer_1
 62
5
100
AcDbSpline
 70
0
 71
3
 72
34
 73
30
 74
28
 40
0.000000
 40
0.000000
 40
0.000000
 40
0.000000
 40
0.355069
 40
0.834988
 40
1.584209
 40
3.509485
 40
5.024210
 40
6.166073
 40
6.609102
 40
6.976112
 40
7.276128
 40
7.404109
 40
7.522455
 40
7.637233
 40
7.751571
 40
7.906481
 40
8.188492
 40
8.510687
 40
8.899266
 40
9.507682
 40
10.445919
 40
11.770553
 40
13.552004
 40
14.351165
 40
15.081591
 40
15.711550
 40
15.753102
 40
15.788215
 40
15.827797
 40
15.827797
 40
15.827797
 40
15.827797
 10
30.454949
 20
63.805087
 30
0.0
 10
30.396939
 20
63.701920
 30
0.0
 10
30.260521
 20
63.459309
 30
0.0
 10
30.010923
 20
62.993907
 30
0.0
 10
29.528948
 20
62.059394
 30
0.0
 10
28.890861
 20
60.817301
 30
0.0
 10
28.183496
 20
59.463683
 30
0.0
 10
27.696294
 20
58.552517
 30
0.0
 10
27.380773
 20
57.983482
 30
0.0
 10
27.196468
 20
57.662627
 30
0.0
 10
27.059306
 20
57.435798
 30
0.0
 10
26.960226
 20
57.283017
 30
0.0
 10
26.893523
 20
57.182733
 30
0.0
 10
26.819364
 20
57.093380
 30
0.0
 10
26.756292
 20
56.981389
 30
0.0
 10
26.623296
 20
56.849814
 30
0.0
 10
26.388998
 20
56.744986
 30
0.0
 10
26.075176
 20
56.640585
 30
0.0
 10
25.640696
 20
56.565362
 30
0.0
 10
25.005490
 20
56.456332
 30
0.0
 10
24.062141
 20
56.293014
 30
0.0
 10
22.732328
 20
56.072399
 30
0.0
 10
21.447743
 20
55.861471
 30
0.0
 10
20.358993
 20
55.680549
 30
0.0
 10
19.649721
 20
55.557587
 30
0.0
 10
19.189561
 20
55.476104
 30
0.0
 10
18.957992
 20
55.433021
 30
0.0
 10
18.919967
 20
55.425561
 30
0.0
 10
18.895497
 20
55.420963
 30
0.0
 10
18.882529
 20
55.418526
 30
0.0
 11
30.454949
 21
63.805087
 31
0.0
 11
30.281798
 21
63.495098
 31
0.0
 11
30.054245
 21
63.072557
 31
0.0
 11
29.708742
 21
62.407756
 31
0.0
 11
28.826100
 21
60.696724
 31
0.0
 11
28.123516
 21
59.354797
 31
0.0
 11
27.582775
 21
58.349088
 31
0.0
 11
27.367422
 21
57.961923
 31
0.0
 11
27.184033
 21
57.644015
 31
0.0
 11
27.027770
 21
57.387907
 31
0.0
 11
26.958254
 21
57.280451
 31
0.0
 11
26.891139
 21
57.182977
 31
0.0
 11
26.822098
 21
57.091285
 31
0.0
 11
26.759216
 21
56.995791
 31
0.0
 11
26.650259
 21
56.885675
 31
0.0
 11
26.400419
 21
56.754870
 31
0.0
 11
26.094225
 21
56.654596
 31
0.0
 11
25.713270
 21
56.578001
 31
0.0
 11
25.113673
 21
56.474785
 31
0.0
 11
24.188987
 21
56.315899
 31
0.0
 11
22.882461
 21
56.097622
 31
0.0
 11
21.124770
 21
55.807641
 31
0.0
 11
20.336554
 21
55.675834
 31
0.0
 11
19.616804
 21
55.551403
 31
0.0
 11
18.996734
 21
55.440222
 31
0.0
 11
18.955895
 21
55.432557
 31
0.0
 11
18.921421
 21
55.425891
 31
0.0
 11
18.882529
 21
55.418526
 31
0.0
  0
LWPOLYLINE
  5
221
100
AcDbEntity
  8
Layer_1
 62
5
100
AcDbPolyline
 90
3
 70
0
 10
26.319803
 20
43.270931
 30
0.0
 10
30.459085
 20
45.340054
 30
0.0
 10
34.624722
 20
43.267314
 30
0.0
  0
SPLINE
  5
222
100
AcDbEntity
  8
Layer_1
 62
5
100
AcDbSpline
 70
0
 71
3
 72
46
 73
42
 74
40
 40
0.000000
 40
0.000000
 40
0.000000
 40
0.000000
 40
0.332482
 40
0.755427
 40
1.359372
 40
3.236288
 40
4.761556
 40
5.947359
 40
6.416746
 40
6.807110
 40
7.121977
 40
7.252277
 40
7.366793
 40
7.468422
 40
7.515387
 40
7.562045
 40
7.611307
 40
7.662554
 40
7.736784
 40
7.872222
 40
8.051022
 40
8.138147
 40
8.194493
 40
8.250753
 40
8.303873
 40
8.356809
 40
8.469187
 40
8.591948
 40
8.726397
 40
9.030104
 40
9.370664
 40
9.736522
 40
10.513502
 40
11.283668
 40
11.879676
 40
12.559706
 40
13.540447
 40
14.612068
 40
15.080428
 40
15.510509
 40
15.893576
 40
15.893576
 40
15.893576
 40
15.893576
 10
18.882529
 20
55.418526
 30
0.0
 10
18.957601
 20
55.336995
 30
0.0
 10
19.128169
 20
55.151750
 30
0.0
 10
19.440793
 20
54.823707
 30
0.0
 10
20.119398
 20
54.133479
 30
0.0
 10
21.058218
 20
53.183829
 30
0.0
 10
22.128117
 20
52.091043
 30
0.0
 10
22.866342
 20
51.330143
 30
0.0
 10
23.337488
 20
50.837246
 30
0.0
 10
23.606120
 20
50.552390
 30
0.0
 10
23.795144
 20
50.347835
 30
0.0
 10
23.920088
 20
50.209289
 30
0.0
 10
23.996431
 20
50.122638
 30
0.0
 10
24.053200
 20
50.055773
 30
0.0
 10
24.094339
 20
50.005342
 30
0.0
 10
24.124041
 20
49.968094
 30
0.0
 10
24.152289
 20
49.927949
 30
0.0
 10
24.190058
 20
49.883518
 30
0.0
 10
24.235843
 20
49.809023
 30
0.0
 10
24.283283
 20
49.688299
 30
0.0
 10
24.329290
 20
49.562111
 30
0.0
 10
24.342007
 20
49.454292
 30
0.0
 10
24.333683
 20
49.387956
 30
0.0
 10
24.337053
 20
49.332669
 30
0.0
 10
24.335385
 20
49.278576
 30
0.0
 10
24.332702
 20
49.205818
 30
0.0
 10
24.327109
 20
49.109942
 30
0.0
 10
24.317324
 20
48.987130
 30
0.0
 10
24.299827
 20
48.800973
 30
0.0
 10
24.271381
 20
48.542950
 30
0.0
 10
24.229104
 20
48.208889
 30
0.0
 10
24.158452
 20
47.719484
 30
0.0
 10
24.062960
 20
47.089009
 30
0.0
 10
23.957910
 20
46.382389
 30
0.0
 10
23.858082
 20
45.707666
 30
0.0
 10
23.746689
 20
44.963699
 30
0.0
 10
23.610356
 20
44.063163
 30
0.0
 10
23.483388
 20
43.232570
 30
0.0
 10
23.384837
 20
42.583320
 30
0.0
 10
23.322227
 20
42.160762
 30
0.0
 10
23.283434
 20
41.892503
 30
0.0
 10
23.265159
 20
41.766129
 30
0.0
 11
18.882529
 21
55.418526
 31
0.0
 11
19.108356
 21
55.174504
 31
0.0
 11
19.399815
 21
54.868017
 31
0.0
 11
19.822007
 21
54.436157
 31
0.0
 11
21.139434
 21
53.099296
 31
0.0
 11
22.206349
 21
52.009280
 31
0.0
 11
23.031114
 21
51.157287
 31
0.0
 11
23.355272
 21
50.817808
 31
0.0
 11
23.622853
 21
50.533582
 31
0.0
 11
23.836233
 21
50.302042
 31
0.0
 11
23.923412
 21
50.205203
 31
0.0
 11
23.998992
 21
50.119171
 31
0.0
 11
24.064643
 21
50.041592
 31
0.0
 11
24.094337
 21
50.005206
 31
0.0
 11
24.123138
 21
49.968498
 31
0.0
 11
24.152492
 21
49.928938
 31
0.0
 11
24.184239
 21
49.888707
 31
0.0
 11
24.223700
 21
49.825835
 31
0.0
 11
24.277550
 21
49.701563
 31
0.0
 11
24.330762
 21
49.530865
 31
0.0
 11
24.338929
 21
49.444123
 31
0.0
 11
24.335428
 21
49.387886
 31
0.0
 11
24.336231
 21
49.331632
 31
0.0
 11
24.335330
 21
49.278520
 31
0.0
 11
24.333311
 21
49.225622
 31
0.0
 11
24.326931
 21
49.113425
 31
0.0
 11
24.317357
 21
48.991038
 31
0.0
 11
24.304887
 21
48.857169
 31
0.0
 11
24.271965
 21
48.555251
 31
0.0
 11
24.229215
 21
48.217386
 31
0.0
 11
24.177765
 21
47.855162
 31
0.0
 11
24.062972
 21
47.086709
 31
0.0
 11
23.949474
 21
46.324953
 31
0.0
 11
23.862022
 21
45.735395
 31
0.0
 11
23.761383
 21
45.062853
 31
0.0
 11
23.614668
 21
44.093149
 31
0.0
 11
23.453259
 21
43.033753
 31
0.0
 11
23.383207
 21
42.570661
 31
0.0
 11
23.320192
 21
42.145222
 31
0.0
 11
23.265159
 21
41.766129
 31
0.0
  0
LWPOLYLINE
  5
223
100
AcDbEntity
  8
Layer_1
 62
5
100
AcDbPolyline
 90
2
 70
0
 10
23.265159
 20
41.766129
 30
0.0
 10
23.265209
 20
41.766113
 30
0.0
  0
SPLINE
  5
224
100
AcDbEntity
  8
Layer_1
 62
5
100
AcDbSpline
 70
0
 71
3
 72
37
 73
33
 74
31
 40
0.000000
 40
0.000000
 40
0.000000
 40
0.000000
 40
0.361575
 40
0.753559
 40
1.221425
 40
1.572027
 40
1.963700
 40
2.375287
 40
2.821469
 40
3.364581
 40
4.056770
 40
4.782948
 40
5.370225
 40
5.861619
 40
6.310930
 40
6.737155
 40
7.133754
 40
7.768253
 40
8.342686
 40
8.930169
 40
9.370308
 40
9.815307
 40
10.248017
 40
10.693190
 40
11.228229
 40
11.893886
 40
13.191755
 40
14.176462
 40
15.029042
 40
15.510041
 40
15.909144
 40
16.274195
 40
16.274195
 40
16.274195
 40
16.274195
 10
28.396160
 20
49.989900
 30
0.0
 10
28.275214
 20
49.988193
 30
0.0
 10
28.023150
 20
49.984636
 30
0.0
 10
27.625252
 20
50.109820
 30
0.0
 10
27.310390
 20
50.379039
 30
0.0
 10
27.087089
 20
50.717177
 30
0.0
 10
26.931136
 20
51.071014
 30
0.0
 10
26.834232
 20
51.478285
 30
0.0
 10
26.796428
 20
51.944525
 30
0.0
 10
26.780771
 20
52.504777
 30
0.0
 10
26.781341
 20
53.158666
 30
0.0
 10
26.784642
 20
53.827259
 30
0.0
 10
26.809103
 20
54.428488
 30
0.0
 10
26.860297
 20
54.936003
 30
0.0
 10
26.967608
 20
55.380838
 30
0.0
 10
27.140325
 20
55.771112
 30
0.0
 10
27.418228
 20
56.172062
 30
0.0
 10
27.872355
 20
56.502009
 30
0.0
 10
28.490798
 20
56.553262
 30
0.0
 10
29.013046
 20
56.386118
 30
0.0
 10
29.398639
 20
56.065514
 30
0.0
 10
29.619509
 20
55.677607
 30
0.0
 10
29.744730
 20
55.252328
 30
0.0
 10
29.801933
 20
54.783829
 30
0.0
 10
29.838214
 20
54.236454
 30
0.0
 10
29.861510
 20
53.403661
 30
0.0
 10
29.894284
 20
52.422329
 30
0.0
 10
29.832307
 20
51.373098
 30
0.0
 10
29.556299
 20
50.632494
 30
0.0
 10
29.165377
 20
50.187744
 30
0.0
 10
28.772503
 20
50.019772
 30
0.0
 10
28.517825
 20
49.999557
 30
0.0
 10
28.396160
 20
49.989900
 30
0.0
 11
28.396160
 21
49.989900
 31
0.0
 11
28.034836
 21
50.003380
 31
0.0
 11
27.661702
 21
50.123472
 31
0.0
 11
27.300105
 21
50.420367
 31
0.0
 11
27.102843
 21
50.710211
 31
0.0
 11
26.944828
 21
51.068595
 31
0.0
 11
26.846903
 21
51.468363
 31
0.0
 11
26.802600
 21
51.912339
 31
0.0
 11
26.784452
 21
52.455148
 31
0.0
 11
26.781789
 21
53.147332
 31
0.0
 11
26.789651
 21
53.873467
 31
0.0
 11
26.816782
 21
54.460118
 31
0.0
 11
26.873258
 21
54.948255
 31
0.0
 11
26.982624
 21
55.384052
 31
0.0
 11
27.156474
 21
55.773211
 31
0.0
 11
27.386920
 21
56.095989
 31
0.0
 11
27.909796
 21
56.455418
 31
0.0
 11
28.481114
 21
56.515158
 31
0.0
 11
29.039534
 21
56.332666
 31
0.0
 11
29.376741
 21
56.049799
 31
0.0
 11
29.605112
 21
55.667868
 31
0.0
 11
29.731996
 21
55.254180
 31
0.0
 11
29.794566
 21
54.813426
 31
0.0
 11
29.832302
 21
54.279719
 31
0.0
 11
29.856020
 21
53.614485
 31
0.0
 11
29.874973
 21
52.316754
 31
0.0
 11
29.777295
 21
51.336904
 31
0.0
 11
29.453978
 21
50.548007
 31
0.0
 11
29.123266
 21
50.198737
 31
0.0
 11
28.758057
 21
50.037783
 31
0.0
 11
28.396160
 21
49.989900
 31
0.0
  0
LWPOLYLINE
  5
225
100
AcDbEntity
  8
Layer_1
 62
5
100
AcDbPolyline
 90
2
 70
0
 10
28.396160
 20
49.989900
 30
0.0
 10
28.396160
 20
49.989900
 30
0.0
  0
SPLINE
  5
226
100
AcDbEntity
  8
Layer_1
 62
5
100
AcDbSpline
 70
0
 71
3
 72
46
 73
42
 74
40
 40
0.000000
 40
0.000000
 40
0.000000
 40
0.000000
 40
0.411332
 40
0.824884
 40
1.255179
 40
1.584608
 40
1.879263
 40
2.194603
 40
2.460190
 40
2.728752
 40
3.032309
 40
3.379584
 40
3.750641
 40
4.133111
 40
4.513942
 40
4.880166
 40
5.219553
 40
5.506755
 40
5.762054
 40
6.044604
 40
6.550454
 40
7.046834
 40
7.566611
 40
8.120435
 40
8.689904
 40
9.236523
 40
9.483744
 40
9.801766
 40
10.121778
 40
10.442132
 40
10.839266
 40
11.370684
 40
12.138627
 40
12.818103
 40
13.411033
 40
13.916878
 40
14.376874
 40
14.884346
 40
15.305815
 40
15.720631
 40
16.133534
 40
16.133534
 40
16.133534
 40
16.133534
 10
32.666702
 20
50.018322
 30
0.0
 10
32.528815
 20
50.023479
 30
0.0
 10
32.252296
 20
50.033822
 30
0.0
 10
31.858174
 20
50.204264
 30
0.0
 10
31.568157
 20
50.475144
 30
0.0
 10
31.370265
 20
50.767612
 30
0.0
 10
31.240644
 20
51.054409
 30
0.0
 10
31.168219
 20
51.338156
 30
0.0
 10
31.122836
 20
51.617979
 30
0.0
 10
31.106101
 20
51.896999
 30
0.0
 10
31.097080
 20
52.203277
 30
0.0
 10
31.089189
 20
52.543845
 30
0.0
 10
31.087788
 20
52.910789
 30
0.0
 10
31.090804
 20
53.288905
 30
0.0
 10
31.098551
 20
53.665340
 30
0.0
 10
31.109864
 20
54.027326
 30
0.0
 10
31.128355
 20
54.357802
 30
0.0
 10
31.142358
 20
54.651305
 30
0.0
 10
31.165339
 20
54.925911
 30
0.0
 10
31.245227
 20
55.265345
 30
0.0
 10
31.394803
 20
55.669584
 30
0.0
 10
31.683098
 20
56.094333
 30
0.0
 10
32.110523
 20
56.420086
 30
0.0
 10
32.669960
 20
56.526519
 30
0.0
 10
33.219938
 20
56.388374
 30
0.0
 10
33.617022
 20
56.136495
 30
0.0
 10
33.829874
 20
55.829796
 30
0.0
 10
33.965222
 20
55.566769
 30
0.0
 10
34.059772
 20
55.259028
 30
0.0
 10
34.092832
 20
54.913821
 30
0.0
 10
34.119662
 20
54.498655
 30
0.0
 10
34.145883
 20
53.933624
 30
0.0
 10
34.170374
 20
53.274509
 30
0.0
 10
34.172128
 20
52.594026
 30
0.0
 10
34.136958
 20
52.002092
 30
0.0
 10
34.101612
 20
51.483899
 30
0.0
 10
34.006470
 20
50.998190
 30
0.0
 10
33.779971
 20
50.584022
 30
0.0
 10
33.457711
 20
50.265811
 30
0.0
 10
33.079363
 20
50.070629
 30
0.0
 10
32.804042
 20
50.035731
 30
0.0
 10
32.666699
 20
50.018322
 30
0.0
 11
32.666702
 21
50.018322
 31
0.0
 11
32.257394
 21
50.059075
 31
0.0
 11
31.876972
 21
50.221261
 31
0.0
 11
31.557725
 21
50.509767
 31
0.0
 11
31.372382
 21
50.782111
 31
0.0
 11
31.251363
 21
51.050767
 31
0.0
 11
31.169118
 21
51.355192
 31
0.0
 11
31.127412
 21
51.617484
 31
0.0
 11
31.108082
 21
51.885350
 31
0.0
 11
31.097805
 21
52.188733
 31
0.0
 11
31.090455
 21
52.535931
 31
0.0
 11
31.088521
 21
52.906982
 31
0.0
 11
31.091613
 21
53.289440
 31
0.0
 11
31.099342
 21
53.670192
 31
0.0
 11
31.111705
 21
54.036207
 31
0.0
 11
31.128822
 21
54.375163
 31
0.0
 11
31.144685
 21
54.661926
 31
0.0
 11
31.170481
 21
54.915919
 31
0.0
 11
31.232173
 21
55.191651
 31
0.0
 11
31.414542
 21
55.663483
 31
0.0
 11
31.698751
 21
56.070447
 31
0.0
 11
32.118424
 21
56.377109
 31
0.0
 11
32.661592
 21
56.485229
 31
0.0
 11
33.216399
 21
56.356838
 31
0.0
 11
33.666652
 21
56.046895
 31
0.0
 11
33.812152
 21
55.847025
 31
0.0
 11
33.956320
 21
55.563558
 31
0.0
 11
34.049057
 21
55.257278
 31
0.0
 11
34.088900
 21
54.939411
 31
0.0
 11
34.115754
 21
54.543186
 31
0.0
 11
34.141558
 21
54.012395
 31
0.0
 11
34.166777
 21
53.244867
 31
0.0
 11
34.164714
 21
52.565393
 31
0.0
 11
34.134309
 21
51.973243
 31
0.0
 11
34.089472
 21
51.469390
 31
0.0
 11
33.987994
 21
51.020727
 31
0.0
 11
33.744670
 21
50.575394
 31
0.0
 11
33.442722
 21
50.281347
 31
0.0
 11
33.072599
 21
50.094047
 31
0.0
 11
32.666699
 21
50.018322
 31
0.0
  0
LWPOLYLINE
  5
227
100
AcDbEntity
  8
Layer_1
 62
5
100
AcDbPolyline
 90
2
 70
0
 10
32.666699
 20
50.018322
 30
0.0
 10
32.666702
 20
50.018322
 30
0.0
  0
SPLINE
  5
228
100
AcDbEntity
  8
Layer_1
 62
5
100
AcDbSpline
 70
0
 71
3
 72
19
 73
15
 74
13
 40
0.000000
 40
0.000000
 40
0.000000
 40
0.000000
 40
8.780447
 40
17.306995
 40
26.087441
 40
34.867758
 40
43.394132
 40
52.174543
 40
60.954825
 40
69.481021
 40
78.261303
 40
87.041714
 40
95.568086
 40
104.348403
 40
104.348403
 40
104.348403
 40
104.348403
 10
30.462186
 20
68.729324
 30
0.0
 10
27.502135
 20
68.266361
 30
0.0
 10
21.667629
 20
67.353823
 30
0.0
 10
15.245837
 20
60.666954
 30
0.0
 10
12.858736
 20
51.944826
 30
0.0
 10
15.245805
 20
43.130859
 30
0.0
 10
21.667708
 20
36.714501
 30
0.0
 10
30.462136
 20
34.325865
 30
0.0
 10
39.256540
 20
36.714469
 30
0.0
 10
45.678206
 20
43.130938
 30
0.0
 10
48.065043
 20
51.944826
 30
0.0
 10
45.678174
 20
60.666877
 30
0.0
 10
39.256617
 20
67.353847
 30
0.0
 10
33.422199
 20
68.266369
 30
0.0
 10
30.462186
 20
68.729324
 30
0.0
 11
30.462186
 21
68.729324
 31
0.0
 11
21.987203
 21
66.433479
 31
0.0
 11
15.958021
 21
60.404299
 31
0.0
 11
13.662176
 21
51.929317
 31
0.0
 11
15.958021
 21
43.454469
 31
0.0
 11
21.987203
 21
37.425537
 31
0.0
 11
30.462186
 21
35.129826
 31
0.0
 11
38.937034
 21
37.425537
 31
0.0
 11
44.965966
 21
43.454469
 31
0.0
 11
47.261677
 21
51.929317
 31
0.0
 11
44.965966
 21
60.404299
 31
0.0
 11
38.937034
 21
66.433479
 31
0.0
 11
30.462186
 21
68.729324
 31
0.0
  0
LWPOLYLINE
  5
229
100
AcDbEntity
  8
Layer_1
 62
5
100
AcDbPolyline
 90
2
 70
0
 10
30.462186
 20
68.729324
 30
0.0
 10
30.462186
 20
68.729324
 30
0.0
  0
SPLINE
  5
22a
100
AcDbEntity
  8
Layer_1
 62
5
100
AcDbSpline
 70
0
 71
3
 72
19
 73
15
 74
13
 40
0.000000
 40
0.000000
 40
0.000000
 40
0.000000
 40
7.946421
 40
15.650792
 40
23.597213
 40
31.543505
 40
39.247700
 40
47.194085
 40
55.140473
 40
62.844668
 40
70.790959
 40
78.737381
 40
86.441753
 40
94.388175
 40
94.388175
 40
94.388175
 40
94.388175
 10
30.462186
 20
67.120639
 30
0.0
 10
33.141640
 20
66.704295
 30
0.0
 10
38.418932
 20
65.884290
 30
0.0
 10
44.230280
 20
59.834908
 30
0.0
 10
46.376116
 20
51.943271
 30
0.0
 10
44.230312
 20
43.969082
 30
0.0
 10
38.418854
 20
38.162633
 30
0.0
 10
30.462185
 20
36.015435
 30
0.0
 10
22.505516
 20
38.162633
 30
0.0
 10
16.694057
 20
43.969081
 30
0.0
 10
14.548253
 20
51.943271
 30
0.0
 10
16.694088
 20
59.834908
 30
0.0
 10
22.505437
 20
65.884290
 30
0.0
 10
27.782731
 20
66.704296
 30
0.0
 10
30.462186
 20
67.120639
 30
0.0
 11
30.462186
 21
67.120639
 31
0.0
 11
38.133728
 21
65.048674
 31
0.0
 11
43.581541
 21
59.600860
 31
0.0
 11
45.653505
 21
51.929317
 31
0.0
 11
43.581541
 21
44.257909
 31
0.0
 11
38.133728
 21
38.810344
 31
0.0
 11
30.462186
 21
36.738514
 31
0.0
 11
22.790641
 21
38.810344
 31
0.0
 11
17.342828
 21
44.257909
 31
0.0
 11
15.270864
 21
51.929317
 31
0.0
 11
17.342828
 21
59.600860
 31
0.0
 11
22.790641
 21
65.048674
 31
0.0
 11
30.462186
 21
67.120639
 31
0.0
  0
LWPOLYLINE
  5
22b
100
AcDbEntity
  8
Layer_1
 62
5
100
AcDbPolyline
 90
2
 70
0
 10
30.462186
 20
67.120639
 30
0.0
 10
30.462186
 20
67.120639
 30
0.0
  0
SPLINE
  5
22c
100
AcDbEntity
  8
Layer_1
 62
5
100
AcDbSpline
 70
0
 71
3
 72
22
 73
18
 74
16
 40
0.000000
 40
0.000000
 40
0.000000
 40
0.000000
 40
0.138735
 40
0.281543
 40
0.430155
 40
1.790254
 40
3.052237
 40
4.433875
 40
9.178330
 40
14.099084
 40
19.043953
 40
20.584873
 40
22.057634
 40
23.452473
 40
24.937619
 40
26.518196
 40
28.227408
 40
28.227408
 40
28.227408
 40
28.227408
 10
30.496327
 20
103.106458
 30
0.0
 10
30.450095
 20
103.105324
 30
0.0
 10
30.356276
 20
103.103023
 30
0.0
 10
30.212977
 20
103.097891
 30
0.0
 10
29.662790
 20
103.080897
 30
0.0
 10
28.738531
 20
103.020320
 30
0.0
 10
27.431771
 20
102.724278
 30
0.0
 10
25.122099
 20
101.856463
 30
0.0
 10
22.031288
 20
99.680714
 30
0.0
 10
19.207442
 20
95.621498
 30
0.0
 10
18.068247
 20
91.898857
 30
0.0
 10
18.003500
 20
89.236194
 30
0.0
 10
18.239931
 20
87.777256
 30
0.0
 10
18.741801
 20
86.403338
 30
0.0
 10
19.589620
 20
85.164976
 30
0.0
 10
20.764046
 20
84.067295
 30
0.0
 10
21.723170
 20
83.529076
 30
0.0
 10
22.221483
 20
83.249443
 30
0.0
 11
30.496327
 21
103.106458
 31
0.0
 11
30.357640
 21
103.102799
 31
0.0
 11
30.214910
 21
103.098075
 31
0.0
 11
30.066379
 21
103.093193
 31
0.0
 11
28.710879
 21
102.981434
 31
0.0
 11
27.479117
 21
102.706908
 31
0.0
 11
26.183618
 21
102.226693
 31
0.0
 11
22.282094
 21
99.527071
 31
0.0
 11
19.441361
 21
95.509104
 31
0.0
 11
18.074139
 21
90.757006
 31
0.0
 11
18.051610
 21
89.216251
 31
0.0
 11
18.290756
 21
87.763036
 31
0.0
 11
18.781899
 21
86.457527
 31
0.0
 11
19.611689
 21
85.225817
 31
0.0
 11
20.767027
 21
84.147199
 31
0.0
 11
22.221483
 21
83.249443
 31
0.0
  0
LWPOLYLINE
  5
22d
100
AcDbEntity
  8
Layer_1
 62
5
100
AcDbPolyline
 90
3
 70
0
 10
22.221483
 20
83.249443
 30
0.0
 10
22.796952
 20
82.965027
 30
0.0
 10
22.863097
 20
82.647527
 30
0.0
  0
SPLINE
  5
22e
100
AcDbEntity
  8
Layer_1
 62
5
100
AcDbSpline
 70
0
 71
3
 72
49
 73
45
 74
43
 40
0.000000
 40
0.000000
 40
0.000000
 40
0.000000
 40
0.512524
 40
1.058498
 40
1.594213
 40
2.269871
 40
3.069303
 40
3.770963
 40
5.103480
 40
6.709137
 40
8.526553
 40
9.503988
 40
10.365162
 40
11.214036
 40
13.846709
 40
15.917180
 40
17.745715
 40
18.191147
 40
18.658219
 40
19.200790
 40
19.360627
 40
19.542632
 40
19.879859
 40
22.499049
 40
24.924955
 40
27.380623
 40
28.407706
 40
29.584310
 40
30.633438
 40
32.403911
 40
34.260660
 40
36.067387
 40
37.117538
 40
38.030037
 40
39.002199
 40
41.342158
 40
43.579929
 40
45.769230
 40
46.482356
 40
47.152800
 40
47.861500
 40
47.989816
 40
48.122447
 40
48.258396
 40
48.258396
 40
48.258396
 40
48.258396
 10
22.863097
 20
82.647527
 30
0.0
 10
22.903591
 20
82.481368
 30
0.0
 10
22.987221
 20
82.138207
 30
0.0
 10
23.175765
 20
81.640866
 30
0.0
 10
23.407894
 20
81.100769
 30
0.0
 10
23.810016
 20
80.557908
 30
0.0
 10
24.314685
 20
80.035729
 30
0.0
 10
25.060447
 20
79.446004
 30
0.0
 10
26.207709
 20
79.002749
 30
0.0
 10
27.747597
 20
78.627042
 30
0.0
 10
29.211143
 20
78.472841
 30
0.0
 10
30.428326
 20
78.418056
 30
0.0
 10
31.324681
 20
78.412036
 30
0.0
 10
32.770427
 20
78.483638
 30
0.0
 10
34.614800
 20
78.742858
 30
0.0
 10
36.650470
 20
79.650300
 30
0.0
 10
37.607569
 20
80.817201
 30
0.0
 10
37.962952
 20
81.658818
 30
0.0
 10
38.102811
 20
82.126663
 30
0.0
 10
38.168727
 20
82.504519
 30
0.0
 10
38.229976
 20
82.803167
 30
0.0
 10
38.415949
 20
82.951237
 30
0.0
 10
39.331813
 20
83.431642
 30
0.0
 10
40.826042
 20
84.499768
 30
0.0
 10
42.302780
 20
86.568027
 30
0.0
 10
42.854421
 20
88.506064
 30
0.0
 10
42.907194
 20
90.060302
 30
0.0
 10
42.859231
 20
91.144404
 30
0.0
 10
42.691286
 20
92.468696
 30
0.0
 10
42.238774
 20
93.967885
 30
0.0
 10
41.540334
 20
95.642141
 30
0.0
 10
40.751093
 20
97.006061
 30
0.0
 10
40.028844
 20
98.034891
 30
0.0
 10
39.414120
 20
98.797205
 30
0.0
 10
38.443981
 20
99.818938
 30
0.0
 10
37.038141
 20
101.034994
 30
0.0
 10
35.077874
 20
102.178986
 30
0.0
 10
33.446694
 20
102.740111
 30
0.0
 10
32.281122
 20
102.987285
 30
0.0
 10
31.589135
 20
103.080642
 30
0.0
 10
31.086641
 20
103.104357
 30
0.0
 10
30.763460
 20
103.108217
 30
0.0
 10
30.631155
 20
103.108567
 30
0.0
 10
30.541638
 20
103.107152
 30
0.0
 10
30.496327
 20
103.106437
 30
0.0
 11
22.863097
 21
82.647527
 31
0.0
 11
22.994321
 21
82.152087
 31
0.0
 11
23.180788
 21
81.638941
 31
0.0
 11
23.405493
 21
81.152631
 31
0.0
 11
23.795125
 21
80.600634
 31
0.0
 11
24.350696
 21
80.025801
 31
0.0
 11
24.907004
 21
79.598193
 31
0.0
 11
26.126819
 21
79.061862
 31
0.0
 11
27.685641
 21
78.676882
 31
0.0
 11
29.490910
 21
78.467110
 31
0.0
 11
30.467346
 21
78.422937
 31
0.0
 11
31.328516
 21
78.420131
 31
0.0
 11
32.176431
 21
78.460478
 31
0.0
 11
34.771297
 21
78.905040
 31
0.0
 11
36.625428
 21
79.826477
 31
0.0
 11
37.778983
 21
81.245228
 31
0.0
 11
37.952855
 21
81.655323
 31
0.0
 11
38.086964
 21
82.102727
 31
0.0
 11
38.195702
 21
82.634291
 31
0.0
 11
38.243733
 21
82.786741
 31
0.0
 11
38.374585
 21
82.913245
 31
0.0
 11
38.665337
 21
83.084082
 31
0.0
 11
40.769914
 21
84.643221
 31
0.0
 11
42.172125
 21
86.622823
 31
0.0
 11
42.845754
 21
88.984291
 31
0.0
 11
42.893020
 21
90.010285
 31
0.0
 11
42.840383
 21
91.185712
 31
0.0
 11
42.700233
 21
92.225436
 31
0.0
 11
42.219670
 21
93.929442
 31
0.0
 11
41.497293
 21
95.639905
 31
0.0
 11
40.596795
 21
97.206228
 31
0.0
 11
39.992439
 21
98.065048
 31
0.0
 11
39.417701
 21
98.773800
 31
0.0
 11
38.751327
 21
99.481645
 31
0.0
 11
36.968754
 21
100.997508
 31
0.0
 11
35.032547
 21
102.119437
 31
0.0
 11
32.963566
 21
102.835228
 31
0.0
 11
32.265542
 21
102.981210
 31
0.0
 11
31.600939
 21
103.069520
 31
0.0
 11
30.893202
 21
103.106437
 31
0.0
 11
30.764895
 21
103.108005
 31
0.0
 11
30.632264
 21
103.108161
 31
0.0
 11
30.496327
 21
103.106437
 31
0.0
  0
LWPOLYLINE
  5
22f
100
AcDbEntity
  8
Layer_1
 62
5
100
AcDbPolyline
 90
2
 70
0
 10
30.496327
 20
103.106437
 30
0.0
 10
30.496327
 20
103.106458
 30
0.0
  0
SPLINE
  5
230
100
AcDbEntity
  8
Layer_1
 62
5
100
AcDbSpline
 70
0
 71
3
 72
34
 73
30
 74
28
 40
0.000000
 40
0.000000
 40
0.000000
 40
0.000000
 40
0.437346
 40
0.833805
 40
1.149227
 40
3.098591
 40
5.022877
 40
6.931331
 40
8.557387
 40
10.156994
 40
11.774286
 40
13.690996
 40
15.591930
 40
17.519309
 40
19.503096
 40
21.461453
 40
23.451816
 40
24.933002
 40
26.373761
 40
27.853294
 40
28.591677
 40
29.258204
 40
29.983761
 40
31.997718
 40
34.022372
 40
36.107347
 40
36.405080
 40
36.792948
 40
37.228072
 40
37.228072
 40
37.228072
 40
37.228072
 10
30.516153
 20
102.332541
 30
0.0
 10
30.661888
 20
102.328740
 30
0.0
 10
30.939735
 20
102.321493
 30
0.0
 10
31.322095
 20
102.293481
 30
0.0
 10
32.200244
 20
102.163739
 30
0.0
 10
33.524794
 20
101.629491
 30
0.0
 10
35.052429
 20
100.412292
 30
0.0
 10
36.054404
 20
98.849702
 30
0.0
 10
36.498640
 20
97.174368
 30
0.0
 10
36.470765
 20
95.539142
 30
0.0
 10
35.958673
 20
93.883164
 30
0.0
 10
34.915176
 20
92.362369
 30
0.0
 10
33.364250
 20
91.185359
 30
0.0
 10
31.501650
 20
90.542745
 30
0.0
 10
29.509401
 20
90.525390
 30
0.0
 10
27.598210
 20
91.157460
 30
0.0
 10
26.130386
 20
92.272712
 30
0.0
 10
25.140008
 20
93.596162
 30
0.0
 10
24.584707
 20
94.974110
 30
0.0
 10
24.448863
 20
96.198529
 30
0.0
 10
24.485201
 20
97.160914
 30
0.0
 10
24.613313
 20
97.862224
 30
0.0
 10
24.968779
 20
98.942042
 30
0.0
 10
25.791687
 20
100.342985
 30
0.0
 10
27.407643
 20
101.641369
 30
0.0
 10
28.806363
 20
102.200401
 30
0.0
 10
29.723182
 20
102.317814
 30
0.0
 10
30.096798
 20
102.333482
 30
0.0
 10
30.371117
 20
102.332866
 30
0.0
 10
30.516153
 20
102.332541
 30
0.0
 11
30.516153
 21
102.332541
 31
0.0
 11
30.953242
 21
102.317540
 31
0.0
 11
31.348453
 21
102.286123
 31
0.0
 11
31.660476
 21
102.239937
 31
0.0
 11
33.481720
 21
101.544892
 31
0.0
 11
34.978696
 21
100.335785
 31
0.0
 11
36.006257
 21
98.727582
 31
0.0
 11
36.425286
 21
97.156445
 31
0.0
 11
36.396101
 21
95.557104
 31
0.0
 11
35.920267
 21
94.011395
 31
0.0
 11
34.837123
 21
92.430074
 31
0.0
 11
33.323713
 21
91.279796
 31
0.0
 11
31.501726
 21
90.651187
 31
0.0
 11
29.518007
 21
90.634628
 31
0.0
 11
27.658864
 21
91.250054
 31
0.0
 11
26.071153
 21
92.450353
 31
0.0
 11
25.188507
 21
93.639828
 31
0.0
 11
24.652885
 21
94.977323
 31
0.0
 11
24.470424
 21
96.445562
 31
0.0
 11
24.504553
 21
97.183156
 31
0.0
 11
24.623879
 21
97.838915
 31
0.0
 11
24.847455
 21
98.529166
 31
0.0
 11
25.881394
 21
100.257457
 31
0.0
 11
27.445059
 21
101.543605
 31
0.0
 11
29.398288
 21
102.272999
 31
0.0
 11
29.693673
 21
102.310322
 31
0.0
 11
30.081035
 21
102.330129
 31
0.0
 11
30.516153
 21
102.332541
 31
0.0
  0
LWPOLYLINE
  5
231
100
AcDbEntity
  8
Layer_1
 62
5
100
AcDbPolyline
 90
2
 70
0
 10
30.516153
 20
102.332541
 30
0.0
 10
30.516153
 20
102.332541
 30
0.0
  0
SPLINE
  5
232
100
AcDbEntity
  8
Layer_1
 62
5
100
AcDbSpline
 70
0
 71
3
 72
25
 73
21
 74
19
 40
0.000000
 40
0.000000
 40
0.000000
 40
0.000000
 40
0.073448
 40
0.268370
 40
0.543121
 40
3.431099
 40
6.143145
 40
8.657481
 40
8.880826
 40
9.042210
 40
9.108463
 40
9.323091
 40
9.694667
 40
10.072266
 40
11.790810
 40
13.789714
 40
16.075319
 40
17.062256
 40
17.944484
 40
18.375235
 40
18.375235
 40
18.375235
 40
18.375235
 10
40.266049
 20
96.901957
 30
0.0
 10
40.284273
 20
96.885501
 30
0.0
 10
40.350864
 20
96.825371
 30
0.0
 10
40.443908
 20
96.667383
 30
0.0
 10
41.048027
 20
95.729403
 30
0.0
 10
41.880189
 20
93.932619
 30
0.0
 10
42.523129
 20
91.284643
 30
0.0
 10
42.529072
 20
89.456546
 30
0.0
 10
42.353660
 20
88.490629
 30
0.0
 10
42.325562
 20
88.352503
 30
0.0
 10
42.267944
 20
88.190828
 30
0.0
 10
42.025226
 20
88.438274
 30
0.0
 10
41.816969
 20
88.585068
 30
0.0
 10
41.246606
 20
89.236968
 30
0.0
 10
40.659462
 20
90.460460
 30
0.0
 10
40.169005
 20
92.420304
 30
0.0
 10
40.051122
 20
94.181591
 30
0.0
 10
40.111147
 20
95.564137
 30
0.0
 10
40.144776
 20
96.332877
 30
0.0
 10
40.236091
 20
96.761378
 30
0.0
 10
40.266049
 20
96.901957
 30
0.0
 11
40.266049
 21
96.901957
 31
0.0
 11
40.319179
 21
96.851244
 31
0.0
 11
40.430929
 21
96.691537
 31
0.0
 11
40.576934
 21
96.458791
 31
0.0
 11
41.812152
 21
93.848302
 31
0.0
 11
42.428820
 21
91.207295
 31
0.0
 11
42.389330
 21
88.693270
 31
0.0
 11
42.349678
 21
88.473473
 31
0.0
 11
42.311857
 21
88.316583
 31
0.0
 11
42.283496
 21
88.256708
 31
0.0
 11
42.095865
 21
88.360917
 31
0.0
 11
41.815497
 21
88.604766
 31
0.0
 11
41.562507
 21
88.885082
 31
0.0
 11
40.748661
 21
90.398703
 31
0.0
 11
40.247767
 21
92.333832
 31
0.0
 11
40.080840
 21
94.613333
 31
0.0
 11
40.112751
 21
95.599754
 31
0.0
 11
40.183938
 21
96.479105
 31
0.0
 11
40.266049
 21
96.901957
 31
0.0
  0
LWPOLYLINE
  5
233
100
AcDbEntity
  8
Layer_1
 62
5
100
AcDbPolyline
 90
2
 70
0
 10
40.266049
 20
96.901957
 30
0.0
 10
40.266049
 20
96.901957
 30
0.0
  0
SPLINE
  5
234
100
AcDbEntity
  8
Layer_1
 62
5
100
AcDbSpline
 70
0
 71
3
 72
16
 73
12
 74
10
 40
0.000000
 40
0.000000
 40
0.000000
 40
0.000000
 40
0.895542
 40
2.827589
 40
4.537091
 40
6.137472
 40
7.536028
 40
8.686004
 40
8.948476
 40
9.185860
 40
9.347466
 40
9.347466
 40
9.347466
 40
9.347466
 10
20.700111
 20
96.849041
 30
0.0
 10
20.763624
 20
96.556654
 30
0.0
 10
20.964161
 20
95.633470
 30
0.0
 10
20.916253
 20
94.110699
 30
0.0
 10
20.883848
 20
92.361103
 30
0.0
 10
20.513447
 20
90.824815
 30
0.0
 10
20.029447
 20
89.527449
 30
0.0
 10
19.522970
 20
88.721484
 30
0.0
 10
19.134054
 20
88.332404
 30
0.0
 10
18.973391
 20
88.180721
 30
0.0
 10
18.865336
 20
88.102985
 30
0.0
 10
18.821569
 20
88.071499
 30
0.0
 11
20.700111
 21
96.849041
 31
0.0
 11
20.867540
 21
95.969289
 31
0.0
 11
20.918390
 21
94.037911
 31
0.0
 11
20.819174
 21
92.331291
 31
0.0
 11
20.465125
 21
90.770564
 31
0.0
 11
19.951698
 21
89.469660
 31
0.0
 11
19.311049
 21
88.514666
 31
0.0
 11
19.127153
 21
88.327385
 31
0.0
 11
18.951040
 21
88.168214
 31
0.0
 11
18.821569
 21
88.071499
 31
0.0
  0
LWPOLYLINE
  5
235
100
AcDbEntity
  8
Layer_1
 62
5
100
AcDbPolyline
 90
3
 70
0
 10
18.821569
 20
88.071499
 30
0.0
 10
18.649590
 20
87.972291
 30
0.0
 10
18.550371
 20
88.494833
 30
0.0
  0
SPLINE
  5
236
100
AcDbEntity
  8
Layer_1
 62
5
100
AcDbSpline
 70
0
 71
3
 72
16
 73
12
 74
10
 40
0.000000
 40
0.000000
 40
0.000000
 40
0.000000
 40
0.842372
 40
1.845005
 40
2.806381
 40
3.714457
 40
4.688043
 40
5.567538
 40
6.835657
 40
8.140060
 40
8.811056
 40
8.811056
 40
8.811056
 40
8.811056
 10
18.550371
 20
88.494833
 30
0.0
 10
18.515458
 20
88.773731
 30
0.0
 10
18.438990
 20
89.384589
 30
0.0
 10
18.452099
 20
90.322290
 30
0.0
 10
18.529330
 20
91.277778
 30
0.0
 10
18.718538
 20
92.207967
 30
0.0
 10
18.944987
 20
93.099821
 30
0.0
 10
19.255553
 20
94.094863
 30
0.0
 10
19.740783
 20
95.138948
 30
0.0
 10
20.193915
 20
96.125159
 30
0.0
 10
20.571765
 20
96.665500
 30
0.0
 10
20.700111
 20
96.849041
 30
0.0
 11
18.550371
 21
88.494833
 31
0.0
 11
18.463369
 21
89.332699
 31
0.0
 11
18.463664
 21
90.335332
 31
0.0
 11
18.550371
 21
91.292791
 31
0.0
 11
18.720954
 21
92.184701
 31
0.0
 11
18.961650
 21
93.128065
 31
0.0
 11
19.231674
 21
93.965082
 31
0.0
 11
19.735145
 21
95.128973
 31
0.0
 11
20.326827
 21
96.291462
 31
0.0
 11
20.700111
 21
96.849041
 31
0.0
  0
LWPOLYLINE
  5
237
100
AcDbEntity
  8
Layer_1
 62
5
100
AcDbPolyline
 90
2
 70
0
 10
20.700111
 20
96.849041
 30
0.0
 10
20.700111
 20
96.849041
 30
0.0
  0
SPLINE
  5
238
100
AcDbEntity
  8
Layer_1
 62
5
100
AcDbSpline
 70
0
 71
3
 72
13
 73
9
 74
7
 40
0.000000
 40
0.000000
 40
0.000000
 40
0.000000
 40
0.804483
 40
1.529344
 40
2.100772
 40
4.150857
 40
5.928414
 40
7.449554
 40
7.449554
 40
7.449554
 40
7.449554
 10
30.410319
 20
86.993333
 30
0.0
 10
30.678480
 20
86.991003
 30
0.0
 10
31.188260
 20
86.986574
 30
0.0
 10
31.888082
 20
86.955871
 30
0.0
 10
32.998802
 20
86.843060
 30
0.0
 10
34.428270
 20
86.503768
 30
0.0
 10
36.118958
 20
85.867999
 30
0.0
 10
36.974392
 20
85.166888
 30
0.0
 10
37.368861
 20
84.843583
 30
0.0
 11
30.410319
 21
86.993333
 31
0.0
 11
31.214713
 21
86.981384
 31
0.0
 11
31.938705
 21
86.945888
 31
0.0
 11
32.507142
 21
86.887499
 31
0.0
 11
34.507099
 21
86.436923
 31
0.0
 11
36.145636
 21
85.747789
 31
0.0
 11
37.368861
 21
84.843583
 31
0.0
  0
LWPOLYLINE
  5
239
100
AcDbEntity
  8
Layer_1
 62
5
100
AcDbPolyline
 90
3
 70
0
 10
37.368861
 20
84.843583
 30
0.0
 10
37.831882
 20
84.373958
 30
0.0
 10
37.831882
 20
84.069666
 30
0.0
  0
SPLINE
  5
23a
100
AcDbEntity
  8
Layer_1
 62
5
100
AcDbSpline
 70
0
 71
3
 72
34
 73
30
 74
28
 40
0.000000
 40
0.000000
 40
0.000000
 40
0.000000
 40
0.674329
 40
1.542426
 40
2.185735
 40
4.035945
 40
6.137462
 40
8.934262
 40
9.429450
 40
9.805769
 40
9.980459
 40
10.141670
 40
10.483738
 40
10.934088
 40
12.920343
 40
14.568615
 40
15.927033
 40
17.004715
 40
18.096701
 40
19.393831
 40
20.272446
 40
20.878634
 40
21.564637
 40
22.925166
 40
24.539691
 40
26.518948
 40
27.116190
 40
27.856355
 40
28.665871
 40
28.665871
 40
28.665871
 40
28.665871
 10
37.831882
 20
84.069666
 30
0.0
 10
37.815265
 20
83.845379
 30
0.0
 10
37.777258
 20
83.332357
 30
0.0
 10
37.655747
 20
82.613631
 30
0.0
 10
37.439998
 20
81.511642
 30
0.0
 10
36.510547
 20
80.172817
 30
0.0
 10
34.403927
 20
79.212949
 30
0.0
 10
32.605060
 20
79.006984
 30
0.0
 10
31.384142
 20
78.945237
 30
0.0
 10
31.035890
 20
78.929712
 30
0.0
 10
30.798384
 20
78.920100
 30
0.0
 10
30.572864
 20
78.937988
 30
0.0
 10
30.255247
 20
78.949764
 30
0.0
 10
29.330056
 20
78.992213
 30
0.0
 10
27.970532
 20
79.107763
 30
0.0
 10
26.341175
 20
79.480535
 30
0.0
 10
25.087781
 20
80.046426
 30
0.0
 10
24.180450
 20
80.823582
 30
0.0
 10
23.591589
 20
81.842726
 30
0.0
 10
23.334354
 20
82.905160
 30
0.0
 10
23.156596
 20
83.821104
 30
0.0
 10
23.293983
 20
84.559315
 30
0.0
 10
23.891718
 20
85.241265
 30
0.0
 10
24.871198
 20
85.981645
 30
0.0
 10
26.436375
 20
86.563669
 30
0.0
 10
27.807834
 20
86.847379
 30
0.0
 10
28.908686
 20
86.955340
 30
0.0
 10
29.623934
 20
86.986402
 30
0.0
 10
30.140485
 20
86.990955
 30
0.0
 10
30.410319
 20
86.993333
 30
0.0
 11
37.831882
 21
84.069666
 31
0.0
 11
37.772908
 21
83.397920
 31
0.0
 11
37.638969
 21
82.540219
 31
0.0
 11
37.494538
 21
81.913333
 31
0.0
 11
36.466187
 21
80.375226
 31
0.0
 11
34.601704
 21
79.405650
 31
0.0
 11
31.839069
 21
78.969833
 31
0.0
 11
31.344566
 21
78.943797
 31
0.0
 11
30.968619
 21
78.927065
 31
0.0
 11
30.793965
 21
78.923541
 31
0.0
 11
30.633003
 21
78.932491
 31
0.0
 11
30.291327
 21
78.948860
 31
0.0
 11
29.841465
 21
78.969833
 31
0.0
 11
27.865086
 21
79.167660
 31
0.0
 11
26.264167
 21
79.559906
 31
0.0
 11
25.039278
 21
80.147228
 31
0.0
 11
24.230868
 21
80.859880
 31
0.0
 11
23.671922
 21
81.797970
 31
0.0
 11
23.312871
 21
83.044416
 31
0.0
 11
23.205314
 21
83.916423
 31
0.0
 11
23.335012
 21
84.508574
 31
0.0
 11
23.749434
 21
85.055249
 31
0.0
 11
24.833346
 21
85.877547
 31
0.0
 11
26.329355
 21
86.484711
 31
0.0
 11
28.267194
 21
86.887499
 31
0.0
 11
28.861577
 21
86.945865
 31
0.0
 11
29.600893
 21
86.981323
 31
0.0
 11
30.410319
 21
86.993333
 31
0.0
  0
LWPOLYLINE
  5
23b
100
AcDbEntity
  8
Layer_1
 62
5
100
AcDbPolyline
 90
2
 70
0
 10
30.410319
 20
86.993333
 30
0.0
 10
30.410319
 20
86.993333
 30
0.0
  0
SPLINE
  5
23c
100
AcDbEntity
  8
Layer_1
 62
5
100
AcDbSpline
 70
0
 71
3
 72
25
 73
21
 74
19
 40
0.000000
 40
0.000000
 40
0.000000
 40
0.000000
 40
0.056876
 40
0.115196
 40
0.176539
 40
0.663720
 40
1.506673
 40
2.772316
 40
3.567908
 40
4.091719
 40
4.442202
 40
4.771994
 40
5.119082
 40
5.670960
 40
6.747141
 40
7.945152
 40
8.841964
 40
9.065044
 40
9.255124
 40
9.426573
 40
9.426573
 40
9.426573
 40
9.426573
 10
27.982785
 20
86.146666
 30
0.0
 10
27.963765
 20
86.146874
 30
0.0
 10
27.925242
 20
86.147294
 30
0.0
 10
27.867488
 20
86.134545
 30
0.0
 10
27.674452
 20
86.069238
 30
0.0
 10
27.413486
 20
85.617271
 30
0.0
 10
27.318690
 20
84.770767
 30
0.0
 10
27.312978
 20
83.794640
 30
0.0
 10
27.360743
 20
82.935994
 30
0.0
 10
27.455009
 20
82.382673
 30
0.0
 10
27.631330
 20
82.016433
 30
0.0
 10
27.995354
 20
81.830410
 30
0.0
 10
28.334985
 20
82.165403
 30
0.0
 10
28.519513
 20
82.789487
 30
0.0
 10
28.609885
 20
83.741000
 30
0.0
 10
28.578613
 20
84.787109
 30
0.0
 10
28.510472
 20
85.578335
 30
0.0
 10
28.305678
 20
85.966996
 30
0.0
 10
28.159199
 20
86.108121
 30
0.0
 10
28.039534
 20
86.134262
 30
0.0
 10
27.982785
 20
86.146659
 30
0.0
 11
27.982785
 21
86.146666
 31
0.0
 11
27.925929
 21
86.145158
 31
0.0
 11
27.868734
 21
86.133757
 31
0.0
 11
27.810806
 21
86.113576
 31
0.0
 11
27.507159
 21
85.732598
 31
0.0
 11
27.345770
 21
84.905240
 31
0.0
 11
27.327941
 21
83.639721
 31
0.0
 11
27.383982
 21
82.846106
 31
0.0
 11
27.493033
 21
82.333773
 31
0.0
 11
27.671899
 21
82.032367
 31
0.0
 11
27.976704
 21
81.906443
 31
0.0
 11
28.253860
 21
82.115380
 31
0.0
 11
28.459035
 21
82.627701
 31
0.0
 11
28.584681
 21
83.696522
 31
0.0
 11
28.562258
 21
84.894323
 31
0.0
 11
28.399504
 21
85.776242
 31
0.0
 11
28.289169
 21
85.970127
 31
0.0
 11
28.146492
 21
86.095720
 31
0.0
 11
27.982785
 21
86.146659
 31
0.0
  0
LWPOLYLINE
  5
23d
100
AcDbEntity
  8
Layer_1
 62
5
100
AcDbPolyline
 90
2
 70
0
 10
27.982785
 20
86.146659
 30
0.0
 10
27.982785
 20
86.146666
 30
0.0
  0
SPLINE
  5
23e
100
AcDbEntity
  8
Layer_1
 62
5
100
AcDbSpline
 70
0
 71
3
 72
25
 73
21
 74
19
 40
0.000000
 40
0.000000
 40
0.000000
 40
0.000000
 40
0.081919
 40
0.170061
 40
0.273847
 40
0.640888
 40
1.153796
 40
1.537389
 40
1.712176
 40
1.837829
 40
1.989243
 40
2.124383
 40
2.367193
 40
2.668300
 40
2.971124
 40
3.217106
 40
3.353909
 40
3.416486
 40
3.472017
 40
3.522895
 40
3.522895
 40
3.522895
 40
3.522895
 10
28.055545
 20
85.551332
 30
0.0
 10
28.083418
 20
85.552774
 30
0.0
 10
28.141282
 20
85.555766
 30
0.0
 10
28.221898
 20
85.501189
 30
0.0
 10
28.314694
 20
85.335550
 30
0.0
 10
28.315536
 20
84.995728
 30
0.0
 10
28.317477
 20
84.579644
 30
0.0
 10
28.301484
 20
84.221852
 30
0.0
 10
28.193278
 20
84.002616
 30
0.0
 10
28.024269
 20
83.961932
 30
0.0
 10
27.916317
 20
84.081457
 30
0.0
 10
27.895660
 20
84.257081
 30
0.0
 10
27.874132
 20
84.482410
 30
0.0
 10
27.868301
 20
84.764551
 30
0.0
 10
27.874007
 20
85.049043
 30
0.0
 10
27.896162
 20
85.273807
 30
0.0
 10
27.912011
 20
85.426445
 30
0.0
 10
27.962451
 20
85.496470
 30
0.0
 10
28.005244
 20
85.534849
 30
0.0
 10
28.039286
 20
85.546000
 30
0.0
 10
28.055563
 20
85.551332
 30
0.0
 11
28.055545
 21
85.551332
 31
0.0
 11
28.137354
 21
85.547098
 31
0.0
 11
28.212096
 21
85.500379
 31
0.0
 11
28.267212
 21
85.412437
 31
0.0
 11
28.315515
 21
85.048587
 31
0.0
 11
28.312844
 21
84.535687
 31
0.0
 11
28.260615
 21
84.155666
 31
0.0
 11
28.163557
 21
84.010303
 31
0.0
 11
28.040295
 21
83.985906
 31
0.0
 11
27.929886
 21
84.089520
 31
0.0
 11
27.900215
 21
84.221363
 31
0.0
 11
27.878670
 21
84.463215
 31
0.0
 11
27.870355
 21
84.764208
 31
0.0
 11
27.878666
 21
85.066917
 31
0.0
 11
27.900207
 21
85.311954
 31
0.0
 11
27.929886
 21
85.445499
 31
0.0
 11
27.965681
 21
85.496827
 31
0.0
 11
28.008355
 21
85.532361
 31
0.0
 11
28.055563
 21
85.551332
 31
0.0
  0
LWPOLYLINE
  5
23f
100
AcDbEntity
  8
Layer_1
 62
5
100
AcDbPolyline
 90
2
 70
0
 10
28.055563
 20
85.551332
 30
0.0
 10
28.055545
 20
85.551332
 30
0.0
  0
SPLINE
  5
240
100
AcDbEntity
  8
Layer_1
 62
5
100
AcDbSpline
 70
0
 71
3
 72
25
 73
21
 74
19
 40
0.000000
 40
0.000000
 40
0.000000
 40
0.000000
 40
0.049155
 40
0.098149
 40
0.148751
 40
0.616486
 40
1.439952
 40
2.691006
 40
3.553581
 40
4.092877
 40
4.431681
 40
4.831824
 40
5.353857
 40
6.295985
 40
7.311094
 40
8.291736
 40
8.941354
 40
9.110206
 40
9.268636
 40
9.419722
 40
9.419722
 40
9.419722
 40
9.419722
 10
33.122316
 20
86.146666
 30
0.0
 10
33.105900
 20
86.146385
 30
0.0
 10
33.073122
 20
86.145823
 30
0.0
 10
33.024328
 20
86.136238
 30
0.0
 10
32.842354
 20
86.079933
 30
0.0
 10
32.586927
 20
85.641610
 30
0.0
 10
32.495367
 20
84.814620
 30
0.0
 10
32.486457
 20
83.826960
 30
0.0
 10
32.533105
 20
82.945331
 30
0.0
 10
32.623166
 20
82.368898
 30
0.0
 10
32.821951
 20
81.977492
 30
0.0
 10
33.332250
 20
81.830805
 30
0.0
 10
33.622476
 20
82.529280
 30
0.0
 10
33.744301
 20
83.288576
 30
0.0
 10
33.781955
 20
84.294028
 30
0.0
 10
33.698906
 20
85.154345
 30
0.0
 10
33.619739
 20
85.777667
 30
0.0
 10
33.413796
 20
86.035946
 30
0.0
 10
33.275877
 20
86.125273
 30
0.0
 10
33.172687
 20
86.139649
 30
0.0
 10
33.122316
 20
86.146666
 30
0.0
 11
33.122316
 21
86.146666
 31
0.0
 11
33.073215
 21
86.144377
 31
0.0
 11
33.025031
 21
86.135503
 31
0.0
 11
32.976795
 21
86.120208
 31
0.0
 11
32.680796
 21
85.758048
 31
0.0
 11
32.521547
 21
84.950127
 31
0.0
 11
32.500545
 21
83.699249
 31
0.0
 11
32.556917
 21
82.838518
 31
0.0
 11
32.667911
 21
82.310768
 31
0.0
 11
32.851118
 21
82.025770
 31
0.0
 11
33.239688
 21
81.930232
 31
0.0
 11
33.537248
 21
82.359158
 31
0.0
 11
33.724243
 21
83.282541
 31
0.0
 11
33.759570
 21
84.297036
 31
0.0
 11
33.681076
 21
85.274531
 31
0.0
 11
33.512577
 21
85.901916
 31
0.0
 11
33.404848
 21
86.031937
 31
0.0
 11
33.270104
 21
86.115268
 31
0.0
 11
33.122316
 21
86.146666
 31
0.0
  0
LWPOLYLINE
  5
241
100
AcDbEntity
  8
Layer_1
 62
5
100
AcDbPolyline
 90
2
 70
0
 10
33.122316
 20
86.146666
 30
0.0
 10
33.122316
 20
86.146666
 30
0.0
  0
SPLINE
  5
242
100
AcDbEntity
  8
Layer_1
 62
5
100
AcDbSpline
 70
0
 71
3
 72
22
 73
18
 74
16
 40
0.000000
 40
0.000000
 40
0.000000
 40
0.000000
 40
0.078525
 40
0.169951
 40
0.290899
 40
0.647470
 40
1.107435
 40
1.476823
 40
1.672979
 40
1.796606
 40
1.944887
 40
2.332756
 40
2.903662
 40
3.289858
 40
3.361195
 40
3.421026
 40
3.472547
 40
3.472547
 40
3.472547
 40
3.472547
 10
33.228149
 20
85.551332
 30
0.0
 10
33.255244
 20
85.552135
 30
0.0
 10
33.313883
 20
85.553873
 30
0.0
 10
33.389638
 20
85.481344
 30
0.0
 10
33.470173
 20
85.309268
 30
0.0
 10
33.492144
 20
84.990322
 30
0.0
 10
33.494134
 20
84.596648
 30
0.0
 10
33.455408
 20
84.257205
 30
0.0
 10
33.365793
 20
84.035068
 30
0.0
 10
33.194441
 20
83.964805
 30
0.0
 10
33.033530
 20
84.169192
 30
0.0
 10
33.047724
 20
84.543243
 30
0.0
 10
33.040509
 20
84.979950
 30
0.0
 10
33.035077
 20
85.344997
 30
0.0
 10
33.131505
 20
85.489807
 30
0.0
 10
33.176654
 20
85.532721
 30
0.0
 10
33.211884
 20
85.545445
 30
0.0
 10
33.228185
 20
85.551332
 30
0.0
 11
33.228149
 21
85.551332
 31
0.0
 11
33.306361
 21
85.544324
 31
0.0
 11
33.377271
 21
85.486614
 31
0.0
 11
33.433202
 21
85.379374
 31
0.0
 11
33.486333
 21
85.026785
 31
0.0
 11
33.484225
 21
84.566824
 31
0.0
 11
33.426605
 21
84.201957
 31
0.0
 11
33.327960
 21
84.032411
 31
0.0
 11
33.210335
 21
83.994356
 31
0.0
 11
33.102490
 21
84.096124
 31
0.0
 11
33.042524
 21
84.479330
 31
0.0
 11
33.039546
 21
85.050228
 31
0.0
 11
33.095893
 21
85.432291
 31
0.0
 11
33.136006
 21
85.491282
 31
0.0
 11
33.180934
 21
85.530795
 31
0.0
 11
33.228185
 21
85.551332
 31
0.0
  0
LWPOLYLINE
  5
243
100
AcDbEntity
  8
Layer_1
 62
5
100
AcDbPolyline
 90
2
 70
0
 10
33.228185
 20
85.551332
 30
0.0
 10
33.228149
 20
85.551332
 30
0.0
  0
SPLINE
  5
244
100
AcDbEntity
  8
Layer_1
 62
6
100
AcDbSpline
 70
0
 71
3
 72
19
 73
15
 74
13
 40
0.000000
 40
0.000000
 40
0.000000
 40
0.000000
 40
9.748574
 40
19.208009
 40
28.956585
 40
38.705161
 40
48.164597
 40
57.913170
 40
67.661749
 40
77.121186
 40
86.869762
 40
96.618338
 40
106.077775
 40
115.826353
 40
115.826353
 40
115.826353
 40
115.826353
 10
49.106885
 20
90.761303
 30
0.0
 10
48.594438
 20
87.474542
 30
0.0
 10
47.584742
 20
80.998506
 30
0.0
 10
40.161955
 20
73.868918
 30
0.0
 10
30.479251
 20
71.227191
 30
0.0
 10
20.694889
 20
73.868918
 30
0.0
 10
13.571048
 20
80.998506
 30
0.0
 10
10.927366
 20
90.761304
 30
0.0
 10
13.571047
 20
100.524104
 30
0.0
 10
20.694888
 20
107.653694
 30
0.0
 10
30.479251
 20
110.295421
 30
0.0
 10
40.161955
 20
107.653694
 30
0.0
 10
47.584743
 20
100.524104
 30
0.0
 10
48.594438
 20
94.048065
 30
0.0
 10
49.106885
 20
90.761303
 30
0.0
 11
49.106885
 21
90.761303
 31
0.0
 11
46.561331
 21
81.350945
 31
0.0
 11
39.872500
 21
74.662114
 31
0.0
 11
30.462139
 21
72.116560
 31
0.0
 11
21.051778
 21
74.662114
 31
0.0
 11
14.362947
 21
81.350945
 31
0.0
 11
11.817392
 21
90.761303
 31
0.0
 11
14.362947
 21
100.171666
 31
0.0
 11
21.051778
 21
106.860498
 31
0.0
 11
30.462139
 21
109.406053
 31
0.0
 11
39.872500
 21
106.860498
 31
0.0
 11
46.561331
 21
100.171666
 31
0.0
 11
49.106885
 21
90.761303
 31
0.0
  0
LWPOLYLINE
  5
245
100
AcDbEntity
  8
Layer_1
 62
6
100
AcDbPolyline
 90
2
 70
0
 10
49.106885
 20
90.761303
 30
0.0
 10
49.106885
 20
90.761303
 30
0.0
  0
SPLINE
  5
246
100
AcDbEntity
  8
Layer_1
 62
5
100
AcDbSpline
 70
0
 71
3
 72
19
 73
15
 74
13
 40
0.000000
 40
0.000000
 40
0.000000
 40
0.000000
 40
8.780447
 40
17.306995
 40
26.087441
 40
34.867758
 40
43.394132
 40
52.174543
 40
60.954825
 40
69.481021
 40
78.261303
 40
87.041714
 40
95.568086
 40
104.348403
 40
104.348403
 40
104.348403
 40
104.348403
 10
30.462182
 20
107.561215
 30
0.0
 10
27.502132
 20
107.098252
 30
0.0
 10
21.667625
 20
106.185713
 30
0.0
 10
15.245833
 20
99.498844
 30
0.0
 10
12.858732
 20
90.776716
 30
0.0
 10
15.245801
 20
81.962750
 30
0.0
 10
21.667704
 20
75.546391
 30
0.0
 10
30.462132
 20
73.157755
 30
0.0
 10
39.256537
 20
75.546359
 30
0.0
 10
45.678202
 20
81.962828
 30
0.0
 10
48.065040
 20
90.776716
 30
0.0
 10
45.678171
 20
99.498767
 30
0.0
 10
39.256613
 20
106.185737
 30
0.0
 10
33.422196
 20
107.098259
 30
0.0
 10
30.462182
 20
107.561215
 30
0.0
 11
30.462182
 21
107.561215
 31
0.0
 11
21.987199
 21
105.265370
 31
0.0
 11
15.958018
 21
99.236190
 31
0.0
 11
13.662172
 21
90.761208
 31
0.0
 11
15.958018
 21
82.286359
 31
0.0
 11
21.987199
 21
76.257428
 31
0.0
 11
30.462182
 21
73.961716
 31
0.0
 11
38.937031
 21
76.257428
 31
0.0
 11
44.965962
 21
82.286359
 31
0.0
 11
47.261673
 21
90.761208
 31
0.0
 11
44.965962
 21
99.236190
 31
0.0
 11
38.937031
 21
105.265370
 31
0.0
 11
30.462182
 21
107.561215
 31
0.0
  0
LWPOLYLINE
  5
247
100
AcDbEntity
  8
Layer_1
 62
5
100
AcDbPolyline
 90
2
 70
0
 10
30.462182
 20
107.561215
 30
0.0
 10
30.462182
 20
107.561215
 30
0.0
  0
LWPOLYLINE
  5
248
100
AcDbEntity
  8
Layer_1
 62
5
100
AcDbPolyline
 90
2
 70
0
 10
30.462182
 20
105.952530
 30
0.0
 10
30.462182
 20
105.952530
 30
0.0
  0
LWPOLYLINE
  5
249
100
AcDbEntity
  8
Layer_1
 62
5
100
AcDbPolyline
 90
82
 70
0
 10
24.781390
 20
118.941777
 30
0.0
 10
24.781390
 20
119.651877
 30
0.0
 10
23.361202
 20
119.651877
 30
0.0
 10
21.941017
 20
119.651877
 30
0.0
 10
21.941017
 20
120.361976
 30
0.0
 10
21.941017
 20
121.072054
 30
0.0
 10
21.230922
 20
121.072054
 30
0.0
 10
20.520826
 20
121.072054
 30
0.0
 10
20.520826
 20
121.782153
 30
0.0
 10
20.520826
 20
122.492253
 30
0.0
 10
19.810734
 20
122.492253
 30
0.0
 10
19.100638
 20
122.492253
 30
0.0
 10
19.100638
 20
124.622533
 30
0.0
 10
19.100638
 20
126.752856
 30
0.0
 10
19.810734
 20
126.752856
 30
0.0
 10
20.520826
 20
126.752856
 30
0.0
 10
20.520826
 20
127.462916
 30
0.0
 10
20.520826
 20
128.173033
 30
0.0
 10
21.941017
 20
128.173033
 30
0.0
 10
23.361202
 20
128.173033
 30
0.0
 10
23.361202
 20
128.883147
 30
0.0
 10
23.361202
 20
129.593236
 30
0.0
 10
21.941017
 20
129.593236
 30
0.0
 10
20.520826
 20
129.593236
 30
0.0
 10
20.520826
 20
130.303300
 30
0.0
 10
20.520826
 20
131.013413
 30
0.0
 10
19.810734
 20
131.013413
 30
0.0
 10
19.100638
 20
131.013413
 30
0.0
 10
19.100638
 20
134.563857
 30
0.0
 10
19.100638
 20
138.114353
 30
0.0
 10
19.810734
 20
138.114353
 30
0.0
 10
20.520826
 20
138.114353
 30
0.0
 10
20.520826
 20
138.824442
 30
0.0
 10
20.520826
 20
139.534559
 30
0.0
 10
21.941017
 20
139.534559
 30
0.0
 10
23.361202
 20
139.534559
 30
0.0
 10
23.361202
 20
140.244620
 30
0.0
 10
23.361202
 20
140.954737
 30
0.0
 10
30.462146
 20
140.954737
 30
0.0
 10
37.563090
 20
140.954737
 30
0.0
 10
37.563090
 20
140.244620
 30
0.0
 10
37.563090
 20
139.534559
 30
0.0
 10
38.983274
 20
139.534559
 30
0.0
 10
40.403462
 20
139.534559
 30
0.0
 10
40.403462
 20
138.824442
 30
0.0
 10
40.403462
 20
138.114353
 30
0.0
 10
41.113555
 20
138.114353
 30
0.0
 10
41.823654
 20
138.114353
 30
0.0
 10
41.823654
 20
134.563857
 30
0.0
 10
41.823654
 20
131.013413
 30
0.0
 10
41.113555
 20
131.013413
 30
0.0
 10
40.403462
 20
131.013413
 30
0.0
 10
40.403462
 20
130.303300
 30
0.0
 10
40.403462
 20
129.593236
 30
0.0
 10
38.983274
 20
129.593236
 30
0.0
 10
37.563090
 20
129.593236
 30
0.0
 10
37.563090
 20
128.883147
 30
0.0
 10
37.563090
 20
128.173033
 30
0.0
 10
38.983274
 20
128.173033
 30
0.0
 10
40.403462
 20
128.173033
 30
0.0
 10
40.403462
 20
127.462916
 30
0.0
 10
40.403462
 20
126.752856
 30
0.0
 10
41.113555
 20
126.752856
 30
0.0
 10
41.823654
 20
126.752856
 30
0.0
 10
41.823654
 20
124.622533
 30
0.0
 10
41.823654
 20
122.492253
 30
0.0
 10
41.113555
 20
122.492253
 30
0.0
 10
40.403462
 20
122.492253
 30
0.0
 10
40.403462
 20
121.782153
 30
0.0
 10
40.403462
 20
121.072054
 30
0.0
 10
39.693367
 20
121.072054
 30
0.0
 10
38.983274
 20
121.072054
 30
0.0
 10
38.983274
 20
120.361976
 30
0.0
 10
38.983274
 20
119.651877
 30
0.0
 10
37.563090
 20
119.651877
 30
0.0
 10
36.142898
 20
119.651877
 30
0.0
 10
36.142898
 20
118.941777
 30
0.0
 10
36.142898
 20
118.231678
 30
0.0
 10
30.462146
 20
118.231678
 30
0.0
 10
24.781390
 20
118.231678
 30
0.0
 10
24.781390
 20
118.941777
 30
0.0
 10
24.781390
 20
118.941777
 30
0.0
  0
LWPOLYLINE
  5
24a
100
AcDbEntity
  8
Layer_1
 62
5
100
AcDbPolyline
 90
82
 70
0
 10
26.201578
 20
120.361976
 30
0.0
 10
26.201578
 20
121.072054
 30
0.0
 10
26.911674
 20
121.072054
 30
0.0
 10
27.621770
 20
121.072054
 30
0.0
 10
27.621770
 20
120.361976
 30
0.0
 10
27.621770
 20
119.651877
 30
0.0
 10
30.462146
 20
119.651877
 30
0.0
 10
33.302522
 20
119.651877
 30
0.0
 10
33.302522
 20
120.361976
 30
0.0
 10
33.302522
 20
121.072054
 30
0.0
 10
34.012614
 20
121.072054
 30
0.0
 10
34.722710
 20
121.072054
 30
0.0
 10
34.722710
 20
120.361976
 30
0.0
 10
34.722710
 20
119.651877
 30
0.0
 10
35.432802
 20
119.651877
 30
0.0
 10
36.142898
 20
119.651877
 30
0.0
 10
36.142898
 20
120.361976
 30
0.0
 10
36.142898
 20
121.072054
 30
0.0
 10
37.563090
 20
121.072054
 30
0.0
 10
38.983274
 20
121.072054
 30
0.0
 10
38.983274
 20
121.782153
 30
0.0
 10
38.983274
 20
122.492253
 30
0.0
 10
39.693367
 20
122.492253
 30
0.0
 10
40.403463
 20
122.492253
 30
0.0
 10
40.403463
 20
124.622533
 30
0.0
 10
40.403463
 20
126.752856
 30
0.0
 10
38.983274
 20
126.752856
 30
0.0
 10
37.563090
 20
126.752856
 30
0.0
 10
37.563090
 20
127.462916
 30
0.0
 10
37.563090
 20
128.173033
 30
0.0
 10
35.432802
 20
128.173033
 30
0.0
 10
33.302522
 20
128.173033
 30
0.0
 10
33.302522
 20
126.752856
 30
0.0
 10
33.302522
 20
125.332636
 30
0.0
 10
34.012614
 20
125.332636
 30
0.0
 10
34.722710
 20
125.332636
 30
0.0
 10
34.722710
 20
124.622533
 30
0.0
 10
34.722710
 20
123.912430
 30
0.0
 10
34.012614
 20
123.912430
 30
0.0
 10
33.302522
 20
123.912430
 30
0.0
 10
33.302522
 20
122.492253
 30
0.0
 10
33.302522
 20
121.072054
 30
0.0
 10
32.592426
 20
121.072054
 30
0.0
 10
31.882334
 20
121.072054
 30
0.0
 10
31.882334
 20
123.912430
 30
0.0
 10
31.882334
 20
126.752856
 30
0.0
 10
30.462146
 20
126.752856
 30
0.0
 10
29.041958
 20
126.752856
 30
0.0
 10
29.041958
 20
123.912430
 30
0.0
 10
29.041958
 20
121.072054
 30
0.0
 10
28.331862
 20
121.072054
 30
0.0
 10
27.621770
 20
121.072054
 30
0.0
 10
27.621770
 20
122.492253
 30
0.0
 10
27.621770
 20
123.912430
 30
0.0
 10
26.911674
 20
123.912430
 30
0.0
 10
26.201578
 20
123.912430
 30
0.0
 10
26.201578
 20
124.622533
 30
0.0
 10
26.201578
 20
125.332636
 30
0.0
 10
26.911674
 20
125.332636
 30
0.0
 10
27.621770
 20
125.332636
 30
0.0
 10
27.621770
 20
126.752856
 30
0.0
 10
27.621770
 20
128.173033
 30
0.0
 10
25.491486
 20
128.173033
 30
0.0
 10
23.361202
 20
128.173033
 30
0.0
 10
23.361202
 20
127.462916
 30
0.0
 10
23.361202
 20
126.752856
 30
0.0
 10
21.941017
 20
126.752856
 30
0.0
 10
20.520826
 20
126.752856
 30
0.0
 10
20.520826
 20
124.622533
 30
0.0
 10
20.520826
 20
122.492253
 30
0.0
 10
21.230922
 20
122.492253
 30
0.0
 10
21.941017
 20
122.492253
 30
0.0
 10
21.941017
 20
121.782153
 30
0.0
 10
21.941017
 20
121.072054
 30
0.0
 10
23.361202
 20
121.072054
 30
0.0
 10
24.781390
 20
121.072054
 30
0.0
 10
24.781390
 20
120.361976
 30
0.0
 10
24.781390
 20
119.651877
 30
0.0
 10
25.491486
 20
119.651877
 30
0.0
 10
26.201578
 20
119.651877
 30
0.0
 10
26.201578
 20
120.361976
 30
0.0
 10
26.201578
 20
120.361976
 30
0.0
  0
LWPOLYLINE
  5
24b
100
AcDbEntity
  8
Layer_1
 62
5
100
AcDbPolyline
 90
34
 70
0
 10
24.781390
 20
121.782153
 30
0.0
 10
24.781390
 20
122.492253
 30
0.0
 10
24.071298
 20
122.492253
 30
0.0
 10
23.361202
 20
122.492253
 30
0.0
 10
23.361202
 20
123.202356
 30
0.0
 10
23.361202
 20
123.912430
 30
0.0
 10
22.651110
 20
123.912430
 30
0.0
 10
21.941017
 20
123.912430
 30
0.0
 10
21.941017
 20
124.622533
 30
0.0
 10
21.941017
 20
125.332636
 30
0.0
 10
22.651110
 20
125.332636
 30
0.0
 10
23.361202
 20
125.332636
 30
0.0
 10
23.361202
 20
126.042739
 30
0.0
 10
23.361202
 20
126.752856
 30
0.0
 10
24.781390
 20
126.752856
 30
0.0
 10
26.201578
 20
126.752856
 30
0.0
 10
26.201578
 20
126.042739
 30
0.0
 10
26.201578
 20
125.332636
 30
0.0
 10
24.781390
 20
125.332636
 30
0.0
 10
23.361202
 20
125.332636
 30
0.0
 10
23.361202
 20
124.622533
 30
0.0
 10
23.361202
 20
123.912430
 30
0.0
 10
24.071298
 20
123.912430
 30
0.0
 10
24.781390
 20
123.912430
 30
0.0
 10
24.781390
 20
123.202356
 30
0.0
 10
24.781390
 20
122.492253
 30
0.0
 10
25.491486
 20
122.492253
 30
0.0
 10
26.201578
 20
122.492253
 30
0.0
 10
26.201578
 20
121.782153
 30
0.0
 10
26.201578
 20
121.072054
 30
0.0
 10
25.491486
 20
121.072054
 30
0.0
 10
24.781390
 20
121.072054
 30
0.0
 10
24.781390
 20
121.782153
 30
0.0
 10
24.781390
 20
121.782153
 30
0.0
  0
LWPOLYLINE
  5
24c
100
AcDbEntity
  8
Layer_1
 62
5
100
AcDbPolyline
 90
34
 70
0
 10
34.722710
 20
121.782153
 30
0.0
 10
34.722710
 20
122.492253
 30
0.0
 10
35.432802
 20
122.492253
 30
0.0
 10
36.142898
 20
122.492253
 30
0.0
 10
36.142898
 20
123.202356
 30
0.0
 10
36.142898
 20
123.912430
 30
0.0
 10
36.852991
 20
123.912430
 30
0.0
 10
37.563090
 20
123.912430
 30
0.0
 10
37.563090
 20
124.622533
 30
0.0
 10
37.563090
 20
125.332636
 30
0.0
 10
36.142898
 20
125.332636
 30
0.0
 10
34.722710
 20
125.332636
 30
0.0
 10
34.722710
 20
126.042739
 30
0.0
 10
34.722710
 20
126.752856
 30
0.0
 10
36.142898
 20
126.752856
 30
0.0
 10
37.563090
 20
126.752856
 30
0.0
 10
37.563090
 20
126.042739
 30
0.0
 10
37.563090
 20
125.332636
 30
0.0
 10
38.273179
 20
125.332636
 30
0.0
 10
38.983274
 20
125.332636
 30
0.0
 10
38.983274
 20
124.622533
 30
0.0
 10
38.983274
 20
123.912430
 30
0.0
 10
38.273179
 20
123.912430
 30
0.0
 10
37.563090
 20
123.912430
 30
0.0
 10
37.563090
 20
123.202356
 30
0.0
 10
37.563090
 20
122.492253
 30
0.0
 10
36.852991
 20
122.492253
 30
0.0
 10
36.142898
 20
122.492253
 30
0.0
 10
36.142898
 20
121.782153
 30
0.0
 10
36.142898
 20
121.072054
 30
0.0
 10
35.432802
 20
121.072054
 30
0.0
 10
34.722710
 20
121.072054
 30
0.0
 10
34.722710
 20
121.782153
 30
0.0
 10
34.722710
 20
121.782153
 30
0.0
  0
LWPOLYLINE
  5
24d
100
AcDbEntity
  8
Layer_1
 62
5
100
AcDbPolyline
 90
42
 70
0
 10
36.142898
 20
130.303300
 30
0.0
 10
36.142898
 20
131.013413
 30
0.0
 10
37.563090
 20
131.013413
 30
0.0
 10
38.983274
 20
131.013413
 30
0.0
 10
38.983274
 20
131.723502
 30
0.0
 10
38.983274
 20
132.433591
 30
0.0
 10
39.693367
 20
132.433591
 30
0.0
 10
40.403463
 20
132.433591
 30
0.0
 10
40.403463
 20
134.563857
 30
0.0
 10
40.403463
 20
136.694176
 30
0.0
 10
39.693367
 20
136.694176
 30
0.0
 10
38.983274
 20
136.694176
 30
0.0
 10
38.983274
 20
137.404240
 30
0.0
 10
38.983274
 20
138.114353
 30
0.0
 10
37.563090
 20
138.114353
 30
0.0
 10
36.142898
 20
138.114353
 30
0.0
 10
36.142898
 20
138.824442
 30
0.0
 10
36.142898
 20
139.534559
 30
0.0
 10
30.462146
 20
139.534559
 30
0.0
 10
24.781390
 20
139.534559
 30
0.0
 10
24.781390
 20
138.824442
 30
0.0
 10
24.781390
 20
138.114353
 30
0.0
 10
23.361202
 20
138.114353
 30
0.0
 10
21.941017
 20
138.114353
 30
0.0
 10
21.941017
 20
137.404240
 30
0.0
 10
21.941017
 20
136.694176
 30
0.0
 10
21.230922
 20
136.694176
 30
0.0
 10
20.520826
 20
136.694176
 30
0.0
 10
20.520826
 20
134.563857
 30
0.0
 10
20.520826
 20
132.433591
 30
0.0
 10
21.230922
 20
132.433591
 30
0.0
 10
21.941017
 20
132.433591
 30
0.0
 10
21.941017
 20
131.723502
 30
0.0
 10
21.941017
 20
131.013413
 30
0.0
 10
23.361202
 20
131.013413
 30
0.0
 10
24.781390
 20
131.013413
 30
0.0
 10
24.781390
 20
130.303300
 30
0.0
 10
24.781390
 20
129.593236
 30
0.0
 10
30.462146
 20
129.593236
 30
0.0
 10
36.142898
 20
129.593236
 30
0.0
 10
36.142898
 20
130.303300
 30
0.0
 10
36.142898
 20
130.303300
 30
0.0
  0
LWPOLYLINE
  5
24e
100
AcDbEntity
  8
Layer_1
 62
5
100
AcDbPolyline
 90
10
 70
0
 10
27.621770
 20
135.273974
 30
0.0
 10
27.621770
 20
136.694176
 30
0.0
 10
28.331862
 20
136.694176
 30
0.0
 10
29.041958
 20
136.694176
 30
0.0
 10
29.041958
 20
135.273974
 30
0.0
 10
29.041958
 20
133.853796
 30
0.0
 10
28.331862
 20
133.853796
 30
0.0
 10
27.621770
 20
133.853796
 30
0.0
 10
27.621770
 20
135.273974
 30
0.0
 10
27.621770
 20
135.273974
 30
0.0
  0
SPLINE
  5
24f
100
AcDbEntity
  8
Layer_1
 62
5
100
AcDbSpline
 70
0
 71
3
 72
19
 73
15
 74
13
 40
0.000000
 40
0.000000
 40
0.000000
 40
0.000000
 40
7.946421
 40
15.650792
 40
23.597213
 40
31.543505
 40
39.247700
 40
47.194085
 40
55.140473
 40
62.844668
 40
70.790959
 40
78.737381
 40
86.441753
 40
94.388175
 40
94.388175
 40
94.388175
 40
94.388175
 10
30.462182
 20
105.952530
 30
0.0
 10
33.141636
 20
105.536186
 30
0.0
 10
38.418929
 20
104.716180
 30
0.0
 10
44.230277
 20
98.666798
 30
0.0
 10
46.376112
 20
90.775161
 30
0.0
 10
44.230309
 20
82.800972
 30
0.0
 10
38.418850
 20
76.994523
 30
0.0
 10
30.462181
 20
74.847326
 30
0.0
 10
22.505512
 20
76.994523
 30
0.0
 10
16.694053
 20
82.800972
 30
0.0
 10
14.548249
 20
90.775161
 30
0.0
 10
16.694085
 20
98.666798
 30
0.0
 10
22.505434
 20
104.716181
 30
0.0
 10
27.782727
 20
105.536186
 30
0.0
 10
30.462182
 20
105.952530
 30
0.0
 11
30.462182
 21
105.952530
 31
0.0
 11
38.133724
 21
103.880565
 31
0.0
 11
43.581537
 21
98.432751
 31
0.0
 11
45.653501
 21
90.761208
 31
0.0
 11
43.581537
 21
83.089799
 31
0.0
 11
38.133724
 21
77.642235
 31
0.0
 11
30.462182
 21
75.570404
 31
0.0
 11
22.790638
 21
77.642235
 31
0.0
 11
17.342824
 21
83.089799
 31
0.0
 11
15.270860
 21
90.761208
 31
0.0
 11
17.342824
 21
98.432751
 31
0.0
 11
22.790638
 21
103.880565
 31
0.0
 11
30.462182
 21
105.952530
 31
0.0
  0
LWPOLYLINE
  5
250
100
AcDbEntity
  8
Layer_1
 62
5
100
AcDbPolyline
 90
10
 70
0
 10
31.882334
 20
135.273974
 30
0.0
 10
31.882334
 20
136.694176
 30
0.0
 10
32.592426
 20
136.694176
 30
0.0
 10
33.302522
 20
136.694176
 30
0.0
 10
33.302522
 20
135.273974
 30
0.0
 10
33.302522
 20
133.853796
 30
0.0
 10
32.592426
 20
133.853796
 30
0.0
 10
31.882334
 20
133.853796
 30
0.0
 10
31.882334
 20
135.273974
 30
0.0
 10
31.882334
 20
135.273974
 30
0.0
  0
SPLINE
  5
251
100
AcDbEntity
  8
Layer_1
 62
6
100
AcDbSpline
 70
0
 71
3
 72
19
 73
15
 74
13
 40
0.000000
 40
0.000000
 40
0.000000
 40
0.000000
 40
9.748575
 40
19.208012
 40
28.956589
 40
38.705165
 40
48.164602
 40
57.913177
 40
67.661754
 40
77.121190
 40
86.869767
 40
96.618344
 40
106.077781
 40
115.826358
 40
115.826358
 40
115.826358
 40
115.826358
 10
49.106892
 20
129.593201
 30
0.0
 10
48.594444
 20
126.306440
 30
0.0
 10
47.584748
 20
119.830403
 30
0.0
 10
40.161960
 20
112.700814
 30
0.0
 10
30.479256
 20
110.059087
 30
0.0
 10
20.694892
 20
112.700814
 30
0.0
 10
13.571051
 20
119.830403
 30
0.0
 10
10.927370
 20
129.593202
 30
0.0
 10
13.571051
 20
139.356001
 30
0.0
 10
20.694892
 20
146.485591
 30
0.0
 10
30.479256
 20
149.127318
 30
0.0
 10
40.161960
 20
146.485591
 30
0.0
 10
47.584748
 20
139.356001
 30
0.0
 10
48.594444
 20
132.879963
 30
0.0
 10
49.106892
 20
129.593201
 30
0.0
 11
49.106892
 21
129.593201
 31
0.0
 11
46.561337
 21
120.182842
 31
0.0
 11
39.872505
 21
113.494010
 31
0.0
 11
30.462143
 21
110.948456
 31
0.0
 11
21.051782
 21
113.494010
 31
0.0
 11
14.362950
 21
120.182842
 31
0.0
 11
11.817396
 21
129.593201
 31
0.0
 11
14.362950
 21
139.003563
 31
0.0
 11
21.051782
 21
145.692395
 31
0.0
 11
30.462143
 21
148.237949
 31
0.0
 11
39.872505
 21
145.692395
 31
0.0
 11
46.561337
 21
139.003563
 31
0.0
 11
49.106892
 21
129.593201
 31
0.0
  0
LWPOLYLINE
  5
252
100
AcDbEntity
  8
Layer_1
 62
6
100
AcDbPolyline
 90
2
 70
0
 10
49.106892
 20
129.593201
 30
0.0
 10
49.106892
 20
129.593201
 30
0.0
  0
SPLINE
  5
253
100
AcDbEntity
  8
Layer_1
 62
5
100
AcDbSpline
 70
0
 71
3
 72
19
 73
15
 74
13
 40
0.000000
 40
0.000000
 40
0.000000
 40
0.000000
 40
8.780447
 40
17.306995
 40
26.087441
 40
34.867758
 40
43.394132
 40
52.174543
 40
60.954825
 40
69.481021
 40
78.261303
 40
87.041714
 40
95.568086
 40
104.348403
 40
104.348403
 40
104.348403
 40
104.348403
 10
30.462183
 20
146.393110
 30
0.0
 10
27.502133
 20
145.930148
 30
0.0
 10
21.667626
 20
145.017609
 30
0.0
 10
15.245834
 20
138.330740
 30
0.0
 10
12.858733
 20
129.608612
 30
0.0
 10
15.245802
 20
120.794646
 30
0.0
 10
21.667705
 20
114.378287
 30
0.0
 10
30.462133
 20
111.989651
 30
0.0
 10
39.256538
 20
114.378255
 30
0.0
 10
45.678203
 20
120.794724
 30
0.0
 10
48.065040
 20
129.608612
 30
0.0
 10
45.678172
 20
138.330663
 30
0.0
 10
39.256614
 20
145.017633
 30
0.0
 10
33.422197
 20
145.930155
 30
0.0
 10
30.462183
 20
146.393110
 30
0.0
 11
30.462183
 21
146.393110
 31
0.0
 11
21.987200
 21
144.097265
 31
0.0
 11
15.958019
 21
138.068086
 31
0.0
 11
13.662173
 21
129.593103
 31
0.0
 11
15.958019
 21
121.118255
 31
0.0
 11
21.987200
 21
115.089323
 31
0.0
 11
30.462183
 21
112.793612
 31
0.0
 11
38.937032
 21
115.089323
 31
0.0
 11
44.965963
 21
121.118255
 31
0.0
 11
47.261674
 21
129.593103
 31
0.0
 11
44.965963
 21
138.068086
 31
0.0
 11
38.937032
 21
144.097265
 31
0.0
 11
30.462183
 21
146.393110
 31
0.0
  0
LWPOLYLINE
  5
254
100
AcDbEntity
  8
Layer_1
 62
5
100
AcDbPolyline
 90
2
 70
0
 10
30.462183
 20
146.393110
 30
0.0
 10
30.462183
 20
146.393110
 30
0.0
  0
SPLINE
  5
255
100
AcDbEntity
  8
Layer_1
 62
5
100
AcDbSpline
 70
0
 71
3
 72
19
 73
15
 74
13
 40
0.000000
 40
0.000000
 40
0.000000
 40
0.000000
 40
7.946421
 40
15.650792
 40
23.597213
 40
31.543505
 40
39.247700
 40
47.194085
 40
55.140473
 40
62.844668
 40
70.790959
 40
78.737381
 40
86.441753
 40
94.388175
 40
94.388175
 40
94.388175
 40
94.388175
 10
30.462183
 20
144.784425
 30
0.0
 10
33.141637
 20
144.368082
 30
0.0
 10
38.418930
 20
143.548076
 30
0.0
 10
44.230278
 20
137.498694
 30
0.0
 10
46.376113
 20
129.607057
 30
0.0
 10
44.230309
 20
121.632868
 30
0.0
 10
38.418851
 20
115.826419
 30
0.0
 10
30.462182
 20
113.679221
 30
0.0
 10
22.505513
 20
115.826419
 30
0.0
 10
16.694054
 20
121.632868
 30
0.0
 10
14.548250
 20
129.607057
 30
0.0
 10
16.694086
 20
137.498694
 30
0.0
 10
22.505435
 20
143.548076
 30
0.0
 10
27.782728
 20
144.368082
 30
0.0
 10
30.462183
 20
144.784425
 30
0.0
 11
30.462183
 21
144.784425
 31
0.0
 11
38.133725
 21
142.712460
 31
0.0
 11
43.581538
 21
137.264646
 31
0.0
 11
45.653502
 21
129.593103
 31
0.0
 11
43.581538
 21
121.921695
 31
0.0
 11
38.133725
 21
116.474130
 31
0.0
 11
30.462183
 21
114.402300
 31
0.0
 11
22.790639
 21
116.474130
 31
0.0
 11
17.342825
 21
121.921695
 31
0.0
 11
15.270861
 21
129.593103
 31
0.0
 11
17.342825
 21
137.264646
 31
0.0
 11
22.790639
 21
142.712460
 31
0.0
 11
30.462183
 21
144.784425
 31
0.0
  0
LWPOLYLINE
  5
256
100
AcDbEntity
  8
Layer_1
 62
5
100
AcDbPolyline
 90
2
 70
0
 10
30.462183
 20
144.784425
 30
0.0
 10
30.462183
 20
144.784425
 30
0.0
  0
SPLINE
  5
257
100
AcDbEntity
  8
Layer_1
 62
6
100
AcDbSpline
 70
0
 71
3
 72
19
 73
15
 74
13
 40
0.000000
 40
0.000000
 40
0.000000
 40
0.000000
 40
9.748575
 40
19.208012
 40
28.956589
 40
38.705165
 40
48.164602
 40
57.913177
 40
67.661754
 40
77.121190
 40
86.869767
 40
96.618344
 40
106.077781
 40
115.826358
 40
115.826358
 40
115.826358
 40
115.826358
 10
49.106890
 20
168.425079
 30
0.0
 10
48.594443
 20
165.138318
 30
0.0
 10
47.584747
 20
158.662281
 30
0.0
 10
40.161959
 20
151.532692
 30
0.0
 10
30.479255
 20
148.890965
 30
0.0
 10
20.694891
 20
151.532692
 30
0.0
 10
13.571050
 20
158.662281
 30
0.0
 10
10.927368
 20
168.425080
 30
0.0
 10
13.571050
 20
178.187879
 30
0.0
 10
20.694891
 20
185.317469
 30
0.0
 10
30.479255
 20
187.959196
 30
0.0
 10
40.161959
 20
185.317469
 30
0.0
 10
47.584747
 20
178.187879
 30
0.0
 10
48.594443
 20
171.711841
 30
0.0
 10
49.106890
 20
168.425079
 30
0.0
 11
49.106890
 21
168.425079
 31
0.0
 11
46.561336
 21
159.014720
 31
0.0
 11
39.872504
 21
152.325888
 31
0.0
 11
30.462142
 21
149.780334
 31
0.0
 11
21.051781
 21
152.325888
 31
0.0
 11
14.362949
 21
159.014720
 31
0.0
 11
11.817395
 21
168.425079
 31
0.0
 11
14.362949
 21
177.835441
 31
0.0
 11
21.051781
 21
184.524273
 31
0.0
 11
30.462142
 21
187.069828
 31
0.0
 11
39.872504
 21
184.524273
 31
0.0
 11
46.561336
 21
177.835441
 31
0.0
 11
49.106890
 21
168.425079
 31
0.0
  0
LWPOLYLINE
  5
258
100
AcDbEntity
  8
Layer_1
 62
6
100
AcDbPolyline
 90
2
 70
0
 10
49.106890
 20
168.425079
 30
0.0
 10
49.106890
 20
168.425079
 30
0.0
  0
SPLINE
  5
259
100
AcDbEntity
  8
Layer_1
 62
5
100
AcDbSpline
 70
0
 71
3
 72
19
 73
15
 74
13
 40
0.000000
 40
0.000000
 40
0.000000
 40
0.000000
 40
8.780447
 40
17.306995
 40
26.087441
 40
34.867758
 40
43.394132
 40
52.174543
 40
60.954825
 40
69.481021
 40
78.261303
 40
87.041714
 40
95.568086
 40
104.348403
 40
104.348403
 40
104.348403
 40
104.348403
 10
30.462182
 20
185.224989
 30
0.0
 10
27.502132
 20
184.762026
 30
0.0
 10
21.667625
 20
183.849487
 30
0.0
 10
15.245833
 20
177.162618
 30
0.0
 10
12.858732
 20
168.440490
 30
0.0
 10
15.245801
 20
159.626524
 30
0.0
 10
21.667704
 20
153.210165
 30
0.0
 10
30.462132
 20
150.821529
 30
0.0
 10
39.256537
 20
153.210133
 30
0.0
 10
45.678202
 20
159.626602
 30
0.0
 10
48.065039
 20
168.440490
 30
0.0
 10
45.678171
 20
177.162541
 30
0.0
 10
39.256613
 20
183.849511
 30
0.0
 10
33.422195
 20
184.762033
 30
0.0
 10
30.462182
 20
185.224989
 30
0.0
 11
30.462182
 21
185.224989
 31
0.0
 11
21.987199
 21
182.929144
 31
0.0
 11
15.958018
 21
176.899964
 31
0.0
 11
13.662172
 21
168.424981
 31
0.0
 11
15.958018
 21
159.950133
 31
0.0
 11
21.987199
 21
153.921201
 31
0.0
 11
30.462182
 21
151.625490
 31
0.0
 11
38.937030
 21
153.921201
 31
0.0
 11
44.965962
 21
159.950133
 31
0.0
 11
47.261673
 21
168.424981
 31
0.0
 11
44.965962
 21
176.899964
 31
0.0
 11
38.937030
 21
182.929144
 31
0.0
 11
30.462182
 21
185.224989
 31
0.0
  0
LWPOLYLINE
  5
25a
100
AcDbEntity
  8
Layer_1
 62
5
100
AcDbPolyline
 90
2
 70
0
 10
30.462182
 20
185.224989
 30
0.0
 10
30.462182
 20
185.224989
 30
0.0
  0
LWPOLYLINE
  5
25b
100
AcDbEntity
  8
Layer_1
 62
5
100
AcDbPolyline
 90
2
 70
0
 10
30.462182
 20
183.616303
 30
0.0
 10
30.462182
 20
183.616303
 30
0.0
  0
SPLINE
  5
25c
100
AcDbEntity
  8
Layer_1
 62
5
100
AcDbSpline
 70
0
 71
3
 72
19
 73
15
 74
13
 40
0.000000
 40
0.000000
 40
0.000000
 40
0.000000
 40
7.946421
 40
15.650792
 40
23.597213
 40
31.543505
 40
39.247700
 40
47.194085
 40
55.140473
 40
62.844668
 40
70.790959
 40
78.737381
 40
86.441753
 40
94.388175
 40
94.388175
 40
94.388175
 40
94.388175
 10
30.462182
 20
183.616303
 30
0.0
 10
33.141636
 20
183.199960
 30
0.0
 10
38.418929
 20
182.379954
 30
0.0
 10
44.230276
 20
176.330572
 30
0.0
 10
46.376112
 20
168.438935
 30
0.0
 10
44.230308
 20
160.464746
 30
0.0
 10
38.418850
 20
154.658297
 30
0.0
 10
30.462181
 20
152.511100
 30
0.0
 10
22.505512
 20
154.658297
 30
0.0
 10
16.694053
 20
160.464746
 30
0.0
 10
14.548249
 20
168.438935
 30
0.0
 10
16.694085
 20
176.330572
 30
0.0
 10
22.505434
 20
182.379954
 30
0.0
 10
27.782727
 20
183.199960
 30
0.0
 10
30.462182
 20
183.616303
 30
0.0
 11
30.462182
 21
183.616303
 31
0.0
 11
38.133724
 21
181.544338
 31
0.0
 11
43.581537
 21
176.096524
 31
0.0
 11
45.653501
 21
168.424981
 31
0.0
 11
43.581537
 21
160.753573
 31
0.0
 11
38.133724
 21
155.306008
 31
0.0
 11
30.462182
 21
153.234178
 31
0.0
 11
22.790638
 21
155.306008
 31
0.0
 11
17.342824
 21
160.753573
 31
0.0
 11
15.270860
 21
168.424981
 31
0.0
 11
17.342824
 21
176.096524
 31
0.0
 11
22.790638
 21
181.544338
 31
0.0
 11
30.462182
 21
183.616303
 31
0.0
  0
LWPOLYLINE
  5
25d
100
AcDbEntity
  8
Layer_1
 62
5
100
AcDbPolyline
 90
2
 70
0
 10
28.499363
 20
180.370051
 30
0.0
 10
32.424925
 20
180.370051
 30
0.0
  0
SPLINE
  5
25e
100
AcDbEntity
  8
Layer_1
 62
5
100
AcDbSpline
 70
0
 71
3
 72
10
 73
6
 74
4
 40
0.000000
 40
0.000000
 40
0.000000
 40
0.000000
 40
0.415525
 40
0.817807
 40
1.233332
 40
1.233332
 40
1.233332
 40
1.233332
 10
32.424925
 20
180.370051
 30
0.0
 10
32.564230
 20
180.348390
 30
0.0
 10
32.838400
 20
180.305759
 30
0.0
 10
33.154383
 20
179.989777
 30
0.0
 10
33.197014
 20
179.715606
 30
0.0
 10
33.218675
 20
179.576301
 30
0.0
 11
32.424925
 21
180.370051
 31
0.0
 11
32.826151
 21
180.261983
 31
0.0
 11
33.110607
 21
179.977527
 31
0.0
 11
33.218675
 21
179.576301
 31
0.0
  0
LWPOLYLINE
  5
25f
100
AcDbEntity
  8
Layer_1
 62
5
100
AcDbPolyline
 90
2
 70
0
 10
33.218675
 20
179.576301
 30
0.0
 10
33.218675
 20
157.273857
 30
0.0
  0
SPLINE
  5
260
100
AcDbEntity
  8
Layer_1
 62
5
100
AcDbSpline
 70
0
 71
3
 72
10
 73
6
 74
4
 40
0.000000
 40
0.000000
 40
0.000000
 40
0.000000
 40
0.415525
 40
0.817807
 40
1.233332
 40
1.233332
 40
1.233332
 40
1.233332
 10
33.218675
 20
157.273857
 30
0.0
 10
33.197014
 20
157.134552
 30
0.0
 10
33.154383
 20
156.860382
 30
0.0
 10
32.838400
 20
156.544399
 30
0.0
 10
32.564230
 20
156.501768
 30
0.0
 10
32.424925
 20
156.480107
 30
0.0
 11
33.218675
 21
157.273857
 31
0.0
 11
33.110607
 21
156.872632
 31
0.0
 11
32.826151
 21
156.588175
 31
0.0
 11
32.424925
 21
156.480107
 31
0.0
  0
LWPOLYLINE
  5
261
100
AcDbEntity
  8
Layer_1
 62
5
100
AcDbPolyline
 90
2
 70
0
 10
32.424925
 20
156.480107
 30
0.0
 10
28.499363
 20
156.480107
 30
0.0
  0
SPLINE
  5
262
100
AcDbEntity
  8
Layer_1
 62
5
100
AcDbSpline
 70
0
 71
3
 72
10
 73
6
 74
4
 40
0.000000
 40
0.000000
 40
0.000000
 40
0.000000
 40
0.415525
 40
0.817807
 40
1.233332
 40
1.233332
 40
1.233332
 40
1.233332
 10
28.499363
 20
156.480107
 30
0.0
 10
28.360058
 20
156.501768
 30
0.0
 10
28.085887
 20
156.544399
 30
0.0
 10
27.769905
 20
156.860382
 30
0.0
 10
27.727273
 20
157.134552
 30
0.0
 10
27.705613
 20
157.273857
 30
0.0
 11
28.499363
 21
156.480107
 31
0.0
 11
28.098137
 21
156.588175
 31
0.0
 11
27.813680
 21
156.872632
 31
0.0
 11
27.705613
 21
157.273857
 31
0.0
  0
LWPOLYLINE
  5
263
100
AcDbEntity
  8
Layer_1
 62
5
100
AcDbPolyline
 90
2
 70
0
 10
27.705613
 20
157.273857
 30
0.0
 10
27.705613
 20
179.576301
 30
0.0
  0
SPLINE
  5
264
100
AcDbEntity
  8
Layer_1
 62
5
100
AcDbSpline
 70
0
 71
3
 72
10
 73
6
 74
4
 40
0.000000
 40
0.000000
 40
0.000000
 40
0.000000
 40
0.415525
 40
0.817807
 40
1.233332
 40
1.233332
 40
1.233332
 40
1.233332
 10
27.705613
 20
179.576301
 30
0.0
 10
27.727273
 20
179.715606
 30
0.0
 10
27.769905
 20
179.989777
 30
0.0
 10
28.085887
 20
180.305759
 30
0.0
 10
28.360058
 20
180.348390
 30
0.0
 10
28.499363
 20
180.370051
 30
0.0
 11
27.705613
 21
179.576301
 31
0.0
 11
27.813680
 21
179.977527
 31
0.0
 11
28.098137
 21
180.261983
 31
0.0
 11
28.499363
 21
180.370051
 31
0.0
  0
LWPOLYLINE
  5
265
100
AcDbEntity
  8
Layer_1
 62
5
100
AcDbPolyline
 90
2
 70
0
 10
28.499363
 20
180.370051
 30
0.0
 10
28.499363
 20
180.370051
 30
0.0
  0
ENDSEC
  0
SECTION
  2
OBJECTS
  0
DICTIONARY
  5
C
330
0
100
AcDbDictionary
  3
ACAD_GROUP
350
D
  3
ACAD_MLINESTYLE
350
17
  0
DICTIONARY
  5
D
330
C
100
AcDbDictionary
  0
DICTIONARY
  5
1A
330
C
100
AcDbDictionary
  0
DICTIONARY
  5
17
330
C
100
AcDbDictionary
  3
STANDARD
350
18
  0
DICTIONARY
  5
19
330
C
100
AcDbDictionary
  0
ENDSEC
  0
EOF
